<svg xmlns="http://www.w3.org/2000/svg" xmlns:xlink="http://www.w3.org/1999/xlink" width="500" zoomAndPan="magnify" viewBox="0 0 375 374.999991" height="500" preserveAspectRatio="xMidYMid meet" version="1.2"><defs><clipPath id="703ed2288f"><path d="M 312 120 L 344 120 L 344 152 L 312 152 Z M 312 120 "/></clipPath><clipPath id="01dfdb2471"><path d="M 305.691406 125.414062 L 327.511719 103.773438 L 359.664062 136.191406 L 337.84375 157.832031 Z M 305.691406 125.414062 "/></clipPath><clipPath id="a3e27bba94"><path d="M 305.691406 125.414062 L 327.511719 103.773438 L 359.664062 136.191406 L 337.84375 157.832031 Z M 305.691406 125.414062 "/></clipPath><clipPath id="a044fe7a41"><path d="M 327 104 L 360 104 L 360 136 L 327 136 Z M 327 104 "/></clipPath><clipPath id="c4525224b7"><path d="M 321.269531 109.960938 L 343.089844 88.320312 L 375.242188 120.742188 L 353.421875 142.382812 Z M 321.269531 109.960938 "/></clipPath><clipPath id="1fda446ae5"><path d="M 321.269531 109.960938 L 343.089844 88.320312 L 375.242188 120.742188 L 353.421875 142.382812 Z M 321.269531 109.960938 "/></clipPath><clipPath id="e227a9db5e"><path d="M 14.910156 162.625 L 61.984375 162.625 L 61.984375 226.6875 L 14.910156 226.6875 Z M 14.910156 162.625 "/></clipPath><clipPath id="41b27c5a22"><path d="M 250.484375 175.75 L 264.988281 175.75 L 264.988281 190.253906 L 250.484375 190.253906 Z M 250.484375 175.75 "/></clipPath><clipPath id="2ef93624e4"><path d="M 257.738281 175.75 C 253.730469 175.75 250.484375 178.996094 250.484375 183 C 250.484375 187.007812 253.730469 190.253906 257.738281 190.253906 C 261.742188 190.253906 264.988281 187.007812 264.988281 183 C 264.988281 178.996094 261.742188 175.75 257.738281 175.75 Z M 257.738281 175.75 "/></clipPath></defs><g id="0e5bfdeb96"><g clip-rule="nonzero" clip-path="url(#703ed2288f)"><g clip-rule="nonzero" clip-path="url(#01dfdb2471)"><g clip-rule="nonzero" clip-path="url(#a3e27bba94)"><path style=" stroke:none;fill-rule:nonzero;fill:#f85c70;fill-opacity:1;" d="M 343.597656 120.363281 L 316.355469 120.113281 C 311.09375 120.0625 310.566406 130.328125 316.796875 130.277344 L 333.738281 130.140625 L 333.046875 147.214844 C 332.835938 152.414062 342.96875 152.609375 343.070312 147.328125 Z M 343.597656 120.363281 "/></g></g></g><g clip-rule="nonzero" clip-path="url(#a044fe7a41)"><g clip-rule="nonzero" clip-path="url(#c4525224b7)"><g clip-rule="nonzero" clip-path="url(#1fda446ae5)"><path style=" stroke:none;fill-rule:nonzero;fill:#18cb96;fill-opacity:1;" d="M 359.175781 104.914062 L 331.933594 104.660156 C 326.671875 104.613281 326.144531 114.878906 332.375 114.828125 L 349.316406 114.691406 L 348.625 131.765625 C 348.414062 136.964844 358.546875 137.15625 358.648438 131.878906 Z M 359.175781 104.914062 "/></g></g></g><g clip-rule="nonzero" clip-path="url(#e227a9db5e)"><path style=" stroke:none;fill-rule:nonzero;fill:#f8d210;fill-opacity:1;" d="M 14.910156 162.625 L 61.984375 162.625 L 61.984375 226.617188 L 14.910156 226.617188 Z M 14.910156 162.625 "/></g><g clip-rule="nonzero" clip-path="url(#41b27c5a22)"><g clip-rule="nonzero" clip-path="url(#2ef93624e4)"><path style=" stroke:none;fill-rule:nonzero;fill:#a191dd;fill-opacity:1;" d="M 250.484375 175.75 L 264.988281 175.75 L 264.988281 190.253906 L 250.484375 190.253906 Z M 250.484375 175.75 "/></g></g><g style="fill:#ffffff;fill-opacity:1;"><g transform="translate(102.840833, 242.878493)"><path style="stroke:none" d="M 7.515625 0.15625 C 6.222656 0.15625 5.097656 -0.0625 4.140625 -0.5 C 3.179688 -0.9375 2.4375 -1.566406 1.90625 -2.390625 C 1.382812 -3.210938 1.125 -4.1875 1.125 -5.3125 C 1.125 -6.4375 1.390625 -7.410156 1.921875 -8.234375 C 2.453125 -9.054688 3.191406 -9.6875 4.140625 -10.125 C 5.097656 -10.570312 6.226562 -10.796875 7.53125 -10.796875 C 8.476562 -10.796875 9.34375 -10.679688 10.125 -10.453125 C 10.90625 -10.222656 11.566406 -9.878906 12.109375 -9.421875 L 11.3125 -7.734375 C 10.738281 -8.128906 10.160156 -8.421875 9.578125 -8.609375 C 8.992188 -8.796875 8.34375 -8.890625 7.625 -8.890625 C 6.320312 -8.890625 5.304688 -8.582031 4.578125 -7.96875 C 3.847656 -7.351562 3.484375 -6.46875 3.484375 -5.3125 C 3.484375 -4.164062 3.84375 -3.285156 4.5625 -2.671875 C 5.289062 -2.054688 6.3125 -1.75 7.625 -1.75 C 8.34375 -1.75 8.992188 -1.84375 9.578125 -2.03125 C 10.160156 -2.21875 10.738281 -2.507812 11.3125 -2.90625 L 12.109375 -1.21875 C 11.566406 -0.769531 10.898438 -0.425781 10.109375 -0.1875 C 9.328125 0.0390625 8.460938 0.15625 7.515625 0.15625 Z M 7.515625 0.15625 "/></g></g><g style="fill:#ffffff;fill-opacity:1;"><g transform="translate(122.087876, 242.878493)"><path style="stroke:none" d="M 5.640625 0 L -0.171875 -10.640625 L 2.375 -10.640625 L 6.890625 -2.078125 L 6.453125 -2.078125 L 10.96875 -10.640625 L 13.4375 -10.640625 L 7.640625 0 Z M 5.640625 0 "/></g></g><g style="fill:#ffffff;fill-opacity:1;"><g transform="translate(141.68208, 242.878493)"><path style="stroke:none" d=""/></g></g><g style="fill:#ffffff;fill-opacity:1;"><g transform="translate(153.110543, 242.878493)"><path style="stroke:none" d="M 1.59375 0 L 1.59375 -10.640625 L 7.5 -10.640625 C 8.875 -10.640625 9.9375 -10.398438 10.6875 -9.921875 C 11.4375 -9.453125 11.8125 -8.789062 11.8125 -7.9375 C 11.8125 -7.25 11.585938 -6.691406 11.140625 -6.265625 C 10.703125 -5.847656 10.085938 -5.570312 9.296875 -5.4375 L 9.296875 -5.546875 C 9.878906 -5.484375 10.382812 -5.335938 10.8125 -5.109375 C 11.25 -4.890625 11.582031 -4.601562 11.8125 -4.25 C 12.039062 -3.894531 12.15625 -3.457031 12.15625 -2.9375 C 12.15625 -2.320312 11.976562 -1.789062 11.625 -1.34375 C 11.28125 -0.90625 10.773438 -0.570312 10.109375 -0.34375 C 9.453125 -0.113281 8.65625 0 7.71875 0 Z M 3.78125 -1.671875 L 7.546875 -1.671875 C 7.742188 -1.671875 7.953125 -1.679688 8.171875 -1.703125 C 8.390625 -1.722656 8.601562 -1.757812 8.8125 -1.8125 C 9.019531 -1.863281 9.207031 -1.941406 9.375 -2.046875 C 9.550781 -2.160156 9.6875 -2.304688 9.78125 -2.484375 C 9.882812 -2.660156 9.9375 -2.875 9.9375 -3.125 C 9.9375 -3.40625 9.882812 -3.628906 9.78125 -3.796875 C 9.6875 -3.972656 9.550781 -4.113281 9.375 -4.21875 C 9.207031 -4.320312 9.019531 -4.394531 8.8125 -4.4375 C 8.613281 -4.488281 8.40625 -4.519531 8.1875 -4.53125 C 7.96875 -4.539062 7.765625 -4.546875 7.578125 -4.546875 L 3.78125 -4.546875 Z M 3.78125 -6.234375 L 7.265625 -6.234375 C 8.085938 -6.234375 8.679688 -6.335938 9.046875 -6.546875 C 9.410156 -6.765625 9.59375 -7.117188 9.59375 -7.609375 C 9.59375 -8.066406 9.410156 -8.40625 9.046875 -8.625 C 8.679688 -8.851562 8.082031 -8.96875 7.25 -8.96875 L 3.78125 -8.96875 Z M 3.78125 -6.234375 "/></g></g><g style="fill:#ffffff;fill-opacity:1;"><g transform="translate(172.689644, 242.878493)"><path style="stroke:none" d="M 7.046875 0.15625 C 5.203125 0.15625 3.8125 -0.222656 2.875 -0.984375 C 1.945312 -1.742188 1.484375 -2.859375 1.484375 -4.328125 L 1.484375 -10.640625 L 3.734375 -10.640625 L 3.734375 -4.390625 C 3.734375 -3.515625 4.007812 -2.851562 4.5625 -2.40625 C 5.125 -1.96875 5.953125 -1.75 7.046875 -1.75 C 8.148438 -1.75 8.976562 -1.96875 9.53125 -2.40625 C 10.082031 -2.851562 10.359375 -3.515625 10.359375 -4.390625 L 10.359375 -10.640625 L 12.59375 -10.640625 L 12.59375 -4.328125 C 12.59375 -2.859375 12.128906 -1.742188 11.203125 -0.984375 C 10.273438 -0.222656 8.890625 0.15625 7.046875 0.15625 Z M 7.046875 0.15625 "/></g></g><g style="fill:#ffffff;fill-opacity:1;"><g transform="translate(193.083804, 242.878493)"><path style="stroke:none" d="M 1.59375 0 L 1.59375 -10.640625 L 3.84375 -10.640625 L 3.84375 0 Z M 1.59375 0 "/></g></g><g style="fill:#ffffff;fill-opacity:1;"><g transform="translate(204.82924, 242.878493)"><path style="stroke:none" d="M 1.59375 0 L 1.59375 -10.640625 L 3.84375 -10.640625 L 3.84375 -1.859375 L 10.296875 -1.859375 L 10.296875 0 Z M 1.59375 0 "/></g></g><g style="fill:#ffffff;fill-opacity:1;"><g transform="translate(221.857496, 242.878493)"><path style="stroke:none" d="M 1.59375 0 L 1.59375 -10.640625 L 6.65625 -10.640625 C 8.113281 -10.640625 9.335938 -10.4375 10.328125 -10.03125 C 11.316406 -9.632812 12.0625 -9.039062 12.5625 -8.25 C 13.070312 -7.457031 13.328125 -6.484375 13.328125 -5.328125 C 13.328125 -4.171875 13.070312 -3.191406 12.5625 -2.390625 C 12.050781 -1.597656 11.300781 -1 10.3125 -0.59375 C 9.332031 -0.195312 8.113281 0 6.65625 0 Z M 3.84375 -1.8125 L 6.515625 -1.8125 C 8.066406 -1.8125 9.203125 -2.085938 9.921875 -2.640625 C 10.640625 -3.203125 11 -4.097656 11 -5.328125 C 11 -6.546875 10.640625 -7.429688 9.921875 -7.984375 C 9.203125 -8.546875 8.066406 -8.828125 6.515625 -8.828125 L 3.84375 -8.828125 Z M 3.84375 -1.8125 "/></g></g><g style="fill:#ffffff;fill-opacity:1;"><g transform="translate(242.629006, 242.878493)"><path style="stroke:none" d="M 1.59375 0 L 1.59375 -10.640625 L 10.421875 -10.640625 L 10.421875 -8.890625 L 3.78125 -8.890625 L 3.78125 -6.28125 L 9.921875 -6.28125 L 9.921875 -4.53125 L 3.78125 -4.53125 L 3.78125 -1.75 L 10.421875 -1.75 L 10.421875 0 Z M 1.59375 0 "/></g></g><g style="fill:#ffffff;fill-opacity:1;"><g transform="translate(260.427047, 242.878493)"><path style="stroke:none" d="M 1.59375 0 L 1.59375 -10.640625 L 7.484375 -10.640625 C 8.910156 -10.640625 10 -10.367188 10.75 -9.828125 C 11.507812 -9.296875 11.890625 -8.515625 11.890625 -7.484375 C 11.890625 -6.816406 11.722656 -6.253906 11.390625 -5.796875 C 11.066406 -5.335938 10.597656 -4.976562 9.984375 -4.71875 C 9.378906 -4.46875 8.640625 -4.320312 7.765625 -4.28125 L 7.90625 -4.421875 L 8.453125 -4.40625 C 8.867188 -4.382812 9.238281 -4.28125 9.5625 -4.09375 C 9.882812 -3.90625 10.1875 -3.617188 10.46875 -3.234375 L 12.71875 0 L 10.234375 0 L 8.0625 -3.203125 C 7.90625 -3.421875 7.75 -3.59375 7.59375 -3.71875 C 7.4375 -3.84375 7.238281 -3.929688 7 -3.984375 C 6.769531 -4.046875 6.460938 -4.078125 6.078125 -4.078125 L 3.84375 -4.078125 L 3.84375 0 Z M 3.84375 -5.71875 L 7.265625 -5.71875 C 8.117188 -5.71875 8.734375 -5.851562 9.109375 -6.125 C 9.492188 -6.394531 9.6875 -6.800781 9.6875 -7.34375 C 9.6875 -7.882812 9.492188 -8.28125 9.109375 -8.53125 C 8.722656 -8.78125 8.097656 -8.90625 7.234375 -8.90625 L 3.84375 -8.90625 Z M 3.84375 -5.71875 "/></g></g><g style="fill:#777265;fill-opacity:0.349;"><g transform="translate(36.263623, 195.649776)"><path style="stroke:none" d="M 21.875 -41.25 C 23.332031 -41.25 24.492188 -40.9375 25.359375 -40.3125 C 26.222656 -39.6875 26.65625 -38.675781 26.65625 -37.28125 C 26.65625 -35.976562 26.222656 -34.945312 25.359375 -34.1875 C 24.492188 -33.4375 23.332031 -33.0625 21.875 -33.0625 C 18.476562 -33.0625 16.085938 -31.84375 14.703125 -29.40625 C 13.328125 -26.976562 12.640625 -23.6875 12.640625 -19.53125 L 12.640625 -4.125 C 12.640625 -2.9375 12.207031 -1.953125 11.34375 -1.171875 C 10.476562 -0.390625 9.425781 0 8.1875 0 C 6.78125 0 5.644531 -0.390625 4.78125 -1.171875 C 3.914062 -1.953125 3.484375 -2.9375 3.484375 -4.125 L 3.484375 -37.109375 C 3.484375 -38.410156 3.984375 -39.425781 4.984375 -40.15625 C 5.984375 -40.882812 7.050781 -41.25 8.1875 -41.25 C 9.320312 -41.25 10.347656 -40.894531 11.265625 -40.1875 C 12.179688 -39.488281 12.640625 -38.460938 12.640625 -37.109375 L 12.640625 -36.625 C 13.828125 -38.1875 15.203125 -39.347656 16.765625 -40.109375 C 18.335938 -40.867188 20.039062 -41.25 21.875 -41.25 Z M 21.875 -41.25 "/></g></g><g style="fill:#777265;fill-opacity:0.349;"><g transform="translate(60.490011, 195.649776)"><path style="stroke:none" d="M 23.171875 -7.21875 C 24.742188 -7.21875 26.285156 -7.429688 27.796875 -7.859375 C 29.304688 -8.296875 30.707031 -9.023438 32 -10.046875 C 33.25 -11.179688 34.46875 -11.707031 35.65625 -11.625 C 36.84375 -11.539062 37.828125 -11.109375 38.609375 -10.328125 C 39.390625 -9.546875 39.78125 -8.570312 39.78125 -7.40625 C 39.78125 -6.25 39.210938 -5.128906 38.078125 -4.046875 C 36.191406 -2.210938 33.953125 -0.929688 31.359375 -0.203125 C 28.765625 0.523438 26.117188 0.863281 23.421875 0.8125 C 19.203125 0.8125 15.484375 -0.0507812 12.265625 -1.78125 C 9.054688 -3.507812 6.546875 -5.910156 4.734375 -8.984375 C 2.929688 -12.066406 2.03125 -15.632812 2.03125 -19.6875 C 2.03125 -24.113281 2.894531 -28.003906 4.625 -31.359375 C 6.351562 -34.710938 8.796875 -37.332031 11.953125 -39.21875 C 15.109375 -41.113281 18.847656 -42.0625 23.171875 -42.0625 C 27.492188 -42.0625 31.164062 -41.179688 34.1875 -39.421875 C 37.21875 -37.660156 39.53125 -35.203125 41.125 -32.046875 C 42.71875 -28.890625 43.515625 -25.203125 43.515625 -20.984375 C 43.515625 -19.640625 43.242188 -18.492188 42.703125 -17.546875 C 42.160156 -16.597656 40.726562 -16.125 38.40625 -16.125 L 11.421875 -16.125 C 12.179688 -13.476562 13.613281 -11.332031 15.71875 -9.6875 C 17.820312 -8.039062 20.304688 -7.21875 23.171875 -7.21875 Z M 23.25 -34.03125 C 20.125 -34.03125 17.503906 -33.046875 15.390625 -31.078125 C 13.285156 -29.109375 11.9375 -26.53125 11.34375 -23.34375 L 34.921875 -23.34375 C 34.648438 -26.53125 33.597656 -29.109375 31.765625 -31.078125 C 29.929688 -33.046875 27.09375 -34.03125 23.25 -34.03125 Z M 23.25 -34.03125 "/></g></g><g style="fill:#777265;fill-opacity:0.349;"><g transform="translate(107.565533, 195.649776)"><path style="stroke:none" d="M 37.84375 -41.25 C 39.25 -41.25 40.382812 -40.785156 41.25 -39.859375 C 42.113281 -38.941406 42.546875 -37.863281 42.546875 -36.625 L 42.546875 -2.515625 C 42.546875 1.429688 41.625 4.753906 39.78125 7.453125 C 37.945312 10.148438 35.488281 12.175781 32.40625 13.53125 C 29.332031 14.882812 25.90625 15.5625 22.125 15.5625 C 18.988281 15.5625 16.148438 15.15625 13.609375 14.34375 C 11.078125 13.53125 8.703125 12.097656 6.484375 10.046875 C 5.398438 8.960938 4.882812 7.851562 4.9375 6.71875 C 5 5.59375 5.429688 4.625 6.234375 3.8125 C 7.046875 3 8.03125 2.535156 9.1875 2.421875 C 10.351562 2.316406 11.476562 2.753906 12.5625 3.734375 C 14.238281 5.191406 15.789062 6.132812 17.21875 6.5625 C 18.644531 7 20.28125 7.21875 22.125 7.21875 C 24.0625 7.21875 25.894531 6.878906 27.625 6.203125 C 29.351562 5.523438 30.757812 4.457031 31.84375 3 C 32.925781 1.539062 33.46875 -0.296875 33.46875 -2.515625 L 33.46875 -3.234375 C 31.625 -1.890625 29.625 -0.878906 27.46875 -0.203125 C 25.3125 0.472656 23.285156 0.8125 21.390625 0.8125 C 17.503906 0.8125 14.085938 -0.078125 11.140625 -1.859375 C 8.191406 -3.640625 5.894531 -6.148438 4.25 -9.390625 C 2.601562 -12.640625 1.78125 -16.425781 1.78125 -20.75 C 1.78125 -24.957031 2.617188 -28.65625 4.296875 -31.84375 C 5.972656 -35.03125 8.304688 -37.53125 11.296875 -39.34375 C 14.296875 -41.15625 17.769531 -42.0625 21.71875 -42.0625 C 23.550781 -42.0625 25.503906 -41.789062 27.578125 -41.25 C 29.660156 -40.707031 31.625 -39.757812 33.46875 -38.40625 C 34.0625 -40.300781 35.519531 -41.25 37.84375 -41.25 Z M 21.640625 -7.375 C 24.117188 -7.375 26.476562 -7.910156 28.71875 -8.984375 C 30.96875 -10.066406 32.523438 -11.691406 33.390625 -13.859375 L 33.390625 -27.390625 C 32.359375 -29.441406 30.800781 -31.035156 28.71875 -32.171875 C 26.644531 -33.304688 24.523438 -33.875 22.359375 -33.875 C 18.960938 -33.875 16.222656 -32.628906 14.140625 -30.140625 C 12.054688 -27.660156 11.015625 -24.5 11.015625 -20.65625 C 11.015625 -16.664062 11.988281 -13.453125 13.9375 -11.015625 C 15.882812 -8.585938 18.453125 -7.375 21.640625 -7.375 Z M 21.640625 -7.375 "/></g></g><g style="fill:#777265;fill-opacity:0.349;"><g transform="translate(154.560028, 195.649776)"><path style="stroke:none" d="M 23.171875 -7.21875 C 24.742188 -7.21875 26.285156 -7.429688 27.796875 -7.859375 C 29.304688 -8.296875 30.707031 -9.023438 32 -10.046875 C 33.25 -11.179688 34.46875 -11.707031 35.65625 -11.625 C 36.84375 -11.539062 37.828125 -11.109375 38.609375 -10.328125 C 39.390625 -9.546875 39.78125 -8.570312 39.78125 -7.40625 C 39.78125 -6.25 39.210938 -5.128906 38.078125 -4.046875 C 36.191406 -2.210938 33.953125 -0.929688 31.359375 -0.203125 C 28.765625 0.523438 26.117188 0.863281 23.421875 0.8125 C 19.203125 0.8125 15.484375 -0.0507812 12.265625 -1.78125 C 9.054688 -3.507812 6.546875 -5.910156 4.734375 -8.984375 C 2.929688 -12.066406 2.03125 -15.632812 2.03125 -19.6875 C 2.03125 -24.113281 2.894531 -28.003906 4.625 -31.359375 C 6.351562 -34.710938 8.796875 -37.332031 11.953125 -39.21875 C 15.109375 -41.113281 18.847656 -42.0625 23.171875 -42.0625 C 27.492188 -42.0625 31.164062 -41.179688 34.1875 -39.421875 C 37.21875 -37.660156 39.53125 -35.203125 41.125 -32.046875 C 42.71875 -28.890625 43.515625 -25.203125 43.515625 -20.984375 C 43.515625 -19.640625 43.242188 -18.492188 42.703125 -17.546875 C 42.160156 -16.597656 40.726562 -16.125 38.40625 -16.125 L 11.421875 -16.125 C 12.179688 -13.476562 13.613281 -11.332031 15.71875 -9.6875 C 17.820312 -8.039062 20.304688 -7.21875 23.171875 -7.21875 Z M 23.25 -34.03125 C 20.125 -34.03125 17.503906 -33.046875 15.390625 -31.078125 C 13.285156 -29.109375 11.9375 -26.53125 11.34375 -23.34375 L 34.921875 -23.34375 C 34.648438 -26.53125 33.597656 -29.109375 31.765625 -31.078125 C 29.929688 -33.046875 27.09375 -34.03125 23.25 -34.03125 Z M 23.25 -34.03125 "/></g></g><g style="fill:#777265;fill-opacity:0.349;"><g transform="translate(201.63555, 195.649776)"><path style="stroke:none" d="M 27.3125 -42.0625 C 31.09375 -42.0625 34.304688 -41.234375 36.953125 -39.578125 C 39.597656 -37.929688 41.625 -35.648438 43.03125 -32.734375 C 44.4375 -29.816406 45.140625 -26.414062 45.140625 -22.53125 L 45.140625 -4.21875 C 45.140625 -2.96875 44.734375 -1.953125 43.921875 -1.171875 C 43.109375 -0.390625 41.972656 0 40.515625 0 C 39.160156 0 38.050781 -0.390625 37.1875 -1.171875 C 36.320312 -1.953125 35.890625 -2.96875 35.890625 -4.21875 L 35.890625 -22.6875 C 35.890625 -26.039062 35.09375 -28.753906 33.5 -30.828125 C 31.90625 -32.910156 29.382812 -33.953125 25.9375 -33.953125 C 24.90625 -33.953125 23.671875 -33.664062 22.234375 -33.09375 C 20.804688 -32.53125 19.40625 -31.679688 18.03125 -30.546875 C 16.65625 -29.410156 15.519531 -27.976562 14.625 -26.25 C 13.738281 -24.519531 13.296875 -22.46875 13.296875 -20.09375 L 13.296875 -4.125 C 13.296875 -1.375 11.804688 0 8.828125 0 C 7.421875 0 6.269531 -0.363281 5.375 -1.09375 C 4.488281 -1.820312 4.046875 -2.832031 4.046875 -4.125 L 4.046875 -37.109375 C 4.046875 -38.460938 4.519531 -39.488281 5.46875 -40.1875 C 6.414062 -40.894531 7.484375 -41.25 8.671875 -41.25 C 9.804688 -41.25 10.859375 -40.894531 11.828125 -40.1875 C 12.804688 -39.488281 13.296875 -38.519531 13.296875 -37.28125 L 13.296875 -36.703125 C 15.617188 -38.867188 18.019531 -40.300781 20.5 -41 C 22.988281 -41.707031 25.257812 -42.0625 27.3125 -42.0625 Z M 27.3125 -42.0625 "/></g></g><g style="fill:#777265;fill-opacity:0.349;"><g transform="translate(250.817727, 195.649776)"><path style="stroke:none" d=""/></g></g><g style="fill:#777265;fill-opacity:0.349;"><g transform="translate(269.858495, 195.649776)"><path style="stroke:none" d="M 37.671875 -41.25 C 39.078125 -41.25 40.195312 -40.851562 41.03125 -40.0625 C 41.875 -39.28125 42.296875 -38.269531 42.296875 -37.03125 L 42.296875 -4.21875 C 42.296875 -2.96875 41.875 -1.953125 41.03125 -1.171875 C 40.195312 -0.390625 39.078125 0 37.671875 0 C 36.328125 0 35.273438 -0.304688 34.515625 -0.921875 C 33.765625 -1.546875 33.304688 -2.375 33.140625 -3.40625 C 31.304688 -1.945312 29.253906 -0.878906 26.984375 -0.203125 C 24.710938 0.472656 22.550781 0.8125 20.5 0.8125 C 16.613281 0.8125 13.25 -0.078125 10.40625 -1.859375 C 7.570312 -3.640625 5.398438 -6.148438 3.890625 -9.390625 C 2.378906 -12.640625 1.625 -16.425781 1.625 -20.75 C 1.625 -24.957031 2.457031 -28.65625 4.125 -31.84375 C 5.800781 -35.03125 8.140625 -37.53125 11.140625 -39.34375 C 14.140625 -41.15625 17.609375 -42.0625 21.546875 -42.0625 C 23.273438 -42.0625 25.191406 -41.734375 27.296875 -41.078125 C 29.410156 -40.429688 31.359375 -39.40625 33.140625 -38 C 33.359375 -38.976562 33.84375 -39.765625 34.59375 -40.359375 C 35.351562 -40.953125 36.378906 -41.25 37.671875 -41.25 Z M 21.46875 -7.375 C 23.84375 -7.375 26.140625 -7.898438 28.359375 -8.953125 C 30.578125 -10.003906 32.144531 -11.554688 33.0625 -13.609375 L 33.0625 -27.625 C 32.03125 -29.625 30.488281 -31.164062 28.4375 -32.25 C 26.382812 -33.332031 24.304688 -33.875 22.203125 -33.875 C 18.796875 -33.875 16.050781 -32.628906 13.96875 -30.140625 C 11.894531 -27.660156 10.859375 -24.5 10.859375 -20.65625 C 10.859375 -16.664062 11.828125 -13.453125 13.765625 -11.015625 C 15.710938 -8.585938 18.28125 -7.375 21.46875 -7.375 Z M 21.46875 -7.375 "/></g></g><g style="fill:#777265;fill-opacity:0.349;"><g transform="translate(316.690953, 195.649776)"><path style="stroke:none" d="M 12.15625 -47.328125 C 12.15625 -45.972656 11.65625 -44.957031 10.65625 -44.28125 C 9.65625 -43.601562 8.585938 -43.265625 7.453125 -43.265625 C 6.265625 -43.265625 5.179688 -43.601562 4.203125 -44.28125 C 3.234375 -44.957031 2.75 -45.972656 2.75 -47.328125 L 2.75 -48.375 C 2.75 -49.78125 3.234375 -50.804688 4.203125 -51.453125 C 5.179688 -52.097656 6.265625 -52.421875 7.453125 -52.421875 C 8.585938 -52.421875 9.65625 -52.097656 10.65625 -51.453125 C 11.65625 -50.804688 12.15625 -49.78125 12.15625 -48.375 Z M 2.84375 -37.28125 C 2.84375 -38.570312 3.335938 -39.554688 4.328125 -40.234375 C 5.328125 -40.910156 6.367188 -41.25 7.453125 -41.25 C 8.585938 -41.25 9.640625 -40.910156 10.609375 -40.234375 C 11.585938 -39.554688 12.078125 -38.597656 12.078125 -37.359375 L 12.078125 -3.96875 C 12.078125 -2.613281 11.585938 -1.613281 10.609375 -0.96875 C 9.640625 -0.320312 8.585938 0 7.453125 0 C 6.367188 0 5.328125 -0.320312 4.328125 -0.96875 C 3.335938 -1.613281 2.84375 -2.613281 2.84375 -3.96875 Z M 2.84375 -37.28125 "/></g></g><g style="fill:#ffffff;fill-opacity:1;"><g transform="translate(32.682556, 192.06871)"><path style="stroke:none" d="M 21.875 -41.25 C 23.332031 -41.25 24.492188 -40.9375 25.359375 -40.3125 C 26.222656 -39.6875 26.65625 -38.675781 26.65625 -37.28125 C 26.65625 -35.976562 26.222656 -34.945312 25.359375 -34.1875 C 24.492188 -33.4375 23.332031 -33.0625 21.875 -33.0625 C 18.476562 -33.0625 16.085938 -31.84375 14.703125 -29.40625 C 13.328125 -26.976562 12.640625 -23.6875 12.640625 -19.53125 L 12.640625 -4.125 C 12.640625 -2.9375 12.207031 -1.953125 11.34375 -1.171875 C 10.476562 -0.390625 9.425781 0 8.1875 0 C 6.78125 0 5.644531 -0.390625 4.78125 -1.171875 C 3.914062 -1.953125 3.484375 -2.9375 3.484375 -4.125 L 3.484375 -37.109375 C 3.484375 -38.410156 3.984375 -39.425781 4.984375 -40.15625 C 5.984375 -40.882812 7.050781 -41.25 8.1875 -41.25 C 9.320312 -41.25 10.347656 -40.894531 11.265625 -40.1875 C 12.179688 -39.488281 12.640625 -38.460938 12.640625 -37.109375 L 12.640625 -36.625 C 13.828125 -38.1875 15.203125 -39.347656 16.765625 -40.109375 C 18.335938 -40.867188 20.039062 -41.25 21.875 -41.25 Z M 21.875 -41.25 "/></g></g><g style="fill:#ffffff;fill-opacity:1;"><g transform="translate(56.908945, 192.06871)"><path style="stroke:none" d="M 23.171875 -7.21875 C 24.742188 -7.21875 26.285156 -7.429688 27.796875 -7.859375 C 29.304688 -8.296875 30.707031 -9.023438 32 -10.046875 C 33.25 -11.179688 34.46875 -11.707031 35.65625 -11.625 C 36.84375 -11.539062 37.828125 -11.109375 38.609375 -10.328125 C 39.390625 -9.546875 39.78125 -8.570312 39.78125 -7.40625 C 39.78125 -6.25 39.210938 -5.128906 38.078125 -4.046875 C 36.191406 -2.210938 33.953125 -0.929688 31.359375 -0.203125 C 28.765625 0.523438 26.117188 0.863281 23.421875 0.8125 C 19.203125 0.8125 15.484375 -0.0507812 12.265625 -1.78125 C 9.054688 -3.507812 6.546875 -5.910156 4.734375 -8.984375 C 2.929688 -12.066406 2.03125 -15.632812 2.03125 -19.6875 C 2.03125 -24.113281 2.894531 -28.003906 4.625 -31.359375 C 6.351562 -34.710938 8.796875 -37.332031 11.953125 -39.21875 C 15.109375 -41.113281 18.847656 -42.0625 23.171875 -42.0625 C 27.492188 -42.0625 31.164062 -41.179688 34.1875 -39.421875 C 37.21875 -37.660156 39.53125 -35.203125 41.125 -32.046875 C 42.71875 -28.890625 43.515625 -25.203125 43.515625 -20.984375 C 43.515625 -19.640625 43.242188 -18.492188 42.703125 -17.546875 C 42.160156 -16.597656 40.726562 -16.125 38.40625 -16.125 L 11.421875 -16.125 C 12.179688 -13.476562 13.613281 -11.332031 15.71875 -9.6875 C 17.820312 -8.039062 20.304688 -7.21875 23.171875 -7.21875 Z M 23.25 -34.03125 C 20.125 -34.03125 17.503906 -33.046875 15.390625 -31.078125 C 13.285156 -29.109375 11.9375 -26.53125 11.34375 -23.34375 L 34.921875 -23.34375 C 34.648438 -26.53125 33.597656 -29.109375 31.765625 -31.078125 C 29.929688 -33.046875 27.09375 -34.03125 23.25 -34.03125 Z M 23.25 -34.03125 "/></g></g><g style="fill:#ffffff;fill-opacity:1;"><g transform="translate(103.984466, 192.06871)"><path style="stroke:none" d="M 37.84375 -41.25 C 39.25 -41.25 40.382812 -40.785156 41.25 -39.859375 C 42.113281 -38.941406 42.546875 -37.863281 42.546875 -36.625 L 42.546875 -2.515625 C 42.546875 1.429688 41.625 4.753906 39.78125 7.453125 C 37.945312 10.148438 35.488281 12.175781 32.40625 13.53125 C 29.332031 14.882812 25.90625 15.5625 22.125 15.5625 C 18.988281 15.5625 16.148438 15.15625 13.609375 14.34375 C 11.078125 13.53125 8.703125 12.097656 6.484375 10.046875 C 5.398438 8.960938 4.882812 7.851562 4.9375 6.71875 C 5 5.59375 5.429688 4.625 6.234375 3.8125 C 7.046875 3 8.03125 2.535156 9.1875 2.421875 C 10.351562 2.316406 11.476562 2.753906 12.5625 3.734375 C 14.238281 5.191406 15.789062 6.132812 17.21875 6.5625 C 18.644531 7 20.28125 7.21875 22.125 7.21875 C 24.0625 7.21875 25.894531 6.878906 27.625 6.203125 C 29.351562 5.523438 30.757812 4.457031 31.84375 3 C 32.925781 1.539062 33.46875 -0.296875 33.46875 -2.515625 L 33.46875 -3.234375 C 31.625 -1.890625 29.625 -0.878906 27.46875 -0.203125 C 25.3125 0.472656 23.285156 0.8125 21.390625 0.8125 C 17.503906 0.8125 14.085938 -0.078125 11.140625 -1.859375 C 8.191406 -3.640625 5.894531 -6.148438 4.25 -9.390625 C 2.601562 -12.640625 1.78125 -16.425781 1.78125 -20.75 C 1.78125 -24.957031 2.617188 -28.65625 4.296875 -31.84375 C 5.972656 -35.03125 8.304688 -37.53125 11.296875 -39.34375 C 14.296875 -41.15625 17.769531 -42.0625 21.71875 -42.0625 C 23.550781 -42.0625 25.503906 -41.789062 27.578125 -41.25 C 29.660156 -40.707031 31.625 -39.757812 33.46875 -38.40625 C 34.0625 -40.300781 35.519531 -41.25 37.84375 -41.25 Z M 21.640625 -7.375 C 24.117188 -7.375 26.476562 -7.910156 28.71875 -8.984375 C 30.96875 -10.066406 32.523438 -11.691406 33.390625 -13.859375 L 33.390625 -27.390625 C 32.359375 -29.441406 30.800781 -31.035156 28.71875 -32.171875 C 26.644531 -33.304688 24.523438 -33.875 22.359375 -33.875 C 18.960938 -33.875 16.222656 -32.628906 14.140625 -30.140625 C 12.054688 -27.660156 11.015625 -24.5 11.015625 -20.65625 C 11.015625 -16.664062 11.988281 -13.453125 13.9375 -11.015625 C 15.882812 -8.585938 18.453125 -7.375 21.640625 -7.375 Z M 21.640625 -7.375 "/></g></g><g style="fill:#ffffff;fill-opacity:1;"><g transform="translate(150.978961, 192.06871)"><path style="stroke:none" d="M 23.171875 -7.21875 C 24.742188 -7.21875 26.285156 -7.429688 27.796875 -7.859375 C 29.304688 -8.296875 30.707031 -9.023438 32 -10.046875 C 33.25 -11.179688 34.46875 -11.707031 35.65625 -11.625 C 36.84375 -11.539062 37.828125 -11.109375 38.609375 -10.328125 C 39.390625 -9.546875 39.78125 -8.570312 39.78125 -7.40625 C 39.78125 -6.25 39.210938 -5.128906 38.078125 -4.046875 C 36.191406 -2.210938 33.953125 -0.929688 31.359375 -0.203125 C 28.765625 0.523438 26.117188 0.863281 23.421875 0.8125 C 19.203125 0.8125 15.484375 -0.0507812 12.265625 -1.78125 C 9.054688 -3.507812 6.546875 -5.910156 4.734375 -8.984375 C 2.929688 -12.066406 2.03125 -15.632812 2.03125 -19.6875 C 2.03125 -24.113281 2.894531 -28.003906 4.625 -31.359375 C 6.351562 -34.710938 8.796875 -37.332031 11.953125 -39.21875 C 15.109375 -41.113281 18.847656 -42.0625 23.171875 -42.0625 C 27.492188 -42.0625 31.164062 -41.179688 34.1875 -39.421875 C 37.21875 -37.660156 39.53125 -35.203125 41.125 -32.046875 C 42.71875 -28.890625 43.515625 -25.203125 43.515625 -20.984375 C 43.515625 -19.640625 43.242188 -18.492188 42.703125 -17.546875 C 42.160156 -16.597656 40.726562 -16.125 38.40625 -16.125 L 11.421875 -16.125 C 12.179688 -13.476562 13.613281 -11.332031 15.71875 -9.6875 C 17.820312 -8.039062 20.304688 -7.21875 23.171875 -7.21875 Z M 23.25 -34.03125 C 20.125 -34.03125 17.503906 -33.046875 15.390625 -31.078125 C 13.285156 -29.109375 11.9375 -26.53125 11.34375 -23.34375 L 34.921875 -23.34375 C 34.648438 -26.53125 33.597656 -29.109375 31.765625 -31.078125 C 29.929688 -33.046875 27.09375 -34.03125 23.25 -34.03125 Z M 23.25 -34.03125 "/></g></g><g style="fill:#ffffff;fill-opacity:1;"><g transform="translate(198.054483, 192.06871)"><path style="stroke:none" d="M 27.3125 -42.0625 C 31.09375 -42.0625 34.304688 -41.234375 36.953125 -39.578125 C 39.597656 -37.929688 41.625 -35.648438 43.03125 -32.734375 C 44.4375 -29.816406 45.140625 -26.414062 45.140625 -22.53125 L 45.140625 -4.21875 C 45.140625 -2.96875 44.734375 -1.953125 43.921875 -1.171875 C 43.109375 -0.390625 41.972656 0 40.515625 0 C 39.160156 0 38.050781 -0.390625 37.1875 -1.171875 C 36.320312 -1.953125 35.890625 -2.96875 35.890625 -4.21875 L 35.890625 -22.6875 C 35.890625 -26.039062 35.09375 -28.753906 33.5 -30.828125 C 31.90625 -32.910156 29.382812 -33.953125 25.9375 -33.953125 C 24.90625 -33.953125 23.671875 -33.664062 22.234375 -33.09375 C 20.804688 -32.53125 19.40625 -31.679688 18.03125 -30.546875 C 16.65625 -29.410156 15.519531 -27.976562 14.625 -26.25 C 13.738281 -24.519531 13.296875 -22.46875 13.296875 -20.09375 L 13.296875 -4.125 C 13.296875 -1.375 11.804688 0 8.828125 0 C 7.421875 0 6.269531 -0.363281 5.375 -1.09375 C 4.488281 -1.820312 4.046875 -2.832031 4.046875 -4.125 L 4.046875 -37.109375 C 4.046875 -38.460938 4.519531 -39.488281 5.46875 -40.1875 C 6.414062 -40.894531 7.484375 -41.25 8.671875 -41.25 C 9.804688 -41.25 10.859375 -40.894531 11.828125 -40.1875 C 12.804688 -39.488281 13.296875 -38.519531 13.296875 -37.28125 L 13.296875 -36.703125 C 15.617188 -38.867188 18.019531 -40.300781 20.5 -41 C 22.988281 -41.707031 25.257812 -42.0625 27.3125 -42.0625 Z M 27.3125 -42.0625 "/></g></g><g style="fill:#ffffff;fill-opacity:1;"><g transform="translate(247.23666, 192.06871)"><path style="stroke:none" d=""/></g></g><g style="fill:#ffffff;fill-opacity:1;"><g transform="translate(266.277428, 192.06871)"><path style="stroke:none" d="M 37.671875 -41.25 C 39.078125 -41.25 40.195312 -40.851562 41.03125 -40.0625 C 41.875 -39.28125 42.296875 -38.269531 42.296875 -37.03125 L 42.296875 -4.21875 C 42.296875 -2.96875 41.875 -1.953125 41.03125 -1.171875 C 40.195312 -0.390625 39.078125 0 37.671875 0 C 36.328125 0 35.273438 -0.304688 34.515625 -0.921875 C 33.765625 -1.546875 33.304688 -2.375 33.140625 -3.40625 C 31.304688 -1.945312 29.253906 -0.878906 26.984375 -0.203125 C 24.710938 0.472656 22.550781 0.8125 20.5 0.8125 C 16.613281 0.8125 13.25 -0.078125 10.40625 -1.859375 C 7.570312 -3.640625 5.398438 -6.148438 3.890625 -9.390625 C 2.378906 -12.640625 1.625 -16.425781 1.625 -20.75 C 1.625 -24.957031 2.457031 -28.65625 4.125 -31.84375 C 5.800781 -35.03125 8.140625 -37.53125 11.140625 -39.34375 C 14.140625 -41.15625 17.609375 -42.0625 21.546875 -42.0625 C 23.273438 -42.0625 25.191406 -41.734375 27.296875 -41.078125 C 29.410156 -40.429688 31.359375 -39.40625 33.140625 -38 C 33.359375 -38.976562 33.84375 -39.765625 34.59375 -40.359375 C 35.351562 -40.953125 36.378906 -41.25 37.671875 -41.25 Z M 21.46875 -7.375 C 23.84375 -7.375 26.140625 -7.898438 28.359375 -8.953125 C 30.578125 -10.003906 32.144531 -11.554688 33.0625 -13.609375 L 33.0625 -27.625 C 32.03125 -29.625 30.488281 -31.164062 28.4375 -32.25 C 26.382812 -33.332031 24.304688 -33.875 22.203125 -33.875 C 18.796875 -33.875 16.050781 -32.628906 13.96875 -30.140625 C 11.894531 -27.660156 10.859375 -24.5 10.859375 -20.65625 C 10.859375 -16.664062 11.828125 -13.453125 13.765625 -11.015625 C 15.710938 -8.585938 18.28125 -7.375 21.46875 -7.375 Z M 21.46875 -7.375 "/></g></g><g style="fill:#ffffff;fill-opacity:1;"><g transform="translate(313.109886, 192.06871)"><path style="stroke:none" d="M 12.15625 -47.328125 C 12.15625 -45.972656 11.65625 -44.957031 10.65625 -44.28125 C 9.65625 -43.601562 8.585938 -43.265625 7.453125 -43.265625 C 6.265625 -43.265625 5.179688 -43.601562 4.203125 -44.28125 C 3.234375 -44.957031 2.75 -45.972656 2.75 -47.328125 L 2.75 -48.375 C 2.75 -49.78125 3.234375 -50.804688 4.203125 -51.453125 C 5.179688 -52.097656 6.265625 -52.421875 7.453125 -52.421875 C 8.585938 -52.421875 9.65625 -52.097656 10.65625 -51.453125 C 11.65625 -50.804688 12.15625 -49.78125 12.15625 -48.375 Z M 2.84375 -37.28125 C 2.84375 -38.570312 3.335938 -39.554688 4.328125 -40.234375 C 5.328125 -40.910156 6.367188 -41.25 7.453125 -41.25 C 8.585938 -41.25 9.640625 -40.910156 10.609375 -40.234375 C 11.585938 -39.554688 12.078125 -38.597656 12.078125 -37.359375 L 12.078125 -3.96875 C 12.078125 -2.613281 11.585938 -1.613281 10.609375 -0.96875 C 9.640625 -0.320312 8.585938 0 7.453125 0 C 6.367188 0 5.328125 -0.320312 4.328125 -0.96875 C 3.335938 -1.613281 2.84375 -2.613281 2.84375 -3.96875 Z M 2.84375 -37.28125 "/></g></g></g></svg>