<svg xmlns="http://www.w3.org/2000/svg" xmlns:xlink="http://www.w3.org/1999/xlink" width="825" zoomAndPan="magnify" viewBox="0 0 618.75 584.249965" height="779" preserveAspectRatio="xMidYMid meet" version="1.2"><defs><clipPath id="106547bb74"><path d="M 144.644531 123 L 615.820312 123 L 615.820312 580.707031 L 144.644531 580.707031 Z M 144.644531 123 "/></clipPath><clipPath id="0ed1308a0b"><path d="M 144.777344 352.042969 C 149.214844 320.707031 150.511719 314.835938 152.421875 308.832031 C 154.273438 302.828125 157.480469 297.417969 159.269531 291.347656 C 161.054688 285.015625 161.425781 277.757812 163.152344 271.488281 C 164.816406 265.617188 166.976562 260.671875 169.195312 254.667969 C 171.785156 247.542969 173.820312 238.503906 177.828125 231.640625 C 181.777344 224.847656 188.003906 219.371094 192.875 213.566406 C 197.316406 208.15625 201.140625 202.480469 205.824219 197.863281 C 210.390625 193.378906 215.816406 189.945312 220.5625 185.988281 C 225.128906 182.226562 228.828125 178.730469 233.882812 174.640625 C 240.421875 169.429688 248.621094 161.90625 256.515625 157.421875 C 264.039062 153.132812 272.980469 150.757812 280.070312 147.988281 C 286.054688 145.613281 290.800781 143.4375 296.476562 141.589844 C 302.332031 139.675781 308.871094 139.082031 314.726562 136.773438 C 320.585938 134.527344 325.519531 130.109375 331.625 127.996094 C 338.222656 125.6875 346.179688 124.632812 353.085938 123.839844 C 359.558594 123.117188 365.480469 123.378906 371.890625 123.246094 C 378.492188 123.183594 385.644531 123.246094 392.117188 123.246094 C 398.039062 123.246094 403.34375 123.246094 409.324219 123.246094 C 415.675781 123.246094 422.765625 122.851562 429.179688 123.246094 C 435.222656 123.578125 440.957031 123.777344 446.632812 125.226562 C 452.429688 126.679688 457.855469 129.382812 463.714844 131.957031 C 470.125 134.726562 477.28125 138.355469 483.507812 141.324219 C 489.242188 143.964844 494.609375 145.941406 499.847656 148.910156 C 505.03125 151.8125 509.65625 155.507812 514.773438 158.9375 C 520.015625 162.4375 525.378906 165.800781 530.867188 169.691406 C 536.847656 173.847656 543.632812 178.796875 549.121094 183.21875 C 553.992188 187.175781 557.9375 190.871094 562.378906 194.894531 C 566.878906 198.984375 571.566406 203.007812 575.820312 207.628906 C 580.261719 212.3125 584.949219 217.324219 588.339844 222.867188 C 591.609375 228.277344 593.703125 234.542969 595.925781 240.417969 C 598.144531 246.222656 600.058594 251.566406 601.84375 257.898438 C 603.816406 265.089844 605.296875 273.734375 607.085938 281.515625 C 608.8125 289.300781 610.972656 297.351562 612.328125 304.675781 C 613.5625 311.074219 614.546875 316.8125 615.042969 323.015625 C 615.535156 329.28125 615.042969 335.550781 615.042969 342.214844 C 615.101562 349.46875 615.042969 357.652344 615.042969 364.972656 C 615.042969 371.902344 615.472656 378.234375 615.042969 384.964844 C 614.671875 391.890625 613.746094 398.882812 612.574219 406.140625 C 611.28125 413.925781 609.800781 422.964844 607.457031 430.289062 C 605.296875 436.882812 602.089844 442.558594 599.441406 448.363281 C 596.910156 453.90625 594.628906 459.25 591.855469 464.527344 C 589.082031 469.9375 585.996094 475.148438 582.667969 480.359375 C 579.273438 485.640625 575.820312 490.453125 571.691406 495.929688 C 566.878906 502.265625 560.898438 510.578125 555.472656 515.988281 C 550.96875 520.40625 546.960938 523.507812 541.90625 526.609375 C 536.355469 530.039062 528.277344 533.074219 523.46875 535.183594 C 520.445312 536.503906 517.792969 536.570312 515.945312 538.351562 C 514.09375 540.132812 514.527344 543.695312 512.429688 545.804688 C 509.222656 548.972656 501.761719 551.085938 496.457031 552.996094 C 491.460938 554.84375 482.953125 556.230469 481.535156 557.351562 C 481.226562 557.679688 481.101562 558.144531 481.101562 558.144531 C 481.101562 558.144531 480.179688 559.199219 479.683594 559.660156 C 479.253906 560.1875 478.328125 561.179688 478.328125 561.242188 C 478.265625 561.242188 477.15625 561.96875 476.601562 562.367188 C 476.046875 562.761719 474.9375 563.488281 474.875 563.488281 C 474.875 563.488281 473.640625 563.949219 472.964844 564.148438 C 472.347656 564.410156 471.113281 564.808594 471.050781 564.808594 C 471.050781 564.808594 469.757812 564.9375 469.078125 565.003906 C 468.398438 565.003906 467.105469 565.136719 467.105469 565.136719 C 467.042969 565.136719 465.75 564.871094 465.070312 564.808594 C 464.453125 564.675781 463.15625 564.410156 463.097656 564.410156 C 463.097656 564.410156 461.863281 563.816406 461.308594 563.554688 C 460.691406 563.289062 459.457031 562.695312 459.457031 562.695312 C 459.457031 562.695312 459.398438 562.628906 459.335938 562.628906 C 458.78125 562.5625 455.820312 565.402344 453.292969 567.117188 C 449.097656 569.953125 442.625 575.164062 436.210938 577.40625 C 429.242188 579.847656 420.175781 579.980469 412.714844 580.441406 C 406.054688 580.839844 399.890625 580.441406 393.660156 580.441406 C 387.617188 580.375 381.636719 580.640625 375.714844 580.246094 C 369.859375 579.78125 364.246094 578.859375 358.265625 577.804688 C 351.851562 576.683594 345.066406 575.496094 338.40625 573.582031 C 331.316406 571.535156 323.667969 568.105469 316.824219 565.664062 C 310.597656 563.421875 304.675781 561.773438 298.878906 559.398438 C 293.144531 557.023438 288.148438 554.25 282.230469 551.347656 C 275.445312 548.117188 267.675781 544.882812 260.460938 540.792969 C 252.9375 536.570312 244.921875 531.359375 238.078125 526.210938 C 231.664062 521.394531 225.746094 516.382812 220.441406 511.039062 C 215.445312 505.957031 211.5625 500.019531 206.9375 495.007812 C 202.433594 490.191406 197.316406 486.234375 193.183594 481.417969 C 189.238281 476.796875 186.214844 472.3125 182.640625 466.902344 C 178.324219 460.371094 174.066406 451.859375 169.566406 444.867188 C 165.1875 438.007812 159.269531 432.070312 156 425.273438 C 153.101562 419.136719 150.386719 409.96875 150.511719 406.140625 C 150.574219 404.425781 151.808594 404.097656 151.808594 402.511719 C 151.808594 399.675781 148.785156 394.859375 147.675781 390.242188 C 146.378906 384.632812 145.457031 377.640625 144.960938 371.242188 C 144.46875 364.90625 144.777344 352.042969 144.777344 352.042969 M 195.960938 408.910156 C 199.105469 411.550781 197.996094 409.308594 197.378906 408.910156 C 197.070312 408.648438 196.515625 408.78125 196.269531 408.78125 C 196.144531 408.847656 195.960938 408.910156 195.960938 408.910156 M 221.984375 249.453125 C 222.351562 249.585938 222.539062 248.859375 222.476562 248.792969 C 222.414062 248.792969 221.984375 249.453125 221.984375 249.453125 M 257.503906 261 C 261.265625 255.789062 261.820312 254.46875 261.757812 254.46875 C 261.695312 254.402344 261.265625 254.929688 260.894531 255.390625 C 260.152344 256.515625 257.503906 261 257.503906 261 M 272.300781 451.859375 C 275.570312 454.699219 277.050781 455.949219 277.480469 455.6875 C 277.851562 455.488281 277.667969 454.300781 277.730469 453.574219 C 277.851562 452.917969 277.976562 451.53125 277.976562 451.464844 C 277.976562 451.464844 278.285156 446.121094 277.976562 446.054688 C 277.851562 445.988281 277.789062 446.253906 277.542969 446.515625 C 276.804688 447.375 272.300781 451.859375 272.300781 451.859375 M 304.554688 469.542969 C 305.292969 469.542969 305.171875 469.011719 305.109375 468.949219 C 305.109375 468.949219 305.109375 469.011719 305.109375 469.011719 C 305.046875 469.078125 304.554688 469.542969 304.554688 469.542969 M 346.609375 423.097656 C 348.769531 423.820312 348.828125 423.757812 348.953125 423.625 C 349.074219 423.492188 349.324219 423.226562 349.261719 423.03125 C 349.136719 422.699219 347.410156 422.171875 346.980469 422.371094 C 346.734375 422.503906 346.609375 423.097656 346.609375 423.097656 M 404.515625 383.777344 C 412.902344 384.964844 413.765625 384.371094 413.703125 383.90625 C 413.640625 383.183594 410.1875 382.191406 409.324219 381.335938 C 408.832031 380.875 408.707031 380.015625 408.398438 380.015625 C 408.277344 380.015625 408.152344 380.34375 407.90625 380.609375 C 407.597656 381.003906 406.609375 382.191406 406.609375 382.191406 C 406.609375 382.257812 405.316406 383.183594 404.945312 383.445312 C 404.761719 383.578125 404.515625 383.777344 404.515625 383.777344 M 419.3125 188.824219 C 421.59375 190.871094 422.273438 190.078125 422.210938 189.75 C 422.089844 189.351562 420.792969 189.089844 420.300781 188.957031 C 419.929688 188.824219 419.3125 188.824219 419.3125 188.824219 M 446.507812 511.632812 C 450.578125 511.699219 451.625 511.5 452.984375 511.171875 C 454.832031 510.707031 457.113281 510.179688 459.273438 508.796875 C 462.171875 507.015625 467.84375 502.132812 468.214844 500.285156 C 468.339844 499.625 467.78125 499.230469 467.597656 498.765625 C 467.414062 498.304688 467.476562 497.777344 467.167969 497.644531 C 466.179688 497.316406 462.417969 500.679688 459.582031 502.59375 C 455.820312 505.167969 446.507812 511.632812 446.507812 511.632812 M 469.203125 229.730469 C 474.074219 235.46875 473.949219 234.015625 473.519531 233.292969 C 472.839844 232.105469 469.203125 229.730469 469.203125 229.730469 M 505.832031 270.566406 C 506.015625 270.632812 505.894531 270.433594 505.894531 270.433594 C 505.832031 270.433594 505.832031 270.566406 505.832031 270.566406 M 517.609375 348.746094 C 524.453125 357.1875 524.390625 371.042969 525.316406 371.109375 C 526.058594 371.109375 527.289062 363.917969 527.351562 361.410156 C 527.414062 359.761719 527.167969 359.101562 526.796875 357.386719 C 526.058594 354.21875 524.390625 344.523438 522.417969 343.996094 C 521.0625 343.597656 517.609375 348.746094 517.609375 348.746094 M 533.949219 252.226562 C 544.371094 273.601562 544.804688 282.769531 547.886719 286.664062 C 550.046875 289.433594 555.164062 291.941406 555.902344 291.414062 C 556.273438 291.148438 555.964844 290.292969 555.71875 289.300781 C 554.792969 286.269531 549.921875 277.164062 546.777344 271.421875 C 543.632812 265.75 539.253906 258.097656 536.789062 254.996094 C 535.675781 253.546875 533.949219 252.226562 533.949219 252.226562 "/></clipPath><filter x="0%" y="0%" width="100%" filterUnits="objectBoundingBox" id="617cdebe38" height="100%"><feColorMatrix values="0 0 0 0 1 0 0 0 0 1 0 0 0 0 1 0 0 0 1 0" type="matrix" in="SourceGraphic"/></filter><clipPath id="81a49addec"><path d="M 0.644531 0 L 471.5625 0 L 471.5625 457.707031 L 0.644531 457.707031 Z M 0.644531 0 "/></clipPath><clipPath id="2fb01e322b"><path d="M 0.777344 229.042969 C 5.214844 197.707031 6.511719 191.835938 8.421875 185.832031 C 10.273438 179.828125 13.480469 174.417969 15.269531 168.347656 C 17.054688 162.015625 17.425781 154.757812 19.152344 148.488281 C 20.816406 142.617188 22.976562 137.671875 25.195312 131.667969 C 27.785156 124.542969 29.820312 115.503906 33.828125 108.640625 C 37.777344 101.847656 44.003906 96.371094 48.875 90.566406 C 53.316406 85.15625 57.140625 79.480469 61.824219 74.863281 C 66.390625 70.378906 71.816406 66.945312 76.5625 62.988281 C 81.128906 59.226562 84.828125 55.730469 89.882812 51.640625 C 96.421875 46.429688 104.621094 38.90625 112.515625 34.421875 C 120.039062 30.132812 128.980469 27.757812 136.070312 24.988281 C 142.054688 22.613281 146.800781 20.4375 152.476562 18.589844 C 158.332031 16.675781 164.871094 16.082031 170.726562 13.773438 C 176.585938 11.527344 181.519531 7.109375 187.625 4.996094 C 194.222656 2.6875 202.179688 1.632812 209.085938 0.839844 C 215.558594 0.117188 221.480469 0.378906 227.890625 0.246094 C 234.492188 0.183594 241.644531 0.246094 248.117188 0.246094 C 254.039062 0.246094 259.34375 0.246094 265.324219 0.246094 C 271.675781 0.246094 278.765625 -0.148438 285.179688 0.246094 C 291.222656 0.578125 296.957031 0.777344 302.632812 2.226562 C 308.429688 3.679688 313.855469 6.382812 319.714844 8.957031 C 326.125 11.726562 333.28125 15.355469 339.507812 18.324219 C 345.242188 20.964844 350.609375 22.941406 355.847656 25.910156 C 361.03125 28.8125 365.65625 32.507812 370.773438 35.9375 C 376.015625 39.4375 381.378906 42.800781 386.867188 46.691406 C 392.847656 50.847656 399.632812 55.796875 405.121094 60.21875 C 409.992188 64.175781 413.9375 67.871094 418.378906 71.894531 C 422.878906 75.984375 427.566406 80.007812 431.820312 84.628906 C 436.261719 89.3125 440.949219 94.324219 444.339844 99.867188 C 447.609375 105.277344 449.703125 111.542969 451.925781 117.417969 C 454.144531 123.222656 456.058594 128.566406 457.84375 134.898438 C 459.816406 142.089844 461.296875 150.734375 463.085938 158.515625 C 464.8125 166.300781 466.972656 174.351562 468.328125 181.675781 C 469.5625 188.074219 470.546875 193.8125 471.042969 200.015625 C 471.535156 206.28125 471.042969 212.550781 471.042969 219.214844 C 471.101562 226.46875 471.042969 234.652344 471.042969 241.972656 C 471.042969 248.902344 471.472656 255.234375 471.042969 261.964844 C 470.671875 268.890625 469.746094 275.882812 468.574219 283.140625 C 467.28125 290.925781 465.800781 299.964844 463.457031 307.289062 C 461.296875 313.882812 458.089844 319.558594 455.441406 325.363281 C 452.910156 330.90625 450.628906 336.25 447.855469 341.527344 C 445.082031 346.9375 441.996094 352.148438 438.667969 357.359375 C 435.273438 362.640625 431.820312 367.453125 427.691406 372.929688 C 422.878906 379.265625 416.898438 387.578125 411.472656 392.988281 C 406.96875 397.40625 402.960938 400.507812 397.90625 403.609375 C 392.355469 407.039062 384.277344 410.074219 379.46875 412.183594 C 376.445312 413.503906 373.792969 413.570312 371.945312 415.351562 C 370.09375 417.132812 370.527344 420.695312 368.429688 422.804688 C 365.222656 425.972656 357.761719 428.085938 352.457031 429.996094 C 347.460938 431.84375 338.953125 433.230469 337.535156 434.351562 C 337.226562 434.679688 337.101562 435.144531 337.101562 435.144531 C 337.101562 435.144531 336.179688 436.199219 335.683594 436.660156 C 335.253906 437.1875 334.328125 438.179688 334.328125 438.242188 C 334.265625 438.242188 333.15625 438.96875 332.601562 439.367188 C 332.046875 439.761719 330.9375 440.488281 330.875 440.488281 C 330.875 440.488281 329.640625 440.949219 328.964844 441.148438 C 328.347656 441.410156 327.113281 441.808594 327.050781 441.808594 C 327.050781 441.808594 325.757812 441.9375 325.078125 442.003906 C 324.398438 442.003906 323.105469 442.136719 323.105469 442.136719 C 323.042969 442.136719 321.75 441.871094 321.070312 441.808594 C 320.453125 441.675781 319.15625 441.410156 319.097656 441.410156 C 319.097656 441.410156 317.863281 440.816406 317.308594 440.554688 C 316.691406 440.289062 315.457031 439.695312 315.457031 439.695312 C 315.457031 439.695312 315.398438 439.628906 315.335938 439.628906 C 314.78125 439.5625 311.820312 442.402344 309.292969 444.117188 C 305.097656 446.953125 298.625 452.164062 292.210938 454.40625 C 285.242188 456.847656 276.175781 456.980469 268.714844 457.441406 C 262.054688 457.839844 255.890625 457.441406 249.660156 457.441406 C 243.617188 457.375 237.636719 457.640625 231.714844 457.246094 C 225.859375 456.78125 220.246094 455.859375 214.265625 454.804688 C 207.851562 453.683594 201.066406 452.496094 194.40625 450.582031 C 187.316406 448.535156 179.667969 445.105469 172.824219 442.664062 C 166.597656 440.421875 160.675781 438.773438 154.878906 436.398438 C 149.144531 434.023438 144.148438 431.25 138.230469 428.347656 C 131.445312 425.117188 123.675781 421.882812 116.460938 417.792969 C 108.9375 413.570312 100.921875 408.359375 94.078125 403.210938 C 87.664062 398.394531 81.746094 393.382812 76.441406 388.039062 C 71.445312 382.957031 67.5625 377.019531 62.9375 372.007812 C 58.433594 367.191406 53.316406 363.234375 49.183594 358.417969 C 45.238281 353.796875 42.214844 349.3125 38.640625 343.902344 C 34.324219 337.371094 30.066406 328.859375 25.566406 321.867188 C 21.1875 315.007812 15.269531 309.070312 12 302.273438 C 9.101562 296.136719 6.386719 286.96875 6.511719 283.140625 C 6.574219 281.425781 7.808594 281.097656 7.808594 279.511719 C 7.808594 276.675781 4.785156 271.859375 3.675781 267.242188 C 2.378906 261.632812 1.457031 254.640625 0.960938 248.242188 C 0.46875 241.90625 0.777344 229.042969 0.777344 229.042969 M 51.960938 285.910156 C 55.105469 288.550781 53.996094 286.308594 53.378906 285.910156 C 53.070312 285.648438 52.515625 285.78125 52.269531 285.78125 C 52.144531 285.847656 51.960938 285.910156 51.960938 285.910156 M 77.984375 126.453125 C 78.351562 126.585938 78.539062 125.859375 78.476562 125.792969 C 78.414062 125.792969 77.984375 126.453125 77.984375 126.453125 M 113.503906 138 C 117.265625 132.789062 117.820312 131.46875 117.757812 131.46875 C 117.695312 131.402344 117.265625 131.929688 116.894531 132.390625 C 116.152344 133.515625 113.503906 138 113.503906 138 M 128.300781 328.859375 C 131.570312 331.699219 133.050781 332.949219 133.480469 332.6875 C 133.851562 332.488281 133.667969 331.300781 133.730469 330.574219 C 133.851562 329.917969 133.976562 328.53125 133.976562 328.464844 C 133.976562 328.464844 134.285156 323.121094 133.976562 323.054688 C 133.851562 322.988281 133.789062 323.253906 133.542969 323.515625 C 132.804688 324.375 128.300781 328.859375 128.300781 328.859375 M 160.554688 346.542969 C 161.292969 346.542969 161.171875 346.011719 161.109375 345.949219 C 161.109375 345.949219 161.109375 346.011719 161.109375 346.011719 C 161.046875 346.078125 160.554688 346.542969 160.554688 346.542969 M 202.609375 300.097656 C 204.769531 300.820312 204.828125 300.757812 204.953125 300.625 C 205.074219 300.492188 205.324219 300.226562 205.261719 300.03125 C 205.136719 299.699219 203.410156 299.171875 202.980469 299.371094 C 202.734375 299.503906 202.609375 300.097656 202.609375 300.097656 M 260.515625 260.777344 C 268.902344 261.964844 269.765625 261.371094 269.703125 260.90625 C 269.640625 260.183594 266.1875 259.191406 265.324219 258.335938 C 264.832031 257.875 264.707031 257.015625 264.398438 257.015625 C 264.277344 257.015625 264.152344 257.34375 263.90625 257.609375 C 263.597656 258.003906 262.609375 259.191406 262.609375 259.191406 C 262.609375 259.257812 261.316406 260.183594 260.945312 260.445312 C 260.761719 260.578125 260.515625 260.777344 260.515625 260.777344 M 275.3125 65.824219 C 277.59375 67.871094 278.273438 67.078125 278.210938 66.75 C 278.089844 66.351562 276.792969 66.089844 276.300781 65.957031 C 275.929688 65.824219 275.3125 65.824219 275.3125 65.824219 M 302.507812 388.632812 C 306.578125 388.699219 307.625 388.5 308.984375 388.171875 C 310.832031 387.707031 313.113281 387.179688 315.273438 385.796875 C 318.171875 384.015625 323.84375 379.132812 324.214844 377.285156 C 324.339844 376.625 323.78125 376.230469 323.597656 375.765625 C 323.414062 375.304688 323.476562 374.777344 323.167969 374.644531 C 322.179688 374.316406 318.417969 377.679688 315.582031 379.59375 C 311.820312 382.167969 302.507812 388.632812 302.507812 388.632812 M 325.203125 106.730469 C 330.074219 112.46875 329.949219 111.015625 329.519531 110.292969 C 328.839844 109.105469 325.203125 106.730469 325.203125 106.730469 M 361.832031 147.566406 C 362.015625 147.632812 361.894531 147.433594 361.894531 147.433594 C 361.832031 147.433594 361.832031 147.566406 361.832031 147.566406 M 373.609375 225.746094 C 380.453125 234.1875 380.390625 248.042969 381.316406 248.109375 C 382.058594 248.109375 383.289062 240.917969 383.351562 238.410156 C 383.414062 236.761719 383.167969 236.101562 382.796875 234.386719 C 382.058594 231.21875 380.390625 221.523438 378.417969 220.996094 C 377.0625 220.597656 373.609375 225.746094 373.609375 225.746094 M 389.949219 129.226562 C 400.371094 150.601562 400.804688 159.769531 403.886719 163.664062 C 406.046875 166.433594 411.164062 168.941406 411.902344 168.414062 C 412.273438 168.148438 411.964844 167.292969 411.71875 166.300781 C 410.792969 163.269531 405.921875 154.164062 402.777344 148.421875 C 399.632812 142.75 395.253906 135.097656 392.789062 131.996094 C 391.675781 130.546875 389.949219 129.226562 389.949219 129.226562 "/></clipPath><clipPath id="de6c7e8140"><rect x="0" width="472" y="0" height="458"/></clipPath><clipPath id="efd8120fc0"><path d="M 198 0 L 604.746094 0 L 604.746094 564 L 198 564 Z M 198 0 "/></clipPath><clipPath id="1553f628f7"><path d="M 0.273438 271 L 211 271 L 211 293 L 0.273438 293 Z M 0.273438 271 "/></clipPath></defs><g id="07de3bc546"><g clip-rule="nonzero" clip-path="url(#106547bb74)"><g clip-rule="nonzero" clip-path="url(#0ed1308a0b)"><g mask="url(#07914cfca8)" transform="matrix(1,0,0,1,144,123)"><g clip-path="url(#de6c7e8140)"><g clip-rule="nonzero" clip-path="url(#81a49addec)"><g clip-rule="nonzero" clip-path="url(#2fb01e322b)"><rect x="0" width="472" height="458" y="0" style="fill:#fff234;fill-opacity:1;stroke:none;"/></g></g></g><mask id="07914cfca8"><g filter="url(#617cdebe38)"><rect x="0" width="618.75" y="0" height="584.249965" style="fill:#000000;fill-opacity:0.5;stroke:none;"/></g></mask></g></g></g><g clip-rule="nonzero" clip-path="url(#efd8120fc0)"><path style=" stroke:none;fill-rule:nonzero;fill:#000000;fill-opacity:1;" d="M 550.613281 176.855469 L 559.714844 167.757812 L 559.992188 168.03125 C 563.210938 171.25 567.472656 172.996094 572.007812 172.996094 C 576.546875 172.996094 580.804688 171.21875 584.023438 168.03125 L 598.09375 153.972656 C 601.3125 150.757812 603.058594 146.5 603.058594 141.964844 C 603.058594 137.433594 601.28125 133.175781 598.09375 129.957031 L 561.21875 93.109375 C 554.8125 86.707031 543.59375 86.707031 537.1875 93.109375 L 523.117188 107.167969 C 519.898438 110.386719 518.152344 114.640625 518.152344 119.175781 C 518.152344 123.710938 519.929688 127.96875 523.117188 131.183594 L 523.394531 131.460938 L 513.769531 141.078125 C 481.582031 115.898438 442.777344 98.835938 400.382812 93.078125 L 400.382812 65.140625 L 418.589844 65.140625 C 429.902344 65.140625 439.097656 55.953125 439.097656 44.648438 L 439.097656 21.460938 C 439.097656 10.160156 429.902344 0.96875 418.589844 0.96875 L 318.019531 0.96875 C 306.707031 0.96875 297.511719 10.160156 297.511719 21.460938 L 297.511719 44.617188 C 297.511719 55.921875 306.707031 65.113281 318.019531 65.113281 L 336.226562 65.113281 L 336.226562 93.078125 C 323.71875 94.761719 311.367188 97.398438 299.289062 101.042969 C 293.589844 102.789062 290.371094 108.824219 292.117188 114.519531 C 293.835938 120.21875 299.84375 123.433594 305.605469 121.6875 C 325.835938 115.53125 346.925781 112.40625 368.320312 112.40625 C 486.703125 112.40625 583.042969 208.652344 583.042969 326.980469 C 583.042969 445.308594 486.730469 541.554688 368.320312 541.554688 C 310.96875 541.554688 257.050781 519.222656 216.496094 478.699219 C 212.265625 474.46875 205.429688 474.46875 201.230469 478.699219 C 197 482.925781 197 489.753906 201.230469 493.953125 C 245.863281 538.550781 305.238281 563.117188 368.351562 563.117188 C 498.65625 563.117188 604.683594 457.164062 604.683594 326.949219 C 604.625 270.003906 584.332031 217.6875 550.613281 176.855469 Z M 549.171875 111.640625 L 579.519531 141.964844 L 571.976562 149.5 L 541.632812 119.175781 Z M 538.628906 146.714844 L 544.421875 152.503906 L 536.082031 160.867188 C 534.152344 158.9375 532.191406 157.066406 530.199219 155.199219 Z M 319.121094 43.484375 L 319.121094 22.5625 L 417.457031 22.5625 L 417.457031 43.484375 Z M 357.835938 91.179688 L 357.835938 65.082031 L 378.773438 65.082031 L 378.773438 91.054688 C 375.308594 90.902344 371.816406 90.78125 368.320312 90.78125 C 364.796875 90.8125 361.300781 91.027344 357.835938 91.179688 Z M 357.835938 91.179688 "/></g><path style=" stroke:none;fill-rule:nonzero;fill:#000000;fill-opacity:1;" d="M 508.648438 466.382812 C 544.269531 430.574219 566.308594 381.289062 566.308594 326.949219 C 566.308594 272.609375 544.238281 223.324219 508.617188 187.515625 C 508.496094 187.363281 508.433594 187.179688 508.28125 187.023438 C 508.128906 186.871094 507.945312 186.839844 507.789062 186.6875 C 471.957031 151.09375 422.636719 129.039062 368.257812 129.039062 C 356.367188 129.039062 344.410156 130.113281 332.792969 132.195312 C 326.910156 133.265625 323.015625 138.871094 324.089844 144.753906 C 325.160156 150.605469 330.800781 154.554688 336.65625 153.453125 C 343.492188 152.226562 350.480469 151.523438 357.46875 151.125 L 357.46875 168.003906 C 357.46875 173.976562 362.3125 178.816406 368.289062 178.816406 C 374.265625 178.816406 379.109375 173.976562 379.109375 168.003906 L 379.109375 151.1875 C 419.601562 153.667969 456.386719 169.75 484.984375 195.050781 L 473.121094 206.90625 C 468.890625 211.132812 468.890625 217.960938 473.121094 222.160156 C 475.238281 224.273438 477.996094 225.3125 480.753906 225.3125 C 483.515625 225.3125 486.273438 224.273438 488.386719 222.160156 L 500.25 210.304688 C 525.570312 238.882812 541.691406 275.640625 544.144531 316.105469 L 527.316406 316.105469 C 521.339844 316.105469 516.496094 320.945312 516.496094 326.917969 C 516.496094 332.890625 521.339844 337.730469 527.316406 337.730469 L 544.144531 337.730469 C 541.664062 378.195312 525.570312 414.953125 500.25 443.53125 L 488.386719 431.679688 C 484.15625 427.453125 477.320312 427.453125 473.121094 431.679688 C 468.890625 435.90625 468.890625 442.738281 473.121094 446.933594 L 484.984375 458.789062 C 456.386719 484.089844 419.601562 500.199219 379.109375 502.652344 L 379.109375 485.835938 C 379.109375 479.863281 374.265625 475.023438 368.289062 475.023438 C 362.3125 475.023438 357.46875 479.863281 357.46875 485.835938 L 357.46875 502.773438 C 321.359375 500.628906 287.425781 487.824219 258.859375 465.25 C 254.167969 461.542969 247.363281 462.371094 243.6875 467.027344 C 239.976562 471.714844 240.773438 478.484375 245.464844 482.191406 C 280.746094 510.09375 323.199219 524.828125 368.289062 524.828125 C 422.667969 524.828125 471.988281 502.804688 507.789062 467.210938 C 507.945312 467.058594 508.160156 467.027344 508.3125 466.875 C 508.464844 466.75 508.527344 466.535156 508.648438 466.382812 Z M 508.648438 466.382812 "/><path style=" stroke:none;fill-rule:nonzero;fill:#000000;fill-opacity:1;" d="M 460.523438 234.808594 C 456.292969 230.582031 449.457031 230.582031 445.257812 234.808594 L 384.660156 295.335938 C 379.722656 292.765625 374.207031 291.203125 368.289062 291.203125 C 348.550781 291.203125 332.488281 307.253906 332.488281 326.980469 C 332.488281 346.707031 348.550781 362.757812 368.289062 362.757812 C 388.03125 362.757812 404.09375 346.707031 404.09375 326.980469 C 404.09375 321.066406 402.5 315.554688 399.953125 310.621094 L 460.523438 250.09375 C 464.722656 245.867188 464.722656 239.035156 460.523438 234.808594 Z M 368.289062 341.132812 C 360.472656 341.132812 354.097656 334.761719 354.097656 326.949219 C 354.097656 319.136719 360.472656 312.765625 368.289062 312.765625 C 372.214844 312.765625 375.738281 314.359375 378.3125 316.933594 C 380.886719 319.507812 382.480469 323.027344 382.480469 326.949219 C 382.480469 334.789062 376.105469 341.132812 368.289062 341.132812 Z M 368.289062 341.132812 "/><path style=" stroke:none;fill-rule:nonzero;fill:#000000;fill-opacity:1;" d="M 244.359375 150.664062 L 176.128906 150.664062 C 170.148438 150.664062 165.308594 145.824219 165.308594 139.851562 C 165.308594 133.878906 170.148438 129.039062 176.128906 129.039062 L 244.359375 129.039062 C 250.335938 129.039062 255.179688 133.878906 255.179688 139.851562 C 255.148438 145.824219 250.335938 150.664062 244.359375 150.664062 Z M 244.359375 150.664062 "/><path style=" stroke:none;fill-rule:nonzero;fill:#000000;fill-opacity:1;" d="M 141.246094 150.664062 L 119.390625 150.664062 C 113.410156 150.664062 108.566406 145.824219 108.566406 139.851562 C 108.566406 133.878906 113.410156 129.039062 119.390625 129.039062 L 141.246094 129.039062 C 147.222656 129.039062 152.066406 133.878906 152.066406 139.851562 C 152.066406 145.824219 147.222656 150.664062 141.246094 150.664062 Z M 141.246094 150.664062 "/><path style=" stroke:none;fill-rule:nonzero;fill:#000000;fill-opacity:1;" d="M 277.679688 221.761719 L 96.980469 221.761719 C 91.003906 221.761719 86.160156 216.921875 86.160156 210.949219 C 86.160156 204.976562 91.003906 200.136719 96.980469 200.136719 L 277.679688 200.136719 C 283.65625 200.136719 288.5 204.976562 288.5 210.949219 C 288.5 216.921875 283.65625 221.761719 277.679688 221.761719 Z M 277.679688 221.761719 "/><g clip-rule="nonzero" clip-path="url(#1553f628f7)"><path style=" stroke:none;fill-rule:nonzero;fill:#000000;fill-opacity:1;" d="M 199.882812 292.855469 L 11.09375 292.855469 C 5.113281 292.855469 0.273438 288.015625 0.273438 282.042969 C 0.273438 276.070312 5.113281 271.230469 11.09375 271.230469 L 199.882812 271.230469 C 205.859375 271.230469 210.703125 276.070312 210.703125 282.042969 C 210.671875 288.015625 205.859375 292.855469 199.882812 292.855469 Z M 199.882812 292.855469 "/></g><path style=" stroke:none;fill-rule:nonzero;fill:#000000;fill-opacity:1;" d="M 255.792969 292.855469 L 235.5 292.855469 C 229.523438 292.855469 224.679688 288.015625 224.679688 282.042969 C 224.679688 276.070312 229.523438 271.230469 235.5 271.230469 L 255.792969 271.230469 C 261.769531 271.230469 266.613281 276.070312 266.613281 282.042969 C 266.613281 288.015625 261.769531 292.855469 255.792969 292.855469 Z M 255.792969 292.855469 "/><path style=" stroke:none;fill-rule:nonzero;fill:#000000;fill-opacity:1;" d="M 297.449219 363.953125 L 137.351562 363.953125 C 131.375 363.953125 126.53125 359.113281 126.53125 353.140625 C 126.53125 347.167969 131.375 342.328125 137.351562 342.328125 L 297.480469 342.328125 C 303.460938 342.328125 308.300781 347.167969 308.300781 353.140625 C 308.300781 359.113281 303.429688 363.953125 297.449219 363.953125 Z M 297.449219 363.953125 "/><path style=" stroke:none;fill-rule:nonzero;fill:#000000;fill-opacity:1;" d="M 91.769531 435.046875 L 72.488281 435.046875 C 66.511719 435.046875 61.667969 430.207031 61.667969 424.234375 C 61.667969 418.261719 66.511719 413.421875 72.488281 413.421875 L 91.769531 413.421875 C 97.746094 413.421875 102.589844 418.261719 102.589844 424.234375 C 102.589844 430.207031 97.746094 435.046875 91.769531 435.046875 Z M 91.769531 435.046875 "/><path style=" stroke:none;fill-rule:nonzero;fill:#000000;fill-opacity:1;" d="M 255.792969 435.046875 L 126.164062 435.046875 C 120.1875 435.046875 115.34375 430.207031 115.34375 424.234375 C 115.34375 418.261719 120.1875 413.421875 126.164062 413.421875 L 255.792969 413.421875 C 261.769531 413.421875 266.613281 418.261719 266.613281 424.234375 C 266.613281 430.207031 261.769531 435.046875 255.792969 435.046875 Z M 255.792969 435.046875 "/></g></svg>