<svg xmlns="http://www.w3.org/2000/svg" xmlns:xlink="http://www.w3.org/1999/xlink" width="746" zoomAndPan="magnify" viewBox="0 0 559.5 580.499982" height="774" preserveAspectRatio="xMidYMid meet" version="1.2"><defs><clipPath id="a90ab662da"><path d="M 25.363281 8.503906 L 550.925781 8.503906 L 550.925781 576.503906 L 25.363281 576.503906 Z M 25.363281 8.503906 "/></clipPath><clipPath id="246f8adb8b"><path d="M 25.992188 292.707031 C 30.941406 253.84375 32.386719 246.558594 34.519531 239.113281 C 36.582031 231.667969 40.15625 224.960938 42.148438 217.429688 C 44.144531 209.578125 44.554688 200.574219 46.480469 192.804688 C 48.339844 185.519531 50.746094 179.382812 53.21875 171.9375 C 56.109375 163.101562 58.375 151.890625 62.847656 143.382812 C 67.246094 134.953125 74.191406 128.164062 79.621094 120.960938 C 84.574219 114.253906 88.835938 107.214844 94.0625 101.488281 C 99.148438 95.925781 105.199219 91.667969 110.496094 86.761719 C 115.582031 82.097656 119.707031 77.757812 125.347656 72.6875 C 132.632812 66.222656 141.777344 56.894531 150.582031 51.332031 C 158.96875 46.011719 168.9375 43.066406 176.84375 39.628906 C 183.515625 36.683594 188.808594 33.984375 195.136719 31.691406 C 201.667969 29.320312 208.957031 28.585938 215.488281 25.71875 C 222.019531 22.9375 227.519531 17.457031 234.328125 14.835938 C 241.683594 11.972656 250.554688 10.664062 258.253906 9.683594 C 265.472656 8.78125 272.074219 9.109375 279.226562 8.945312 C 286.582031 8.863281 294.558594 8.945312 301.777344 8.945312 C 308.378906 8.945312 314.292969 8.945312 320.960938 8.945312 C 328.042969 8.945312 335.949219 8.457031 343.101562 8.945312 C 349.839844 9.355469 356.234375 9.601562 362.558594 11.402344 C 369.023438 13.203125 375.074219 16.554688 381.605469 19.746094 C 388.753906 23.183594 396.730469 27.683594 403.675781 31.367188 C 410.070312 34.640625 416.050781 37.09375 421.894531 40.777344 C 427.671875 44.375 432.828125 48.957031 438.535156 53.210938 C 444.378906 57.550781 450.363281 61.722656 456.480469 66.550781 C 463.152344 71.703125 470.714844 77.839844 476.832031 83.324219 C 482.265625 88.234375 486.664062 92.816406 491.617188 97.804688 C 496.636719 102.878906 501.859375 107.871094 506.605469 113.597656 C 511.554688 119.40625 516.78125 125.625 520.5625 132.5 C 524.207031 139.207031 526.542969 146.980469 529.019531 154.265625 C 531.496094 161.464844 533.625 168.09375 535.621094 175.945312 C 537.820312 184.867188 539.472656 195.585938 541.464844 205.238281 C 543.390625 214.894531 545.796875 224.878906 547.308594 233.960938 C 548.683594 241.898438 549.785156 249.015625 550.335938 256.707031 C 550.882812 264.480469 550.335938 272.253906 550.335938 280.515625 C 550.402344 289.515625 550.335938 299.664062 550.335938 308.746094 C 550.335938 317.335938 550.816406 325.191406 550.335938 333.539062 C 549.921875 342.128906 548.890625 350.804688 547.585938 359.804688 C 546.140625 369.457031 544.492188 380.667969 541.878906 389.75 C 539.472656 397.933594 535.894531 404.96875 532.9375 412.171875 C 530.121094 419.042969 527.574219 425.671875 524.480469 432.21875 C 521.386719 438.925781 517.949219 445.390625 514.238281 451.855469 C 510.457031 458.398438 506.605469 464.375 502 471.164062 C 496.636719 479.019531 489.964844 489.328125 483.914062 496.039062 C 478.894531 501.519531 474.425781 505.367188 468.789062 509.210938 C 462.601562 513.46875 453.59375 517.230469 448.230469 519.847656 C 444.859375 521.484375 441.90625 521.566406 439.84375 523.777344 C 437.777344 525.984375 438.261719 530.40625 435.921875 533.023438 C 432.347656 536.949219 424.027344 539.570312 418.113281 541.941406 C 412.546875 544.234375 403.058594 545.949219 401.476562 547.339844 C 401.132812 547.75 400.992188 548.324219 400.992188 548.324219 C 400.992188 548.324219 399.960938 549.632812 399.414062 550.207031 C 398.929688 550.859375 397.898438 552.085938 397.898438 552.167969 C 397.832031 552.167969 396.59375 553.070312 395.976562 553.558594 C 395.355469 554.050781 394.117188 554.953125 394.050781 554.953125 C 394.050781 554.953125 392.675781 555.523438 391.917969 555.769531 C 391.230469 556.097656 389.855469 556.585938 389.785156 556.585938 C 389.785156 556.585938 388.34375 556.75 387.585938 556.832031 C 386.828125 556.832031 385.386719 556.996094 385.386719 556.996094 C 385.316406 556.996094 383.875 556.667969 383.117188 556.585938 C 382.429688 556.425781 380.984375 556.097656 380.917969 556.097656 C 380.917969 556.097656 379.542969 555.359375 378.921875 555.03125 C 378.234375 554.707031 376.859375 553.96875 376.859375 553.96875 C 376.859375 553.96875 376.792969 553.886719 376.722656 553.886719 C 376.105469 553.804688 372.804688 557.324219 369.984375 559.453125 C 365.308594 562.96875 358.089844 569.433594 350.9375 572.214844 C 343.167969 575.242188 333.0625 575.40625 324.742188 575.980469 C 317.316406 576.472656 310.441406 575.980469 303.496094 575.980469 C 296.757812 575.898438 290.089844 576.226562 283.488281 575.734375 C 276.957031 575.160156 270.699219 574.015625 264.03125 572.707031 C 256.878906 571.316406 249.316406 569.84375 241.890625 567.46875 C 233.984375 564.933594 225.457031 560.679688 217.824219 557.652344 C 210.878906 554.871094 204.28125 552.824219 197.816406 549.878906 C 191.421875 546.933594 185.851562 543.496094 179.253906 539.894531 C 171.6875 535.886719 163.023438 531.878906 154.980469 526.804688 C 146.59375 521.566406 137.652344 515.105469 130.023438 508.722656 C 122.871094 502.75 116.269531 496.53125 110.355469 489.902344 C 104.789062 483.601562 100.457031 476.238281 95.300781 470.019531 C 90.28125 464.046875 84.574219 459.136719 79.964844 453.164062 C 75.566406 447.4375 72.195312 441.871094 68.210938 435.164062 C 63.394531 427.0625 58.652344 416.507812 53.632812 407.832031 C 48.75 399.324219 42.148438 391.960938 38.507812 383.53125 C 35.273438 375.921875 32.25 364.550781 32.386719 359.804688 C 32.457031 357.675781 33.832031 357.265625 33.832031 355.304688 C 33.832031 351.785156 30.460938 345.8125 29.222656 340.085938 C 27.78125 333.128906 26.75 324.457031 26.199219 316.519531 C 25.648438 308.664062 25.992188 292.707031 25.992188 292.707031 M 83.0625 363.238281 C 86.566406 366.511719 85.328125 363.730469 84.640625 363.238281 C 84.296875 362.914062 83.679688 363.078125 83.40625 363.078125 C 83.265625 363.160156 83.0625 363.238281 83.0625 363.238281 M 112.074219 165.472656 C 112.488281 165.636719 112.695312 164.738281 112.625 164.65625 C 112.558594 164.65625 112.074219 165.472656 112.074219 165.472656 M 151.679688 179.792969 C 155.875 173.328125 156.492188 171.691406 156.425781 171.691406 C 156.355469 171.609375 155.875 172.265625 155.460938 172.839844 C 154.636719 174.230469 151.679688 179.792969 151.679688 179.792969 M 168.183594 416.507812 C 171.828125 420.023438 173.476562 421.578125 173.957031 421.253906 C 174.371094 421.007812 174.164062 419.535156 174.234375 418.632812 C 174.371094 417.816406 174.507812 416.097656 174.507812 416.015625 C 174.507812 416.015625 174.851562 409.386719 174.507812 409.304688 C 174.371094 409.222656 174.300781 409.550781 174.027344 409.878906 C 173.203125 410.941406 168.183594 416.507812 168.183594 416.507812 M 204.140625 438.433594 C 204.96875 438.433594 204.828125 437.78125 204.761719 437.699219 C 204.761719 437.699219 204.761719 437.78125 204.761719 437.78125 C 204.691406 437.863281 204.140625 438.433594 204.140625 438.433594 M 251.035156 380.832031 C 253.441406 381.730469 253.511719 381.648438 253.648438 381.488281 C 253.785156 381.324219 254.058594 380.996094 253.992188 380.75 C 253.855469 380.339844 251.929688 379.6875 251.445312 379.933594 C 251.171875 380.09375 251.035156 380.832031 251.035156 380.832031 M 315.597656 332.066406 C 324.949219 333.539062 325.910156 332.800781 325.84375 332.230469 C 325.773438 331.328125 321.921875 330.101562 320.960938 329.039062 C 320.410156 328.464844 320.273438 327.402344 319.929688 327.402344 C 319.792969 327.402344 319.652344 327.8125 319.378906 328.136719 C 319.035156 328.628906 317.933594 330.101562 317.933594 330.101562 C 317.933594 330.183594 316.492188 331.328125 316.078125 331.65625 C 315.871094 331.820312 315.597656 332.066406 315.597656 332.066406 M 332.097656 90.277344 C 334.644531 92.816406 335.398438 91.832031 335.332031 91.425781 C 335.195312 90.933594 333.75 90.605469 333.199219 90.441406 C 332.785156 90.277344 332.097656 90.277344 332.097656 90.277344 M 362.421875 490.636719 C 366.960938 490.71875 368.128906 490.476562 369.640625 490.066406 C 371.703125 489.492188 374.246094 488.839844 376.652344 487.121094 C 379.886719 484.910156 386.210938 478.855469 386.625 476.566406 C 386.761719 475.746094 386.140625 475.253906 385.9375 474.683594 C 385.730469 474.109375 385.796875 473.457031 385.453125 473.292969 C 384.355469 472.882812 380.160156 477.054688 376.996094 479.429688 C 372.804688 482.621094 362.421875 490.636719 362.421875 490.636719 M 387.722656 141.007812 C 393.15625 148.128906 393.019531 146.328125 392.535156 145.425781 C 391.78125 143.953125 387.722656 141.007812 387.722656 141.007812 M 428.566406 191.65625 C 428.773438 191.738281 428.632812 191.492188 428.632812 191.492188 C 428.566406 191.492188 428.566406 191.65625 428.566406 191.65625 M 441.699219 288.617188 C 449.332031 299.089844 449.261719 316.273438 450.292969 316.355469 C 451.117188 316.355469 452.492188 307.4375 452.5625 304.328125 C 452.628906 302.28125 452.355469 301.464844 451.941406 299.335938 C 451.117188 295.410156 449.261719 283.378906 447.0625 282.726562 C 445.546875 282.234375 441.699219 288.617188 441.699219 288.617188 M 459.917969 168.910156 C 471.539062 195.421875 472.019531 206.792969 475.457031 211.621094 C 477.863281 215.058594 483.570312 218.167969 484.398438 217.511719 C 484.808594 217.1875 484.464844 216.121094 484.191406 214.894531 C 483.160156 211.132812 477.726562 199.839844 474.21875 192.722656 C 470.714844 185.683594 465.832031 176.191406 463.082031 172.347656 C 461.84375 170.546875 459.917969 168.910156 459.917969 168.910156 "/></clipPath><filter x="0%" y="0%" width="100%" filterUnits="objectBoundingBox" id="8f8c41d75c" height="100%"><feColorMatrix values="0 0 0 0 1 0 0 0 0 1 0 0 0 0 1 0 0 0 1 0" type="matrix" in="SourceGraphic"/></filter><clipPath id="165e94c356"><path d="M 0.417969 0.503906 L 525.925781 0.503906 L 525.925781 568.503906 L 0.417969 568.503906 Z M 0.417969 0.503906 "/></clipPath><clipPath id="b094b32489"><path d="M 0.992188 284.707031 C 5.941406 245.84375 7.386719 238.558594 9.519531 231.113281 C 11.582031 223.667969 15.15625 216.960938 17.148438 209.429688 C 19.144531 201.578125 19.554688 192.574219 21.480469 184.804688 C 23.339844 177.519531 25.746094 171.382812 28.21875 163.9375 C 31.109375 155.101562 33.375 143.890625 37.847656 135.382812 C 42.246094 126.953125 49.191406 120.164062 54.621094 112.960938 C 59.574219 106.253906 63.835938 99.214844 69.0625 93.488281 C 74.148438 87.925781 80.199219 83.667969 85.496094 78.761719 C 90.582031 74.097656 94.707031 69.757812 100.347656 64.6875 C 107.632812 58.222656 116.777344 48.894531 125.582031 43.332031 C 133.96875 38.011719 143.9375 35.066406 151.84375 31.628906 C 158.515625 28.683594 163.808594 25.984375 170.136719 23.691406 C 176.667969 21.320312 183.957031 20.585938 190.488281 17.71875 C 197.019531 14.9375 202.519531 9.457031 209.328125 6.835938 C 216.683594 3.972656 225.554688 2.664062 233.253906 1.683594 C 240.472656 0.78125 247.074219 1.109375 254.226562 0.945312 C 261.582031 0.863281 269.558594 0.945312 276.777344 0.945312 C 283.378906 0.945312 289.292969 0.945312 295.960938 0.945312 C 303.042969 0.945312 310.949219 0.457031 318.101562 0.945312 C 324.839844 1.355469 331.234375 1.601562 337.558594 3.402344 C 344.023438 5.203125 350.074219 8.554688 356.605469 11.746094 C 363.753906 15.183594 371.730469 19.683594 378.675781 23.367188 C 385.070312 26.640625 391.050781 29.09375 396.894531 32.777344 C 402.671875 36.375 407.828125 40.957031 413.535156 45.210938 C 419.378906 49.550781 425.363281 53.722656 431.480469 58.550781 C 438.152344 63.703125 445.714844 69.839844 451.832031 75.324219 C 457.265625 80.234375 461.664062 84.816406 466.617188 89.804688 C 471.636719 94.878906 476.859375 99.871094 481.605469 105.597656 C 486.554688 111.40625 491.78125 117.625 495.5625 124.5 C 499.207031 131.207031 501.542969 138.980469 504.019531 146.265625 C 506.496094 153.464844 508.625 160.09375 510.621094 167.945312 C 512.820312 176.867188 514.472656 187.585938 516.464844 197.238281 C 518.390625 206.894531 520.796875 216.878906 522.308594 225.960938 C 523.683594 233.898438 524.785156 241.015625 525.335938 248.707031 C 525.882812 256.480469 525.335938 264.253906 525.335938 272.515625 C 525.402344 281.515625 525.335938 291.664062 525.335938 300.746094 C 525.335938 309.335938 525.816406 317.191406 525.335938 325.539062 C 524.921875 334.128906 523.890625 342.804688 522.585938 351.804688 C 521.140625 361.457031 519.492188 372.667969 516.878906 381.75 C 514.472656 389.933594 510.894531 396.96875 507.9375 404.171875 C 505.121094 411.042969 502.574219 417.671875 499.480469 424.21875 C 496.386719 430.925781 492.949219 437.390625 489.238281 443.855469 C 485.457031 450.398438 481.605469 456.375 477 463.164062 C 471.636719 471.019531 464.964844 481.328125 458.914062 488.039062 C 453.894531 493.519531 449.425781 497.367188 443.789062 501.210938 C 437.601562 505.46875 428.59375 509.230469 423.230469 511.847656 C 419.859375 513.484375 416.90625 513.566406 414.84375 515.777344 C 412.777344 517.984375 413.261719 522.40625 410.921875 525.023438 C 407.347656 528.949219 399.027344 531.570312 393.113281 533.941406 C 387.546875 536.234375 378.058594 537.949219 376.476562 539.339844 C 376.132812 539.75 375.992188 540.324219 375.992188 540.324219 C 375.992188 540.324219 374.960938 541.632812 374.414062 542.207031 C 373.929688 542.859375 372.898438 544.085938 372.898438 544.167969 C 372.832031 544.167969 371.59375 545.070312 370.976562 545.558594 C 370.355469 546.050781 369.117188 546.953125 369.050781 546.953125 C 369.050781 546.953125 367.675781 547.523438 366.917969 547.769531 C 366.230469 548.097656 364.855469 548.585938 364.785156 548.585938 C 364.785156 548.585938 363.34375 548.75 362.585938 548.832031 C 361.828125 548.832031 360.386719 548.996094 360.386719 548.996094 C 360.316406 548.996094 358.875 548.667969 358.117188 548.585938 C 357.429688 548.425781 355.984375 548.097656 355.917969 548.097656 C 355.917969 548.097656 354.542969 547.359375 353.921875 547.03125 C 353.234375 546.707031 351.859375 545.96875 351.859375 545.96875 C 351.859375 545.96875 351.792969 545.886719 351.722656 545.886719 C 351.105469 545.804688 347.804688 549.324219 344.984375 551.453125 C 340.308594 554.96875 333.089844 561.433594 325.9375 564.214844 C 318.167969 567.242188 308.0625 567.40625 299.742188 567.980469 C 292.316406 568.472656 285.441406 567.980469 278.496094 567.980469 C 271.757812 567.898438 265.089844 568.226562 258.488281 567.734375 C 251.957031 567.160156 245.699219 566.015625 239.03125 564.707031 C 231.878906 563.316406 224.316406 561.84375 216.890625 559.46875 C 208.984375 556.933594 200.457031 552.679688 192.824219 549.652344 C 185.878906 546.871094 179.28125 544.824219 172.816406 541.878906 C 166.421875 538.933594 160.851562 535.496094 154.253906 531.894531 C 146.6875 527.886719 138.023438 523.878906 129.980469 518.804688 C 121.59375 513.566406 112.652344 507.105469 105.023438 500.722656 C 97.871094 494.75 91.269531 488.53125 85.355469 481.902344 C 79.789062 475.601562 75.457031 468.238281 70.300781 462.019531 C 65.28125 456.046875 59.574219 451.136719 54.964844 445.164062 C 50.566406 439.4375 47.195312 433.871094 43.210938 427.164062 C 38.394531 419.0625 33.652344 408.507812 28.632812 399.832031 C 23.75 391.324219 17.148438 383.960938 13.507812 375.53125 C 10.273438 367.921875 7.25 356.550781 7.386719 351.804688 C 7.457031 349.675781 8.832031 349.265625 8.832031 347.304688 C 8.832031 343.785156 5.460938 337.8125 4.222656 332.085938 C 2.78125 325.128906 1.75 316.457031 1.199219 308.519531 C 0.648438 300.664062 0.992188 284.707031 0.992188 284.707031 M 58.0625 355.238281 C 61.566406 358.511719 60.328125 355.730469 59.640625 355.238281 C 59.296875 354.914062 58.679688 355.078125 58.40625 355.078125 C 58.265625 355.160156 58.0625 355.238281 58.0625 355.238281 M 87.074219 157.472656 C 87.488281 157.636719 87.695312 156.738281 87.625 156.65625 C 87.558594 156.65625 87.074219 157.472656 87.074219 157.472656 M 126.679688 171.792969 C 130.875 165.328125 131.492188 163.691406 131.425781 163.691406 C 131.355469 163.609375 130.875 164.265625 130.460938 164.839844 C 129.636719 166.230469 126.679688 171.792969 126.679688 171.792969 M 143.183594 408.507812 C 146.828125 412.023438 148.476562 413.578125 148.957031 413.253906 C 149.371094 413.007812 149.164062 411.535156 149.234375 410.632812 C 149.371094 409.816406 149.507812 408.097656 149.507812 408.015625 C 149.507812 408.015625 149.851562 401.386719 149.507812 401.304688 C 149.371094 401.222656 149.300781 401.550781 149.027344 401.878906 C 148.203125 402.941406 143.183594 408.507812 143.183594 408.507812 M 179.140625 430.433594 C 179.96875 430.433594 179.828125 429.78125 179.761719 429.699219 C 179.761719 429.699219 179.761719 429.78125 179.761719 429.78125 C 179.691406 429.863281 179.140625 430.433594 179.140625 430.433594 M 226.035156 372.832031 C 228.441406 373.730469 228.511719 373.648438 228.648438 373.488281 C 228.785156 373.324219 229.058594 372.996094 228.992188 372.75 C 228.855469 372.339844 226.929688 371.6875 226.445312 371.933594 C 226.171875 372.09375 226.035156 372.832031 226.035156 372.832031 M 290.597656 324.066406 C 299.949219 325.539062 300.910156 324.800781 300.84375 324.230469 C 300.773438 323.328125 296.921875 322.101562 295.960938 321.039062 C 295.410156 320.464844 295.273438 319.402344 294.929688 319.402344 C 294.792969 319.402344 294.652344 319.8125 294.378906 320.136719 C 294.035156 320.628906 292.933594 322.101562 292.933594 322.101562 C 292.933594 322.183594 291.492188 323.328125 291.078125 323.65625 C 290.871094 323.820312 290.597656 324.066406 290.597656 324.066406 M 307.097656 82.277344 C 309.644531 84.816406 310.398438 83.832031 310.332031 83.425781 C 310.195312 82.933594 308.75 82.605469 308.199219 82.441406 C 307.785156 82.277344 307.097656 82.277344 307.097656 82.277344 M 337.421875 482.636719 C 341.960938 482.71875 343.128906 482.476562 344.640625 482.066406 C 346.703125 481.492188 349.246094 480.839844 351.652344 479.121094 C 354.886719 476.910156 361.210938 470.855469 361.625 468.566406 C 361.761719 467.746094 361.140625 467.253906 360.9375 466.683594 C 360.730469 466.109375 360.796875 465.457031 360.453125 465.292969 C 359.355469 464.882812 355.160156 469.054688 351.996094 471.429688 C 347.804688 474.621094 337.421875 482.636719 337.421875 482.636719 M 362.722656 133.007812 C 368.15625 140.128906 368.019531 138.328125 367.535156 137.425781 C 366.78125 135.953125 362.722656 133.007812 362.722656 133.007812 M 403.566406 183.65625 C 403.773438 183.738281 403.632812 183.492188 403.632812 183.492188 C 403.566406 183.492188 403.566406 183.65625 403.566406 183.65625 M 416.699219 280.617188 C 424.332031 291.089844 424.261719 308.273438 425.292969 308.355469 C 426.117188 308.355469 427.492188 299.4375 427.5625 296.328125 C 427.628906 294.28125 427.355469 293.464844 426.941406 291.335938 C 426.117188 287.410156 424.261719 275.378906 422.0625 274.726562 C 420.546875 274.234375 416.699219 280.617188 416.699219 280.617188 M 434.917969 160.910156 C 446.539062 187.421875 447.019531 198.792969 450.457031 203.621094 C 452.863281 207.058594 458.570312 210.167969 459.398438 209.511719 C 459.808594 209.1875 459.464844 208.121094 459.191406 206.894531 C 458.160156 203.132812 452.726562 191.839844 449.21875 184.722656 C 445.714844 177.683594 440.832031 168.191406 438.082031 164.347656 C 436.84375 162.546875 434.917969 160.910156 434.917969 160.910156 "/></clipPath><clipPath id="8de347ca38"><rect x="0" width="526" y="0" height="569"/></clipPath><clipPath id="7a4a360a61"><path d="M 2 0.0078125 L 266 0.0078125 L 266 561.257812 L 2 561.257812 Z M 2 0.0078125 "/></clipPath><clipPath id="1e755387e8"><path d="M 289 0.0078125 L 553 0.0078125 L 553 561.257812 L 289 561.257812 Z M 289 0.0078125 "/></clipPath></defs><g id="631b7d30f9"><g clip-rule="nonzero" clip-path="url(#a90ab662da)"><g clip-rule="nonzero" clip-path="url(#246f8adb8b)"><g mask="url(#2cd21869a2)" transform="matrix(1,0,0,1,25,8)"><g clip-path="url(#8de347ca38)"><g clip-rule="nonzero" clip-path="url(#165e94c356)"><g clip-rule="nonzero" clip-path="url(#b094b32489)"><rect x="0" width="526" height="569" y="0" style="fill:#ac88ef;fill-opacity:1;stroke:none;"/></g></g></g><mask id="2cd21869a2"><g filter="url(#8f8c41d75c)"><rect x="0" width="559.5" y="0" height="580.499982" style="fill:#000000;fill-opacity:0.5;stroke:none;"/></g></mask></g></g></g><g clip-rule="nonzero" clip-path="url(#7a4a360a61)"><path style=" stroke:none;fill-rule:nonzero;fill:#000000;fill-opacity:1;" d="M 265.191406 68.226562 C 265.191406 20.019531 219.265625 0.0078125 194.675781 0.0078125 C 179.910156 0.0078125 150.585938 9.96875 134.535156 31.355469 C 126.652344 41.851562 123.109375 53.796875 124.035156 66.425781 C 109.398438 64.289062 85.621094 63.773438 71.144531 87.03125 C 60.726562 103.773438 59.648438 117.570312 60.773438 126.566406 C 45.582031 128.429688 18.484375 135.875 8.03125 164.859375 C 0.160156 186.636719 1.535156 209.105469 8.210938 226.996094 C 8.222656 227.035156 8.222656 227.074219 8.230469 227.113281 C 9.722656 232.148438 12.394531 237.570312 16.257812 242.851562 C 16.308594 242.925781 16.363281 242.996094 16.414062 243.070312 C 16.691406 243.445312 16.953125 243.816406 17.242188 244.1875 C 18.824219 246.390625 20.484375 248.46875 22.25 250.324219 C 15.359375 255.925781 11.398438 264.03125 10.476562 278.894531 C 9.433594 295.585938 16.675781 315.722656 29.304688 326.085938 C 20.691406 334.886719 13.101562 348.125 14.96875 375.96875 C 16.679688 393.121094 26.285156 410.523438 40.035156 421.394531 C 47.269531 427.113281 55.3125 430.582031 63.457031 431.859375 C 63.984375 432.03125 64.539062 432.152344 65.117188 432.210938 C 65.308594 432.230469 65.535156 432.222656 65.726562 432.242188 C 65.960938 432.265625 66.195312 432.339844 66.429688 432.359375 C 67.816406 440.40625 72.269531 449.402344 77.472656 456.144531 C 86 467.203125 96.945312 473.601562 108.839844 474.644531 C 112.335938 488.304688 120.171875 508.789062 143.242188 511.570312 C 145.035156 524.515625 149.507812 535.257812 156.6875 543.601562 C 165.652344 554.007812 178.40625 560.058594 193.574219 561.101562 C 195.101562 561.207031 196.632812 561.261719 198.175781 561.261719 C 216.308594 561.261719 235.042969 554.046875 247.996094 541.875 C 259.160156 531.378906 265.257812 517.863281 265.167969 503.859375 L 265.167969 203.882812 C 265.167969 203.878906 265.167969 203.875 265.167969 203.871094 L 265.167969 69.007812 C 265.171875 68.738281 265.191406 68.492188 265.191406 68.226562 Z M 248.996094 184.28125 C 242.308594 180.378906 234.167969 177.472656 225.738281 176.347656 C 202.960938 173.308594 183.578125 183.699219 172.375 205.136719 C 159.550781 232.148438 169.6875 252.507812 176.871094 262.242188 C 186.191406 274.867188 200.398438 283.273438 211.839844 283.273438 C 212.894531 283.273438 213.921875 283.199219 214.925781 283.058594 C 219.34375 282.410156 222.40625 278.308594 221.761719 273.886719 C 221.121094 269.46875 217.003906 266.378906 212.597656 267.046875 C 208.714844 267.613281 197.75 263.285156 189.882812 252.632812 C 183.734375 244.300781 178.238281 230.5 186.84375 212.359375 C 196.59375 193.722656 211.488281 191.109375 222.265625 192.226562 C 237.359375 193.769531 247.621094 202.28125 248.996094 205.390625 L 248.996094 503.910156 C 249.074219 516.089844 242.476562 524.863281 236.921875 530.082031 C 226.042969 540.308594 209.847656 545.980469 194.6875 544.964844 C 187.179688 544.449219 176.625 541.957031 168.945312 533.042969 C 160.800781 523.585938 157.3125 508.417969 158.820312 489.558594 C 159.917969 480.914062 170.710938 463.757812 185.128906 456.542969 C 193.402344 452.40625 201.304688 452.417969 208.609375 456.566406 C 212.492188 458.785156 217.429688 457.414062 219.636719 453.535156 C 221.839844 449.65625 220.484375 444.714844 216.601562 442.507812 C 204.484375 435.613281 191.101562 435.46875 177.890625 442.074219 C 177.605469 442.21875 177.34375 442.421875 177.058594 442.570312 C 173.570312 438.996094 168.335938 436.550781 161.773438 435.796875 C 150.710938 434.539062 138.515625 438.285156 136.523438 447.894531 C 135.617188 452.269531 138.425781 456.550781 142.804688 457.457031 C 146.636719 458.257812 150.40625 456.179688 151.886719 452.707031 C 153.4375 451.996094 157.414062 451.292969 161.449219 452.113281 C 162.15625 452.253906 162.75 452.425781 163.253906 452.601562 C 151.996094 463.21875 144.074219 477.3125 142.738281 487.890625 C 142.542969 490.304688 142.464844 492.628906 142.40625 494.9375 C 130.230469 491.816406 126.378906 479.449219 123.160156 464.835938 L 121.628906 457.875 L 114.535156 458.515625 C 104.230469 459.464844 96.625 453.566406 92.101562 448.46875 C 86.949219 442.660156 84.070312 436.113281 82.839844 431.652344 C 105.59375 428.300781 133.652344 414.144531 141.058594 375.5 C 143.578125 374.59375 146.105469 373.5 148.636719 371.964844 C 148.769531 371.886719 148.875 371.777344 149 371.691406 C 158.25 366.519531 167.929688 358.140625 174.425781 347.394531 C 182.011719 334.855469 184.015625 321.375 180.222656 308.414062 C 178.960938 304.121094 174.472656 301.667969 170.1875 302.925781 C 165.902344 304.179688 163.445312 308.675781 164.699219 312.964844 C 167.222656 321.574219 165.839844 330.34375 160.585938 339.019531 C 155.335938 347.707031 146.933594 354.730469 139.546875 358.476562 C 139.355469 358.585938 139.164062 358.660156 138.976562 358.761719 C 136.597656 359.921875 134.328125 360.75 132.328125 361.152344 C 115.035156 364.4375 97.734375 347.890625 97.53125 347.699219 C 94.351562 344.585938 89.242188 344.628906 86.109375 347.808594 C 82.980469 350.996094 83.027344 356.121094 86.207031 359.246094 C 87.148438 360.171875 103.507812 375.949219 123.925781 377.742188 C 117.3125 401.867188 100.179688 411.011719 86.355469 414.378906 L 73.476562 416.117188 C 72.679688 416.222656 71.914062 416.230469 71.140625 416.261719 C 69.308594 416.277344 67.972656 416.207031 67.253906 416.15625 C 67.179688 416.148438 67.097656 416.144531 67.019531 416.136719 C 66.898438 416.125 66.785156 416.117188 66.726562 416.109375 C 66.707031 416.109375 66.6875 416.113281 66.667969 416.109375 C 59.789062 415.230469 54.027344 411.832031 50.0625 408.703125 C 39.792969 400.582031 32.332031 387.105469 31.085938 374.625 C 29.214844 346.699219 38.167969 339.246094 47.65625 331.359375 L 60.96875 320.246094 L 45.1875 316.550781 C 35.007812 314.160156 25.632812 295.664062 26.617188 279.894531 C 27.429688 266.804688 30.382812 263.351562 36 260.484375 C 44.367188 265.421875 54.605469 269.234375 66.949219 270.929688 C 69.796875 271.324219 72.566406 271.503906 75.265625 271.503906 C 84.5625 271.503906 92.898438 269.304688 100.1875 266.125 C 103.886719 268.328125 111.550781 274.855469 111.097656 283.734375 C 110.410156 297.160156 101 307.34375 100.765625 307.589844 C 97.6875 310.808594 97.789062 315.914062 100.996094 319.007812 C 102.566406 320.519531 104.589844 321.273438 106.609375 321.273438 C 108.726562 321.273438 110.84375 320.445312 112.429688 318.796875 C 112.992188 318.210938 126.238281 304.257812 127.246094 284.566406 C 127.828125 273.242188 122.050781 263.769531 115.195312 257.390625 C 125.632812 249.65625 131.710938 241.496094 132.214844 240.804688 C 134.839844 237.1875 134.035156 232.128906 130.421875 229.503906 C 126.804688 226.875 121.746094 227.683594 119.125 231.296875 C 118.996094 231.476562 110.285156 243.191406 96.058594 250.1875 C 96.054688 250.1875 96.054688 250.1875 96.050781 250.1875 C 96.046875 250.1875 96.046875 250.191406 96.042969 250.195312 C 88.484375 253.90625 79.398438 256.316406 69.152344 254.902344 C 60.929688 253.769531 54.035156 251.515625 48.246094 248.664062 L 42.5625 245.503906 C 36.964844 241.902344 32.726562 237.742188 29.65625 233.691406 C 20.03125 219.382812 14.394531 194.820312 23.238281 170.351562 C 32.089844 145.804688 58.628906 142.585938 67.691406 142.195312 L 91.617188 166.90625 C 86.4375 169.90625 80.246094 171.730469 72.878906 172.066406 C 68.414062 172.273438 64.964844 176.054688 65.171875 180.519531 C 65.371094 184.855469 68.949219 188.238281 73.242188 188.238281 C 73.367188 188.238281 73.492188 188.234375 73.621094 188.230469 C 89.417969 187.503906 102.03125 182.011719 111.105469 171.910156 C 126.921875 154.292969 125.574219 129.148438 125.507812 128.085938 C 125.234375 123.625 121.417969 120.261719 116.941406 120.507812 C 112.480469 120.78125 109.089844 124.617188 109.367188 129.078125 C 109.375 129.242188 109.988281 143.574219 103.085938 155.496094 L 77.921875 129.507812 C 76.71875 126.375 73.34375 114.09375 84.871094 95.574219 C 95.195312 78.984375 112.46875 80.628906 127.851562 83.472656 C 128.824219 83.65625 129.722656 83.816406 130.558594 83.960938 L 150.292969 100.921875 C 151.820312 102.234375 153.695312 102.875 155.5625 102.875 C 157.835938 102.875 160.101562 101.917969 161.699219 100.058594 C 164.609375 96.667969 164.222656 91.566406 160.835938 88.652344 L 141.265625 71.832031 C 138.578125 60.539062 140.617188 50.191406 147.46875 41.066406 C 159.90625 24.503906 184.4375 16.1875 194.675781 16.1875 C 209.167969 16.1875 248.902344 28.492188 249.011719 68.070312 C 249.007812 68.117188 248.996094 68.160156 248.996094 68.207031 L 248.996094 68.804688 C 248.738281 104.3125 225.683594 112.710938 222.882812 113.574219 C 219.28125 113.371094 216.1875 115.65625 215.039062 119.101562 C 213.625 123.339844 215.914062 127.921875 220.152344 129.335938 C 227.390625 131.734375 239.285156 123.417969 240.617188 122.460938 C 243.097656 120.675781 246.035156 118.183594 248.996094 114.914062 Z M 248.996094 184.28125 "/></g><g clip-rule="nonzero" clip-path="url(#1e755387e8)"><path style=" stroke:none;fill-rule:nonzero;fill:#000000;fill-opacity:1;" d="M 546.316406 279.035156 L 546.273438 278.476562 C 544.636719 264.078125 539.171875 255.757812 532.570312 250.386719 C 549.523438 232.640625 558.800781 197.917969 546.859375 164.859375 C 536.398438 135.871094 509.304688 128.429688 494.109375 126.566406 C 495.238281 117.570312 494.15625 103.773438 483.738281 87.03125 C 469.320312 63.851562 445.636719 64.285156 431 66.398438 C 432.339844 52.632812 428.839844 39.859375 420.644531 28.945312 C 405.71875 9.066406 378.851562 0.0078125 360.210938 0.0078125 C 335.625 0.0078125 289.691406 20.019531 289.691406 68.226562 C 289.691406 68.464844 289.710938 68.683594 289.714844 68.917969 L 289.714844 503.804688 C 289.625 517.867188 295.722656 531.382812 306.890625 541.875 C 319.84375 554.046875 338.578125 561.257812 356.703125 561.257812 C 358.246094 561.257812 359.777344 561.203125 361.304688 561.097656 C 389.042969 559.199219 407.429688 540.851562 411.613281 511.574219 C 434.605469 508.816406 442.484375 488.476562 445.996094 474.820312 C 457.726562 474.359375 468.125 469.996094 475.773438 462.195312 C 483.503906 454.320312 488.0625 443.203125 488.617188 431.394531 C 519.128906 427 537.359375 409.070312 540.226562 380.296875 C 542.386719 358.449219 537.164062 340.222656 524.683594 325.964844 C 536.75 317.53125 547.433594 304.097656 546.316406 279.035156 Z M 320.394531 514.621094 C 316.273438 514.621094 312.933594 511.277344 312.933594 507.15625 C 312.933594 503.039062 316.273438 499.695312 320.394531 499.695312 C 324.511719 499.695312 327.851562 503.039062 327.851562 507.15625 C 327.851562 511.277344 324.507812 514.621094 320.394531 514.621094 Z M 316.847656 521.21875 L 316.847656 528.96875 C 313.160156 525.257812 309.285156 520.050781 307.28125 513.347656 C 309.121094 517.226562 312.609375 520.148438 316.847656 521.21875 Z M 507.800781 317.25 L 497.039062 322.859375 L 506.359375 330.636719 C 515.292969 338.085938 526.855469 351.179688 524.132812 378.699219 C 521.804688 402.007812 507.300781 414.230469 479.785156 416.058594 L 471.367188 416.621094 L 472.28125 425.011719 C 473.371094 434.953125 470.359375 444.617188 464.226562 450.867188 C 459.683594 455.5 453.613281 458.113281 446.421875 458.585938 L 443.878906 374.1875 L 467.355469 352.859375 C 470.351562 354.898438 473.964844 356.09375 477.851562 356.09375 C 488.175781 356.09375 496.574219 347.695312 496.574219 337.367188 C 496.574219 327.039062 488.175781 318.640625 477.851562 318.640625 C 467.527344 318.640625 459.128906 327.039062 459.128906 337.367188 C 459.128906 341.246094 460.316406 344.851562 462.34375 347.84375 L 436.695312 371.132812 L 439.335938 458.421875 L 433.253906 457.871094 L 431.722656 464.835938 C 428.167969 480.988281 423.808594 494.394531 408.355469 495.617188 L 408.355469 422.589844 L 398.109375 412.976562 L 398.109375 375.882812 L 420.613281 353.6875 C 422.972656 355.347656 425.835938 356.335938 428.929688 356.335938 C 436.949219 356.335938 443.480469 349.804688 443.480469 341.785156 C 443.480469 333.765625 436.949219 327.234375 428.929688 327.234375 C 420.910156 327.234375 414.382812 333.765625 414.382812 341.785156 C 414.382812 344.136719 414.996094 346.328125 415.992188 348.296875 L 391.023438 372.925781 L 391.023438 406.328125 L 377.621094 393.746094 L 377.621094 343.109375 C 383.921875 341.515625 388.625 335.839844 388.625 329.046875 C 388.625 321.027344 382.09375 314.496094 374.078125 314.496094 C 366.058594 314.496094 359.53125 321.027344 359.53125 329.046875 C 359.53125 335.839844 364.230469 341.515625 370.535156 343.109375 L 370.535156 396.8125 L 401.269531 425.65625 L 401.269531 496.242188 C 400.53125 496.542969 399.851562 496.960938 399.238281 497.46875 C 399.121094 497.5625 398.988281 497.640625 398.875 497.746094 C 398.847656 497.773438 398.824219 497.804688 398.792969 497.832031 C 397.683594 498.871094 396.863281 500.222656 396.480469 501.761719 C 396.4375 501.929688 396.429688 502.109375 396.394531 502.28125 C 396.335938 502.617188 396.253906 502.949219 396.234375 503.296875 C 395.160156 521.359375 388.34375 534.023438 376.683594 540.386719 L 362.445312 527.238281 L 362.445312 492.378906 C 368.75 490.785156 373.449219 485.109375 373.449219 478.316406 C 373.449219 470.296875 366.921875 463.765625 358.902344 463.765625 C 350.882812 463.765625 344.355469 470.292969 344.355469 478.316406 C 344.355469 485.105469 349.054688 490.78125 355.359375 492.378906 L 355.359375 530.34375 L 369.4375 543.335938 C 366.558594 544.167969 363.492188 544.738281 360.191406 544.964844 C 347.609375 545.804688 334.324219 541.976562 323.933594 534.804688 L 323.933594 521.21875 C 330.238281 519.625 334.9375 513.949219 334.9375 507.15625 C 334.9375 499.136719 328.410156 492.605469 320.390625 492.605469 C 312.882812 492.605469 306.757812 498.351562 305.996094 505.660156 C 305.964844 505.054688 305.882812 504.480469 305.882812 503.855469 L 305.882812 434.738281 L 312.328125 441.71875 L 351.921875 441.71875 C 353.585938 448.296875 359.503906 453.199219 366.589844 453.199219 C 374.960938 453.199219 381.765625 446.390625 381.765625 438.023438 C 381.765625 429.652344 374.960938 422.84375 366.589844 422.84375 C 359.503906 422.84375 353.585938 427.75 351.921875 434.324219 L 315.5625 434.324219 L 305.882812 423.835938 L 305.882812 379.066406 L 319.378906 379.066406 C 321.03125 386.351562 327.53125 391.816406 335.304688 391.816406 C 344.324219 391.816406 351.660156 384.476562 351.660156 375.457031 C 351.660156 366.429688 344.324219 359.089844 335.304688 359.089844 C 327.53125 359.089844 321.03125 364.554688 319.378906 371.84375 L 305.882812 371.84375 L 305.882812 265.722656 C 314.117188 265.667969 321.9375 265.660156 330.132812 265.65625 L 330.132812 301.421875 C 325.511719 302.46875 322.042969 306.59375 322.042969 311.535156 C 322.042969 317.257812 326.695312 321.914062 332.425781 321.914062 C 338.148438 321.914062 342.800781 317.257812 342.800781 311.535156 C 342.800781 306.597656 339.335938 302.472656 334.714844 301.421875 L 334.714844 267.21875 C 343.050781 275.605469 351.164062 283.996094 359.308594 292.4375 L 362.460938 295.703125 L 365.757812 292.523438 L 362.609375 289.253906 C 358.042969 284.519531 353.488281 279.804688 348.898438 275.09375 L 384.636719 275.09375 C 385.6875 279.714844 389.808594 283.183594 394.746094 283.183594 C 400.472656 283.183594 405.128906 278.527344 405.128906 272.800781 C 405.128906 267.074219 400.472656 262.410156 394.746094 262.410156 C 389.808594 262.410156 385.683594 265.882812 384.636719 270.507812 L 344.382812 270.507812 C 341.515625 267.585938 338.664062 264.660156 335.746094 261.742188 L 335.074219 261.070312 L 334.125 261.070312 C 324.398438 261.070312 315.453125 261.074219 305.886719 261.136719 L 305.886719 249.882812 C 332.253906 249.664062 358.683594 249.742188 384.628906 250.121094 C 385.667969 254.757812 389.796875 258.242188 394.746094 258.242188 C 400.472656 258.242188 405.128906 253.582031 405.128906 247.855469 C 405.128906 242.128906 400.476562 237.46875 394.746094 237.46875 C 389.820312 237.46875 385.707031 240.925781 384.648438 245.53125 C 358.691406 245.15625 332.25 245.089844 305.886719 245.296875 L 305.886719 225.5 L 312.472656 232.636719 L 337.046875 232.636719 C 338.078125 236.71875 341.746094 239.761719 346.140625 239.761719 C 351.332031 239.761719 355.554688 235.535156 355.554688 230.34375 C 355.554688 225.148438 351.332031 220.921875 346.140625 220.921875 C 341.746094 220.921875 338.078125 223.964844 337.046875 228.050781 L 314.484375 228.050781 L 305.886719 218.738281 L 305.886719 193.039062 L 317.261719 187.671875 L 362.015625 204.300781 L 421.75 176.113281 C 423.28125 178.078125 425.320312 179.597656 427.722656 180.460938 C 429.191406 180.992188 430.710938 181.253906 432.226562 181.253906 C 434.164062 181.253906 436.097656 180.824219 437.898438 179.972656 C 444.539062 176.84375 447.394531 168.886719 444.265625 162.242188 C 442.746094 159.027344 440.066406 156.589844 436.71875 155.386719 C 433.375 154.183594 429.753906 154.355469 426.542969 155.878906 C 423.320312 157.394531 420.886719 160.074219 419.6875 163.421875 C 418.824219 165.828125 418.695312 168.367188 419.242188 170.796875 L 361.742188 197.925781 L 324.703125 184.160156 L 359.648438 167.671875 L 369.675781 139.277344 L 414.964844 117.910156 C 417.515625 121.15625 421.355469 123.070312 425.394531 123.070312 C 427.296875 123.070312 429.222656 122.660156 431.050781 121.800781 C 437.6875 118.667969 440.542969 110.710938 437.414062 104.066406 C 434.28125 97.425781 426.320312 94.578125 419.6875 97.703125 C 413.964844 100.40625 411.078125 106.6875 412.386719 112.625 L 364.949219 135.007812 L 354.921875 163.402344 L 305.890625 186.535156 L 305.890625 114.914062 C 308.851562 118.179688 311.785156 120.671875 314.265625 122.460938 C 315.597656 123.414062 327.4375 131.757812 334.734375 129.335938 C 338.972656 127.921875 341.257812 123.339844 339.847656 119.105469 C 338.71875 115.714844 335.558594 113.570312 332.175781 113.570312 C 332.117188 113.570312 332.058594 113.570312 332.007812 113.574219 C 329.199219 112.710938 306.121094 104.304688 305.890625 68.738281 L 305.890625 68.207031 C 305.890625 68.164062 305.878906 68.125 305.875 68.085938 C 305.964844 32.171875 338.621094 18.746094 355.515625 16.554688 L 350.3125 21.359375 L 350.3125 60.140625 C 343.933594 61.496094 339.128906 67.167969 339.128906 73.949219 C 339.128906 81.738281 345.464844 88.074219 353.253906 88.074219 C 361.039062 88.074219 367.378906 81.738281 367.378906 73.949219 C 367.378906 67.167969 362.570312 61.496094 356.191406 60.140625 L 356.191406 23.9375 L 364.316406 16.4375 C 379.058594 17.644531 397.589844 25.179688 407.710938 38.660156 C 414.8125 48.113281 416.746094 59.308594 413.609375 71.9375 L 404.226562 81.058594 C 401.027344 84.171875 400.953125 89.292969 404.070312 92.496094 C 405.652344 94.128906 407.757812 94.945312 409.863281 94.945312 C 411.898438 94.945312 413.929688 94.1875 415.503906 92.660156 L 424.472656 83.941406 C 425.269531 83.800781 426.109375 83.648438 427.027344 83.480469 C 442.417969 80.636719 459.6875 78.992188 470.011719 95.578125 C 481.207031 113.570312 478.347656 125.636719 477.117188 129.105469 L 468.800781 136.136719 C 465.386719 139.019531 464.957031 144.125 467.839844 147.539062 C 469.441406 149.433594 471.722656 150.40625 474.023438 150.40625 C 475.863281 150.40625 477.71875 149.78125 479.234375 148.496094 L 486.714844 142.171875 C 495.148438 142.453125 521.453125 145.324219 531.007812 168.898438 L 460.941406 168.898438 L 421.269531 209.765625 L 421.269531 251.089844 C 414.3125 252.671875 409.085938 258.878906 409.085938 266.3125 C 409.085938 274.933594 416.105469 281.953125 424.722656 281.953125 C 433.34375 281.953125 440.359375 274.933594 440.359375 266.3125 C 440.359375 258.882812 435.136719 252.671875 428.179688 251.089844 L 428.179688 212.566406 L 463.859375 175.804688 L 533.355469 175.804688 C 538.316406 193.761719 535.875 211.324219 530.195312 224.441406 L 473.910156 224.441406 L 450.929688 250.972656 L 450.929688 276.355469 C 443.96875 277.9375 438.746094 284.148438 438.746094 291.578125 C 438.746094 300.199219 445.761719 307.21875 454.382812 307.21875 C 463 307.21875 470.019531 300.199219 470.019531 291.578125 C 470.019531 284.148438 464.796875 277.9375 457.835938 276.355469 L 457.835938 253.550781 L 477.058594 231.34375 L 526.675781 231.34375 C 523.523438 236.613281 519.851562 240.710938 516.054688 243.265625 L 493.039062 243.265625 C 488.574219 243.265625 484.953125 246.886719 484.953125 251.355469 C 484.953125 255.824219 488.574219 259.441406 493.039062 259.441406 L 516.601562 259.441406 C 524.394531 263.191406 528.730469 267.777344 530.179688 280.035156 C 531.019531 300.863281 522.234375 309.726562 507.800781 317.25 Z M 466.21875 337.367188 C 466.21875 330.945312 471.433594 325.730469 477.851562 325.730469 C 484.269531 325.730469 489.488281 330.945312 489.488281 337.367188 C 489.488281 343.785156 484.269531 349.003906 477.851562 349.003906 C 471.433594 349.003906 466.21875 343.785156 466.21875 337.367188 Z M 421.472656 341.785156 C 421.472656 337.667969 424.816406 334.324219 428.933594 334.324219 C 433.050781 334.324219 436.394531 337.667969 436.394531 341.785156 C 436.394531 345.902344 433.050781 349.246094 428.933594 349.246094 C 424.816406 349.246094 421.472656 345.902344 421.472656 341.785156 Z M 374.078125 336.507812 C 369.960938 336.507812 366.617188 333.164062 366.617188 329.046875 C 366.617188 324.929688 369.960938 321.585938 374.078125 321.585938 C 378.195312 321.585938 381.539062 324.929688 381.539062 329.046875 C 381.539062 333.164062 378.195312 336.507812 374.078125 336.507812 Z M 358.90625 485.777344 C 354.789062 485.777344 351.445312 482.433594 351.445312 478.316406 C 351.445312 474.195312 354.789062 470.851562 358.90625 470.851562 C 363.023438 470.851562 366.367188 474.195312 366.367188 478.316406 C 366.367188 482.433594 363.023438 485.777344 358.90625 485.777344 Z M 358.808594 438.023438 C 358.808594 433.730469 362.300781 430.242188 366.589844 430.242188 C 370.886719 430.242188 374.378906 433.730469 374.378906 438.023438 C 374.378906 442.316406 370.886719 445.808594 366.589844 445.808594 C 362.300781 445.808594 358.808594 442.316406 358.808594 438.023438 Z M 326.171875 375.457031 C 326.171875 370.417969 330.269531 366.316406 335.308594 366.316406 C 340.347656 366.316406 344.441406 370.417969 344.441406 375.457031 C 344.441406 380.496094 340.347656 384.59375 335.308594 384.59375 C 330.269531 384.59375 326.171875 380.496094 326.171875 375.457031 Z M 332.425781 305.734375 C 335.625 305.734375 338.222656 308.339844 338.222656 311.535156 C 338.222656 314.734375 335.621094 317.335938 332.425781 317.335938 C 329.230469 317.335938 326.625 314.734375 326.625 311.535156 C 326.625 308.339844 329.230469 305.734375 332.425781 305.734375 Z M 388.945312 272.800781 C 388.945312 269.601562 391.550781 267 394.746094 267 C 397.945312 267 400.550781 269.601562 400.550781 272.800781 C 400.550781 276 397.945312 278.597656 394.746094 278.597656 C 391.550781 278.597656 388.945312 275.996094 388.945312 272.800781 Z M 388.945312 247.855469 C 388.945312 244.660156 391.550781 242.058594 394.746094 242.058594 C 397.945312 242.058594 400.550781 244.660156 400.550781 247.855469 C 400.550781 251.054688 397.945312 253.65625 394.746094 253.65625 C 391.550781 253.65625 388.945312 251.054688 388.945312 247.855469 Z M 341.316406 230.34375 C 341.316406 227.679688 343.484375 225.511719 346.144531 225.511719 C 348.808594 225.511719 350.976562 227.679688 350.976562 230.34375 C 350.976562 233.007812 348.808594 235.175781 346.144531 235.175781 C 343.484375 235.175781 341.316406 233.007812 341.316406 230.34375 Z M 425.222656 165.410156 C 425.890625 163.542969 427.253906 162.042969 429.050781 161.195312 C 430.058594 160.722656 431.132812 160.480469 432.214844 160.480469 C 433.0625 160.480469 433.914062 160.625 434.734375 160.921875 C 436.605469 161.59375 438.101562 162.953125 438.945312 164.75 C 440.695312 168.460938 439.101562 172.902344 435.394531 174.652344 C 433.597656 175.492188 431.585938 175.605469 429.707031 174.921875 C 427.839844 174.253906 426.34375 172.894531 425.496094 171.09375 C 424.648438 169.300781 424.546875 167.28125 425.222656 165.410156 Z M 422.195312 103.023438 C 423.214844 102.542969 424.292969 102.316406 425.359375 102.316406 C 428.148438 102.316406 430.828125 103.890625 432.097656 106.574219 C 433.84375 110.285156 432.25 114.730469 428.542969 116.480469 C 424.832031 118.226562 420.386719 116.632812 418.640625 112.925781 C 416.890625 109.214844 418.488281 104.773438 422.195312 103.023438 Z M 353.25 65.707031 C 357.792969 65.707031 361.496094 69.40625 361.496094 73.949219 C 361.496094 78.496094 357.792969 82.195312 353.25 82.195312 C 348.707031 82.195312 345.003906 78.496094 345.003906 73.949219 C 345.003906 69.40625 348.707031 65.707031 353.25 65.707031 Z M 424.722656 257.578125 C 429.53125 257.578125 433.449219 261.496094 433.449219 266.3125 C 433.449219 271.128906 429.53125 275.042969 424.722656 275.042969 C 419.910156 275.042969 415.992188 271.128906 415.992188 266.3125 C 415.992188 261.496094 419.910156 257.578125 424.722656 257.578125 Z M 454.378906 282.847656 C 459.191406 282.847656 463.105469 286.765625 463.105469 291.578125 C 463.105469 296.390625 459.191406 300.308594 454.378906 300.308594 C 449.566406 300.308594 445.648438 296.390625 445.648438 291.578125 C 445.648438 286.765625 449.566406 282.847656 454.378906 282.847656 Z M 454.378906 282.847656 "/></g></g></svg>