<svg xmlns="http://www.w3.org/2000/svg" xmlns:xlink="http://www.w3.org/1999/xlink" width="730" zoomAndPan="magnify" viewBox="0 0 547.5 546.749989" height="729" preserveAspectRatio="xMidYMid meet" version="1.2"><defs><clipPath id="47be652fa6"><path d="M 2.683594 57.390625 L 544.902344 57.390625 L 544.902344 543.238281 L 2.683594 543.238281 Z M 2.683594 57.390625 "/></clipPath><clipPath id="84652f202d"><path d="M 2.839844 300.722656 C 7.949219 267.503906 9.4375 261.277344 11.636719 254.914062 C 13.765625 248.550781 17.457031 242.8125 19.515625 236.378906 C 21.574219 229.664062 22 221.972656 23.984375 215.328125 C 25.902344 209.105469 28.386719 203.859375 30.941406 197.492188 C 33.921875 189.941406 36.261719 180.359375 40.875 173.085938 C 45.417969 165.882812 52.582031 160.078125 58.191406 153.921875 C 63.300781 148.1875 67.699219 142.171875 73.09375 137.277344 C 78.34375 132.519531 84.589844 128.882812 90.050781 124.6875 C 95.304688 120.703125 99.5625 116.996094 105.378906 112.660156 C 112.902344 107.132812 122.339844 99.160156 131.425781 94.40625 C 140.082031 89.859375 150.371094 87.339844 158.53125 84.402344 C 165.414062 81.886719 170.878906 79.578125 177.40625 77.617188 C 184.148438 75.589844 191.671875 74.960938 198.414062 72.511719 C 205.15625 70.136719 210.832031 65.449219 217.855469 63.210938 C 225.449219 60.765625 234.605469 59.644531 242.550781 58.804688 C 250.003906 58.035156 256.816406 58.316406 264.195312 58.175781 C 271.789062 58.105469 280.019531 58.175781 287.472656 58.175781 C 294.285156 58.175781 300.386719 58.175781 307.269531 58.175781 C 314.582031 58.175781 322.742188 57.757812 330.121094 58.175781 C 337.074219 58.527344 343.675781 58.734375 350.203125 60.273438 C 356.875 61.8125 363.117188 64.679688 369.859375 67.40625 C 377.242188 70.34375 385.472656 74.191406 392.640625 77.339844 C 399.238281 80.136719 405.414062 82.234375 411.445312 85.382812 C 417.40625 88.460938 422.726562 92.375 428.617188 96.011719 C 434.648438 99.71875 440.824219 103.285156 447.140625 107.414062 C 454.023438 111.820312 461.828125 117.066406 468.144531 121.75 C 473.75 125.945312 478.292969 129.863281 483.402344 134.128906 C 488.582031 138.464844 493.976562 142.730469 498.871094 147.628906 C 503.980469 152.59375 509.375 157.910156 513.277344 163.785156 C 517.039062 169.519531 519.453125 176.164062 522.007812 182.386719 C 524.558594 188.542969 526.761719 194.207031 528.816406 200.921875 C 531.089844 208.542969 532.792969 217.707031 534.851562 225.960938 C 536.835938 234.210938 539.320312 242.746094 540.882812 250.507812 C 542.300781 257.292969 543.4375 263.375 544.003906 269.949219 C 544.570312 276.59375 544.003906 283.238281 544.003906 290.300781 C 544.074219 297.996094 544.003906 306.667969 544.003906 314.429688 C 544.003906 321.773438 544.5 328.488281 544.003906 335.621094 C 543.578125 342.964844 542.515625 350.378906 541.164062 358.074219 C 539.675781 366.324219 537.972656 375.90625 535.277344 383.671875 C 532.792969 390.664062 529.101562 396.679688 526.050781 402.832031 C 523.140625 408.707031 520.515625 414.375 517.324219 419.96875 C 514.128906 425.703125 510.582031 431.230469 506.75 436.753906 C 502.847656 442.347656 498.871094 447.453125 494.117188 453.257812 C 488.582031 459.972656 481.699219 468.785156 475.453125 474.519531 C 470.273438 479.207031 465.660156 482.492188 459.84375 485.78125 C 453.457031 489.417969 444.160156 492.636719 438.625 494.875 C 435.148438 496.273438 432.09375 496.34375 429.964844 498.230469 C 427.835938 500.117188 428.335938 503.894531 425.921875 506.132812 C 422.230469 509.492188 413.644531 511.726562 407.542969 513.757812 C 401.792969 515.714844 392 517.183594 390.367188 518.371094 C 390.015625 518.722656 389.871094 519.210938 389.871094 519.210938 C 389.871094 519.210938 388.808594 520.332031 388.238281 520.820312 C 387.742188 521.378906 386.679688 522.429688 386.679688 522.5 C 386.609375 522.5 385.332031 523.269531 384.691406 523.6875 C 384.054688 524.109375 382.777344 524.875 382.703125 524.875 C 382.703125 524.875 381.285156 525.367188 380.503906 525.578125 C 379.796875 525.855469 378.375 526.277344 378.304688 526.277344 C 378.304688 526.277344 376.816406 526.414062 376.035156 526.484375 C 375.253906 526.484375 373.761719 526.625 373.761719 526.625 C 373.691406 526.625 372.203125 526.34375 371.421875 526.277344 C 370.710938 526.136719 369.222656 525.855469 369.152344 525.855469 C 369.152344 525.855469 367.730469 525.226562 367.09375 524.945312 C 366.382812 524.667969 364.964844 524.039062 364.964844 524.039062 C 364.964844 524.039062 364.894531 523.96875 364.820312 523.96875 C 364.183594 523.898438 360.777344 526.90625 357.867188 528.722656 C 353.042969 531.730469 345.589844 537.257812 338.210938 539.632812 C 330.191406 542.222656 319.761719 542.363281 311.175781 542.851562 C 303.511719 543.269531 296.414062 542.851562 289.246094 542.851562 C 282.292969 542.78125 275.410156 543.0625 268.597656 542.640625 C 261.855469 542.152344 255.398438 541.171875 248.511719 540.054688 C 241.132812 538.863281 233.328125 537.605469 225.664062 535.578125 C 217.503906 533.410156 208.703125 529.773438 200.824219 527.183594 C 193.660156 524.808594 186.847656 523.058594 180.175781 520.539062 C 173.578125 518.023438 167.828125 515.085938 161.015625 512.007812 C 153.210938 508.582031 144.269531 505.152344 135.964844 500.816406 C 127.308594 496.34375 118.082031 490.816406 110.207031 485.363281 C 102.824219 480.257812 96.011719 474.941406 89.910156 469.277344 C 84.164062 463.890625 79.691406 457.597656 74.371094 452.28125 C 69.1875 447.175781 63.300781 442.980469 58.542969 437.875 C 54.003906 432.976562 50.527344 428.222656 46.410156 422.488281 C 41.441406 415.5625 36.546875 406.539062 31.367188 399.128906 C 26.328125 391.855469 19.515625 385.558594 15.753906 378.355469 C 12.417969 371.851562 9.296875 362.128906 9.4375 358.074219 C 9.507812 356.253906 10.929688 355.90625 10.929688 354.226562 C 10.929688 351.21875 7.449219 346.113281 6.171875 341.21875 C 4.683594 335.273438 3.617188 327.859375 3.050781 321.074219 C 2.484375 314.363281 2.839844 300.722656 2.839844 300.722656 M 61.738281 361.011719 C 65.355469 363.808594 64.078125 361.429688 63.371094 361.011719 C 63.015625 360.730469 62.375 360.871094 62.09375 360.871094 C 61.949219 360.941406 61.738281 361.011719 61.738281 361.011719 M 91.683594 191.96875 C 92.109375 192.109375 92.324219 191.339844 92.253906 191.269531 C 92.179688 191.269531 91.683594 191.96875 91.683594 191.96875 M 132.558594 204.207031 C 136.886719 198.683594 137.527344 197.285156 137.457031 197.285156 C 137.386719 197.214844 136.886719 197.773438 136.460938 198.261719 C 135.609375 199.453125 132.558594 204.207031 132.558594 204.207031 M 149.589844 406.539062 C 153.351562 409.546875 155.054688 410.875 155.550781 410.597656 C 155.976562 410.386719 155.765625 409.128906 155.835938 408.359375 C 155.976562 407.660156 156.121094 406.191406 156.121094 406.121094 C 156.121094 406.121094 156.472656 400.457031 156.121094 400.386719 C 155.976562 400.316406 155.90625 400.597656 155.621094 400.875 C 154.769531 401.785156 149.589844 406.539062 149.589844 406.539062 M 186.703125 425.285156 C 187.554688 425.285156 187.414062 424.726562 187.34375 424.65625 C 187.34375 424.65625 187.34375 424.726562 187.34375 424.726562 C 187.273438 424.792969 186.703125 425.285156 186.703125 425.285156 M 235.101562 376.046875 C 237.585938 376.816406 237.65625 376.746094 237.796875 376.605469 C 237.941406 376.46875 238.222656 376.1875 238.152344 375.976562 C 238.011719 375.628906 236.023438 375.066406 235.527344 375.277344 C 235.242188 375.417969 235.101562 376.046875 235.101562 376.046875 M 301.734375 334.363281 C 311.386719 335.621094 312.378906 334.992188 312.308594 334.503906 C 312.238281 333.734375 308.265625 332.683594 307.269531 331.777344 C 306.703125 331.285156 306.5625 330.378906 306.207031 330.378906 C 306.066406 330.378906 305.921875 330.726562 305.640625 331.007812 C 305.285156 331.425781 304.148438 332.683594 304.148438 332.683594 C 304.148438 332.753906 302.660156 333.734375 302.234375 334.015625 C 302.019531 334.152344 301.734375 334.363281 301.734375 334.363281 M 318.765625 127.695312 C 321.394531 129.863281 322.171875 129.023438 322.101562 128.675781 C 321.960938 128.253906 320.46875 127.976562 319.902344 127.835938 C 319.476562 127.695312 318.765625 127.695312 318.765625 127.695312 M 350.0625 469.90625 C 354.746094 469.976562 355.953125 469.765625 357.511719 469.414062 C 359.640625 468.925781 362.265625 468.367188 364.75 466.898438 C 368.085938 465.007812 374.613281 459.832031 375.039062 457.875 C 375.183594 457.175781 374.542969 456.757812 374.332031 456.265625 C 374.117188 455.777344 374.1875 455.21875 373.835938 455.078125 C 372.699219 454.726562 368.371094 458.296875 365.105469 460.324219 C 360.777344 463.050781 350.0625 469.90625 350.0625 469.90625 M 376.175781 171.058594 C 381.78125 177.140625 381.640625 175.601562 381.144531 174.832031 C 380.363281 173.574219 376.175781 171.058594 376.175781 171.058594 M 418.328125 214.347656 C 418.542969 214.417969 418.398438 214.210938 418.398438 214.210938 C 418.328125 214.210938 418.328125 214.347656 418.328125 214.347656 M 431.882812 297.226562 C 439.757812 306.179688 439.6875 320.867188 440.753906 320.9375 C 441.605469 320.9375 443.023438 313.3125 443.09375 310.65625 C 443.164062 308.90625 442.882812 308.207031 442.457031 306.386719 C 441.605469 303.03125 439.6875 292.75 437.417969 292.191406 C 435.855469 291.769531 431.882812 297.226562 431.882812 297.226562 M 450.6875 194.90625 C 462.679688 217.566406 463.175781 227.289062 466.726562 231.414062 C 469.210938 234.351562 475.097656 237.007812 475.949219 236.449219 C 476.375 236.171875 476.023438 235.261719 475.738281 234.210938 C 474.671875 230.996094 469.066406 221.34375 465.449219 215.257812 C 461.828125 209.242188 456.789062 201.128906 453.953125 197.84375 C 452.675781 196.304688 450.6875 194.90625 450.6875 194.90625 "/></clipPath><filter x="0%" y="0%" width="100%" filterUnits="objectBoundingBox" id="75f30a4fae" height="100%"><feColorMatrix values="0 0 0 0 1 0 0 0 0 1 0 0 0 0 1 0 0 0 1 0" type="matrix" in="SourceGraphic"/></filter><clipPath id="3b55255248"><path d="M 0.683594 0.671875 L 542.78125 0.671875 L 542.78125 486.238281 L 0.683594 486.238281 Z M 0.683594 0.671875 "/></clipPath><clipPath id="b828997fea"><path d="M 0.839844 243.722656 C 5.949219 210.503906 7.4375 204.277344 9.636719 197.914062 C 11.765625 191.550781 15.457031 185.8125 17.515625 179.378906 C 19.574219 172.664062 20 164.972656 21.984375 158.328125 C 23.902344 152.105469 26.386719 146.859375 28.941406 140.492188 C 31.921875 132.941406 34.261719 123.359375 38.875 116.085938 C 43.417969 108.882812 50.582031 103.078125 56.191406 96.921875 C 61.300781 91.1875 65.699219 85.171875 71.09375 80.277344 C 76.34375 75.519531 82.589844 71.882812 88.050781 67.6875 C 93.304688 63.703125 97.5625 59.996094 103.378906 55.660156 C 110.902344 50.132812 120.339844 42.160156 129.425781 37.40625 C 138.082031 32.859375 148.371094 30.339844 156.53125 27.402344 C 163.414062 24.886719 168.878906 22.578125 175.40625 20.617188 C 182.148438 18.589844 189.671875 17.960938 196.414062 15.511719 C 203.15625 13.136719 208.832031 8.449219 215.855469 6.210938 C 223.449219 3.765625 232.605469 2.644531 240.550781 1.804688 C 248.003906 1.035156 254.816406 1.316406 262.195312 1.175781 C 269.789062 1.105469 278.019531 1.175781 285.472656 1.175781 C 292.285156 1.175781 298.386719 1.175781 305.269531 1.175781 C 312.582031 1.175781 320.742188 0.757812 328.121094 1.175781 C 335.074219 1.527344 341.675781 1.734375 348.203125 3.273438 C 354.875 4.8125 361.117188 7.679688 367.859375 10.40625 C 375.242188 13.34375 383.472656 17.191406 390.640625 20.339844 C 397.238281 23.136719 403.414062 25.234375 409.445312 28.382812 C 415.40625 31.460938 420.726562 35.375 426.617188 39.011719 C 432.648438 42.71875 438.824219 46.285156 445.140625 50.414062 C 452.023438 54.820312 459.828125 60.066406 466.144531 64.75 C 471.75 68.945312 476.292969 72.863281 481.402344 77.128906 C 486.582031 81.464844 491.976562 85.730469 496.871094 90.628906 C 501.980469 95.59375 507.375 100.910156 511.277344 106.785156 C 515.039062 112.519531 517.453125 119.164062 520.007812 125.386719 C 522.558594 131.542969 524.761719 137.207031 526.816406 143.921875 C 529.089844 151.542969 530.792969 160.707031 532.851562 168.960938 C 534.835938 177.210938 537.320312 185.746094 538.882812 193.507812 C 540.300781 200.292969 541.4375 206.375 542.003906 212.949219 C 542.570312 219.59375 542.003906 226.238281 542.003906 233.300781 C 542.074219 240.996094 542.003906 249.667969 542.003906 257.429688 C 542.003906 264.773438 542.5 271.488281 542.003906 278.621094 C 541.578125 285.964844 540.515625 293.378906 539.164062 301.074219 C 537.675781 309.324219 535.972656 318.90625 533.277344 326.671875 C 530.792969 333.664062 527.101562 339.679688 524.050781 345.832031 C 521.140625 351.707031 518.515625 357.375 515.324219 362.96875 C 512.128906 368.703125 508.582031 374.230469 504.75 379.753906 C 500.847656 385.347656 496.871094 390.453125 492.117188 396.257812 C 486.582031 402.972656 479.699219 411.785156 473.453125 417.519531 C 468.273438 422.207031 463.660156 425.492188 457.84375 428.78125 C 451.457031 432.417969 442.160156 435.636719 436.625 437.875 C 433.148438 439.273438 430.09375 439.34375 427.964844 441.230469 C 425.835938 443.117188 426.335938 446.894531 423.921875 449.132812 C 420.230469 452.492188 411.644531 454.726562 405.542969 456.757812 C 399.792969 458.714844 390 460.183594 388.367188 461.371094 C 388.015625 461.722656 387.871094 462.210938 387.871094 462.210938 C 387.871094 462.210938 386.808594 463.332031 386.238281 463.820312 C 385.742188 464.378906 384.679688 465.429688 384.679688 465.5 C 384.609375 465.5 383.332031 466.269531 382.691406 466.6875 C 382.054688 467.109375 380.777344 467.875 380.703125 467.875 C 380.703125 467.875 379.285156 468.367188 378.503906 468.578125 C 377.796875 468.855469 376.375 469.277344 376.304688 469.277344 C 376.304688 469.277344 374.816406 469.414062 374.035156 469.484375 C 373.253906 469.484375 371.761719 469.625 371.761719 469.625 C 371.691406 469.625 370.203125 469.34375 369.421875 469.277344 C 368.710938 469.136719 367.222656 468.855469 367.152344 468.855469 C 367.152344 468.855469 365.730469 468.226562 365.09375 467.945312 C 364.382812 467.667969 362.964844 467.039062 362.964844 467.039062 C 362.964844 467.039062 362.894531 466.96875 362.820312 466.96875 C 362.183594 466.898438 358.777344 469.90625 355.867188 471.722656 C 351.042969 474.730469 343.589844 480.257812 336.210938 482.632812 C 328.191406 485.222656 317.761719 485.363281 309.175781 485.851562 C 301.511719 486.269531 294.414062 485.851562 287.246094 485.851562 C 280.292969 485.78125 273.410156 486.0625 266.597656 485.640625 C 259.855469 485.152344 253.398438 484.171875 246.511719 483.054688 C 239.132812 481.863281 231.328125 480.605469 223.664062 478.578125 C 215.503906 476.410156 206.703125 472.773438 198.824219 470.183594 C 191.660156 467.808594 184.847656 466.058594 178.175781 463.539062 C 171.578125 461.023438 165.828125 458.085938 159.015625 455.007812 C 151.210938 451.582031 142.269531 448.152344 133.964844 443.816406 C 125.308594 439.34375 116.082031 433.816406 108.207031 428.363281 C 100.824219 423.257812 94.011719 417.941406 87.910156 412.277344 C 82.164062 406.890625 77.691406 400.597656 72.371094 395.28125 C 67.1875 390.175781 61.300781 385.980469 56.542969 380.875 C 52.003906 375.976562 48.527344 371.222656 44.410156 365.488281 C 39.441406 358.5625 34.546875 349.539062 29.367188 342.128906 C 24.328125 334.855469 17.515625 328.558594 13.753906 321.355469 C 10.417969 314.851562 7.296875 305.128906 7.4375 301.074219 C 7.507812 299.253906 8.929688 298.90625 8.929688 297.226562 C 8.929688 294.21875 5.449219 289.113281 4.171875 284.21875 C 2.683594 278.273438 1.617188 270.859375 1.050781 264.074219 C 0.484375 257.363281 0.839844 243.722656 0.839844 243.722656 M 59.738281 304.011719 C 63.355469 306.808594 62.078125 304.429688 61.371094 304.011719 C 61.015625 303.730469 60.375 303.871094 60.09375 303.871094 C 59.949219 303.941406 59.738281 304.011719 59.738281 304.011719 M 89.683594 134.96875 C 90.109375 135.109375 90.324219 134.339844 90.253906 134.269531 C 90.179688 134.269531 89.683594 134.96875 89.683594 134.96875 M 130.558594 147.207031 C 134.886719 141.683594 135.527344 140.285156 135.457031 140.285156 C 135.386719 140.214844 134.886719 140.773438 134.460938 141.261719 C 133.609375 142.453125 130.558594 147.207031 130.558594 147.207031 M 147.589844 349.539062 C 151.351562 352.546875 153.054688 353.875 153.550781 353.597656 C 153.976562 353.386719 153.765625 352.128906 153.835938 351.359375 C 153.976562 350.660156 154.121094 349.191406 154.121094 349.121094 C 154.121094 349.121094 154.472656 343.457031 154.121094 343.386719 C 153.976562 343.316406 153.90625 343.597656 153.621094 343.875 C 152.769531 344.785156 147.589844 349.539062 147.589844 349.539062 M 184.703125 368.285156 C 185.554688 368.285156 185.414062 367.726562 185.34375 367.65625 C 185.34375 367.65625 185.34375 367.726562 185.34375 367.726562 C 185.273438 367.792969 184.703125 368.285156 184.703125 368.285156 M 233.101562 319.046875 C 235.585938 319.816406 235.65625 319.746094 235.796875 319.605469 C 235.941406 319.46875 236.222656 319.1875 236.152344 318.976562 C 236.011719 318.628906 234.023438 318.066406 233.527344 318.277344 C 233.242188 318.417969 233.101562 319.046875 233.101562 319.046875 M 299.734375 277.363281 C 309.386719 278.621094 310.378906 277.992188 310.308594 277.503906 C 310.238281 276.734375 306.265625 275.683594 305.269531 274.777344 C 304.703125 274.285156 304.5625 273.378906 304.207031 273.378906 C 304.066406 273.378906 303.921875 273.726562 303.640625 274.007812 C 303.285156 274.425781 302.148438 275.683594 302.148438 275.683594 C 302.148438 275.753906 300.660156 276.734375 300.234375 277.015625 C 300.019531 277.152344 299.734375 277.363281 299.734375 277.363281 M 316.765625 70.695312 C 319.394531 72.863281 320.171875 72.023438 320.101562 71.675781 C 319.960938 71.253906 318.46875 70.976562 317.902344 70.835938 C 317.476562 70.695312 316.765625 70.695312 316.765625 70.695312 M 348.0625 412.90625 C 352.746094 412.976562 353.953125 412.765625 355.511719 412.414062 C 357.640625 411.925781 360.265625 411.367188 362.75 409.898438 C 366.085938 408.007812 372.613281 402.832031 373.039062 400.875 C 373.183594 400.175781 372.542969 399.757812 372.332031 399.265625 C 372.117188 398.777344 372.1875 398.21875 371.835938 398.078125 C 370.699219 397.726562 366.371094 401.296875 363.105469 403.324219 C 358.777344 406.050781 348.0625 412.90625 348.0625 412.90625 M 374.175781 114.058594 C 379.78125 120.140625 379.640625 118.601562 379.144531 117.832031 C 378.363281 116.574219 374.175781 114.058594 374.175781 114.058594 M 416.328125 157.347656 C 416.542969 157.417969 416.398438 157.210938 416.398438 157.210938 C 416.328125 157.210938 416.328125 157.347656 416.328125 157.347656 M 429.882812 240.226562 C 437.757812 249.179688 437.6875 263.867188 438.753906 263.9375 C 439.605469 263.9375 441.023438 256.3125 441.09375 253.65625 C 441.164062 251.90625 440.882812 251.207031 440.457031 249.386719 C 439.605469 246.03125 437.6875 235.75 435.417969 235.191406 C 433.855469 234.769531 429.882812 240.226562 429.882812 240.226562 M 448.6875 137.90625 C 460.679688 160.566406 461.175781 170.289062 464.726562 174.414062 C 467.210938 177.351562 473.097656 180.007812 473.949219 179.449219 C 474.375 179.171875 474.023438 178.261719 473.738281 177.210938 C 472.671875 173.996094 467.066406 164.34375 463.449219 158.257812 C 459.828125 152.242188 454.789062 144.128906 451.953125 140.84375 C 450.675781 139.304688 448.6875 137.90625 448.6875 137.90625 "/></clipPath><clipPath id="607461df83"><rect x="0" width="543" y="0" height="487"/></clipPath><clipPath id="168b098197"><path d="M 0 152 L 519 152 L 519 505.164062 L 0 505.164062 Z M 0 152 "/></clipPath><clipPath id="970afbc72b"><path d="M 107 0.125 L 413 0.125 L 413 245 L 107 245 Z M 107 0.125 "/></clipPath><clipPath id="335243592e"><path d="M 352 0.125 L 413 0.125 L 413 65 L 352 65 Z M 352 0.125 "/></clipPath></defs><g id="2c0e6b810d"><g clip-rule="nonzero" clip-path="url(#47be652fa6)"><g clip-rule="nonzero" clip-path="url(#84652f202d)"><g mask="url(#0a4ec2b255)" transform="matrix(1,0,0,1,2,57)"><g clip-path="url(#607461df83)"><g clip-rule="nonzero" clip-path="url(#3b55255248)"><g clip-rule="nonzero" clip-path="url(#b828997fea)"><rect x="0" width="543" height="487" y="0" style="fill:#e889db;fill-opacity:1;stroke:none;"/></g></g></g><mask id="0a4ec2b255"><g filter="url(#75f30a4fae)"><rect x="0" width="547.5" y="0" height="546.749989" style="fill:#000000;fill-opacity:0.5;stroke:none;"/></g></mask></g></g></g><path style=" stroke:none;fill-rule:evenodd;fill:#000000;fill-opacity:1;" d="M 508.261719 501.371094 C 507.21875 501.371094 506.171875 501.046875 505.273438 500.390625 L 259.585938 319.839844 L 13.902344 500.390625 C 11.652344 502.042969 8.480469 501.554688 6.828125 499.304688 C 5.167969 497.046875 5.652344 493.882812 7.914062 492.21875 L 256.585938 309.480469 C 258.371094 308.164062 260.804688 308.164062 262.585938 309.480469 L 511.261719 492.21875 C 513.519531 493.882812 514.007812 497.046875 512.34375 499.304688 C 511.351562 500.652344 509.820312 501.371094 508.261719 501.371094 Z M 508.261719 501.371094 "/><g clip-rule="nonzero" clip-path="url(#168b098197)"><path style=" stroke:none;fill-rule:evenodd;fill:#000000;fill-opacity:1;" d="M 495.523438 505.222656 L 23.660156 505.222656 C 10.78125 505.222656 0.300781 495.96875 0.300781 484.589844 L 0.300781 173.121094 C 0.300781 161.75 10.78125 152.488281 23.660156 152.488281 L 112.40625 152.488281 C 115.203125 152.488281 117.476562 154.757812 117.476562 157.554688 C 117.476562 160.351562 115.203125 162.621094 112.40625 162.621094 L 23.660156 162.621094 C 16.488281 162.621094 10.425781 167.425781 10.425781 173.121094 L 10.425781 484.589844 C 10.425781 490.285156 16.488281 495.097656 23.660156 495.097656 L 495.523438 495.097656 C 502.6875 495.097656 508.746094 490.285156 508.746094 484.589844 L 508.746094 173.121094 C 508.746094 167.425781 502.6875 162.621094 495.523438 162.621094 L 406.765625 162.621094 C 403.96875 162.621094 401.710938 160.351562 401.710938 157.554688 C 401.710938 154.757812 403.96875 152.488281 406.765625 152.488281 L 495.523438 152.488281 C 508.402344 152.488281 518.882812 161.742188 518.882812 173.121094 L 518.882812 484.589844 C 518.882812 495.96875 508.402344 505.222656 495.523438 505.222656 Z M 495.523438 505.222656 "/></g><path style=" stroke:none;fill-rule:evenodd;fill:#000000;fill-opacity:1;" d="M 287.265625 338.964844 C 285.773438 338.964844 284.292969 338.308594 283.300781 337.050781 C 281.558594 334.851562 281.921875 331.667969 284.113281 329.933594 L 502.738281 156.339844 C 504.925781 154.605469 508.109375 154.96875 509.851562 157.160156 C 511.585938 159.347656 511.21875 162.542969 509.03125 164.273438 L 290.414062 337.859375 C 289.484375 338.601562 288.367188 338.964844 287.265625 338.964844 Z M 287.265625 338.964844 "/><path style=" stroke:none;fill-rule:evenodd;fill:#000000;fill-opacity:1;" d="M 231.910156 338.964844 C 230.804688 338.964844 229.691406 338.601562 228.757812 337.871094 L 10.144531 164.273438 C 7.953125 162.542969 7.589844 159.347656 9.320312 157.160156 C 11.066406 154.96875 14.246094 154.605469 16.445312 156.339844 L 235.0625 329.933594 C 237.25 331.679688 237.617188 334.859375 235.875 337.050781 C 234.878906 338.308594 233.398438 338.964844 231.910156 338.964844 Z M 231.910156 338.964844 "/><path style=" stroke:none;fill-rule:evenodd;fill:#000000;fill-opacity:1;" d="M 356.582031 453.675781 L 162.59375 453.675781 C 159.796875 453.675781 157.523438 451.417969 157.523438 448.617188 C 157.523438 445.820312 159.796875 443.550781 162.59375 443.550781 L 356.582031 443.550781 C 359.390625 443.550781 361.648438 445.820312 361.648438 448.617188 C 361.648438 451.417969 359.378906 453.675781 356.582031 453.675781 Z M 356.582031 453.675781 "/><path style=" stroke:none;fill-rule:evenodd;fill:#000000;fill-opacity:1;" d="M 330.75 421.902344 L 188.425781 421.902344 C 185.628906 421.902344 183.355469 419.632812 183.355469 416.835938 C 183.355469 414.039062 185.628906 411.765625 188.425781 411.765625 L 330.75 411.765625 C 333.546875 411.765625 335.816406 414.039062 335.816406 416.835938 C 335.816406 419.632812 333.546875 421.902344 330.75 421.902344 Z M 330.75 421.902344 "/><g clip-rule="nonzero" clip-path="url(#970afbc72b)"><path style=" stroke:none;fill-rule:evenodd;fill:#000000;fill-opacity:1;" d="M 112.40625 244.078125 C 109.609375 244.078125 107.339844 241.808594 107.339844 239.011719 L 107.339844 5.636719 C 107.339844 2.839844 109.609375 0.570312 112.40625 0.570312 L 358 0.570312 C 360.796875 0.570312 363.066406 2.839844 363.066406 5.636719 L 363.066406 54.1875 L 407.0625 54.1875 C 409.859375 54.1875 412.128906 56.457031 412.128906 59.253906 L 412.128906 238.777344 C 412.128906 241.578125 409.859375 243.835938 407.0625 243.835938 C 404.265625 243.835938 402.003906 241.578125 402.003906 238.777344 L 402.003906 64.320312 L 358 64.320312 C 355.203125 64.320312 352.945312 62.050781 352.945312 59.253906 L 352.945312 10.707031 L 117.476562 10.707031 L 117.476562 239.011719 C 117.476562 241.808594 115.203125 244.078125 112.40625 244.078125 Z M 112.40625 244.078125 "/></g><g clip-rule="nonzero" clip-path="url(#335243592e)"><path style=" stroke:none;fill-rule:evenodd;fill:#000000;fill-opacity:1;" d="M 407.082031 64.320312 C 407.082031 64.320312 407.070312 64.320312 407.0625 64.320312 L 358 64.320312 C 355.203125 64.320312 352.945312 62.050781 352.945312 59.253906 L 352.945312 5.636719 C 352.945312 3.550781 354.222656 1.675781 356.167969 0.914062 C 358.113281 0.15625 360.332031 0.671875 361.742188 2.210938 L 410.546875 55.554688 C 411.53125 56.488281 412.148438 57.792969 412.148438 59.253906 C 412.148438 62.050781 409.878906 64.320312 407.082031 64.320312 Z M 363.066406 54.1875 L 395.570312 54.1875 L 363.066406 18.671875 Z M 363.066406 54.1875 "/></g><path style=" stroke:none;fill-rule:evenodd;fill:#000000;fill-opacity:1;" d="M 314.292969 39.5 L 156.117188 39.5 C 153.320312 39.5 151.058594 37.238281 151.058594 34.441406 C 151.058594 31.636719 153.320312 29.375 156.117188 29.375 L 314.292969 29.375 C 317.089844 29.375 319.359375 31.636719 319.359375 34.441406 C 319.359375 37.238281 317.089844 39.5 314.292969 39.5 Z M 314.292969 39.5 "/><path style=" stroke:none;fill-rule:evenodd;fill:#000000;fill-opacity:1;" d="M 314.292969 62.191406 L 156.117188 62.191406 C 153.320312 62.191406 151.058594 59.921875 151.058594 57.125 C 151.058594 54.328125 153.320312 52.058594 156.117188 52.058594 L 314.292969 52.058594 C 317.089844 52.058594 319.359375 54.328125 319.359375 57.125 C 319.359375 59.921875 317.089844 62.191406 314.292969 62.191406 Z M 314.292969 62.191406 "/><path style=" stroke:none;fill-rule:evenodd;fill:#000000;fill-opacity:1;" d="M 177.710938 151.6875 L 169.675781 151.6875 C 163.949219 151.6875 158.964844 147.816406 157.535156 142.269531 C 157.402344 141.753906 157.3125 141.246094 157.242188 140.742188 C 156.898438 137.964844 158.863281 135.429688 161.628906 135.074219 C 164.40625 134.71875 166.941406 136.695312 167.292969 139.464844 C 167.304688 139.566406 167.324219 139.667969 167.355469 139.769531 C 167.617188 140.800781 168.589844 141.5625 169.675781 141.5625 L 177.710938 141.5625 C 183.46875 141.5625 188.152344 136.878906 188.152344 131.121094 L 188.152344 87.835938 C 188.152344 85.039062 190.421875 82.765625 193.21875 82.765625 C 196.015625 82.765625 198.273438 85.039062 198.273438 87.835938 L 198.273438 131.121094 C 198.273438 142.464844 189.054688 151.6875 177.710938 151.6875 Z M 177.710938 151.6875 "/><path style=" stroke:none;fill-rule:evenodd;fill:#000000;fill-opacity:1;" d="M 256.667969 151.695312 C 237.675781 151.695312 222.230469 136.242188 222.230469 117.246094 C 222.230469 98.265625 237.675781 82.808594 256.667969 82.808594 C 275.660156 82.808594 291.105469 98.265625 291.105469 117.246094 C 291.105469 136.242188 275.660156 151.695312 256.667969 151.695312 Z M 256.667969 92.941406 C 243.261719 92.941406 232.355469 103.847656 232.355469 117.246094 C 232.355469 130.65625 243.261719 141.5625 256.667969 141.5625 C 270.074219 141.5625 280.980469 130.65625 280.980469 117.246094 C 280.980469 103.847656 270.074219 92.941406 256.667969 92.941406 Z M 256.667969 92.941406 "/><path style=" stroke:none;fill-rule:evenodd;fill:#000000;fill-opacity:1;" d="M 336.210938 151.695312 L 320.128906 151.695312 C 317.332031 151.695312 315.0625 149.425781 315.0625 146.628906 L 315.0625 87.875 C 315.0625 85.078125 317.332031 82.808594 320.128906 82.808594 L 339.089844 82.808594 C 349.164062 82.808594 357.351562 91.007812 357.351562 101.070312 C 357.351562 106.6875 354.808594 111.722656 350.804688 115.078125 C 354.839844 118.929688 357.351562 124.351562 357.351562 130.363281 L 357.351562 130.542969 C 357.351562 142.210938 347.867188 151.695312 336.210938 151.695312 Z M 325.195312 141.5625 L 336.210938 141.5625 C 342.28125 141.5625 347.226562 136.617188 347.226562 130.542969 L 347.226562 130.363281 C 347.226562 124.28125 342.28125 119.34375 336.210938 119.34375 L 325.195312 119.34375 Z M 325.195312 109.210938 L 339.089844 109.210938 C 343.578125 109.210938 347.226562 105.5625 347.226562 101.082031 C 347.226562 96.589844 343.570312 92.941406 339.089844 92.941406 L 325.195312 92.941406 Z M 325.195312 109.210938 "/><path style=" stroke:none;fill-rule:evenodd;fill:#000000;fill-opacity:1;" d="M 357.199219 186.167969 L 169.675781 186.167969 C 166.878906 186.167969 164.609375 183.90625 164.609375 181.109375 C 164.609375 178.3125 166.878906 176.042969 169.675781 176.042969 L 357.199219 176.042969 C 359.996094 176.042969 362.265625 178.3125 362.265625 181.109375 C 362.265625 183.90625 359.996094 186.167969 357.199219 186.167969 Z M 357.199219 186.167969 "/><path style=" stroke:none;fill-rule:evenodd;fill:#000000;fill-opacity:1;" d="M 357.199219 208.859375 L 169.675781 208.859375 C 166.878906 208.859375 164.609375 206.589844 164.609375 203.792969 C 164.609375 200.996094 166.878906 198.734375 169.675781 198.734375 L 357.199219 198.722656 C 359.996094 198.722656 362.265625 200.996094 362.265625 203.792969 C 362.265625 206.589844 359.996094 208.859375 357.199219 208.859375 Z M 357.199219 208.859375 "/><path style=" stroke:none;fill-rule:evenodd;fill:#000000;fill-opacity:1;" d="M 357.199219 254.234375 L 169.675781 254.234375 C 166.878906 254.234375 164.609375 251.964844 164.609375 249.167969 C 164.609375 246.371094 166.878906 244.109375 169.675781 244.109375 L 357.199219 244.109375 C 359.996094 244.109375 362.265625 246.371094 362.265625 249.167969 C 362.265625 251.964844 359.996094 254.234375 357.199219 254.234375 Z M 357.199219 254.234375 "/><path style=" stroke:none;fill-rule:evenodd;fill:#000000;fill-opacity:1;" d="M 357.199219 231.542969 L 169.675781 231.542969 C 166.878906 231.542969 164.609375 229.28125 164.609375 226.484375 C 164.609375 223.6875 166.878906 221.417969 169.675781 221.417969 L 357.199219 221.417969 C 359.996094 221.417969 362.265625 223.6875 362.265625 226.484375 C 362.265625 229.28125 359.996094 231.542969 357.199219 231.542969 Z M 357.199219 231.542969 "/></g></svg>