<svg xmlns="http://www.w3.org/2000/svg" xmlns:xlink="http://www.w3.org/1999/xlink" width="500" zoomAndPan="magnify" viewBox="0 0 375 374.999991" height="500" preserveAspectRatio="xMidYMid meet" version="1.2"><defs><clipPath id="9b865ef1bd"><path d="M 16.058594 170.21875 L 63.183594 170.21875 L 63.183594 234.351562 L 16.058594 234.351562 Z M 16.058594 170.21875 "/></clipPath><clipPath id="d80cffdeb5"><path d="M 250.746094 184.367188 L 265.265625 184.367188 L 265.265625 198.882812 L 250.746094 198.882812 Z M 250.746094 184.367188 "/></clipPath><clipPath id="93ea3a72d2"><path d="M 258.003906 184.367188 C 253.996094 184.367188 250.746094 187.617188 250.746094 191.625 C 250.746094 195.632812 253.996094 198.882812 258.003906 198.882812 C 262.015625 198.882812 265.265625 195.632812 265.265625 191.625 C 265.265625 187.617188 262.015625 184.367188 258.003906 184.367188 Z M 258.003906 184.367188 "/></clipPath><clipPath id="86c7e95fd8"><path d="M 312 129 L 344 129 L 344 162 L 312 162 Z M 312 129 "/></clipPath><clipPath id="9995226aa4"><path d="M 305.617188 135.1875 L 327.460938 113.523438 L 359.648438 145.976562 L 337.804688 167.640625 Z M 305.617188 135.1875 "/></clipPath><clipPath id="f5a38c2dc9"><path d="M 305.617188 135.1875 L 327.460938 113.523438 L 359.648438 145.976562 L 337.804688 167.640625 Z M 305.617188 135.1875 "/></clipPath><clipPath id="1ad311c544"><path d="M 327 114 L 360 114 L 360 146 L 327 146 Z M 327 114 "/></clipPath><clipPath id="78d2b58ee6"><path d="M 321.214844 119.722656 L 343.058594 98.058594 L 375.242188 130.511719 L 353.398438 152.175781 Z M 321.214844 119.722656 "/></clipPath><clipPath id="5037409921"><path d="M 321.214844 119.722656 L 343.058594 98.058594 L 375.242188 130.511719 L 353.398438 152.175781 Z M 321.214844 119.722656 "/></clipPath></defs><g id="5fc1bbe4a5"><g clip-rule="nonzero" clip-path="url(#9b865ef1bd)"><path style=" stroke:none;fill-rule:nonzero;fill:#f8d210;fill-opacity:1;" d="M 16.058594 170.21875 L 63.183594 170.21875 L 63.183594 234.277344 L 16.058594 234.277344 Z M 16.058594 170.21875 "/></g><g style="fill:#373643;fill-opacity:0.1098;"><g transform="translate(36.310389, 202.954088)"><path style="stroke:none" d="M 21.90625 -41.28125 C 23.363281 -41.28125 24.523438 -40.96875 25.390625 -40.34375 C 26.253906 -39.726562 26.6875 -38.71875 26.6875 -37.3125 C 26.6875 -36.007812 26.253906 -34.976562 25.390625 -34.21875 C 24.523438 -33.46875 23.363281 -33.09375 21.90625 -33.09375 C 18.5 -33.09375 16.101562 -31.875 14.71875 -29.4375 C 13.34375 -27.007812 12.65625 -23.710938 12.65625 -19.546875 L 12.65625 -4.140625 C 12.65625 -2.953125 12.222656 -1.960938 11.359375 -1.171875 C 10.492188 -0.390625 9.4375 0 8.1875 0 C 6.78125 0 5.644531 -0.390625 4.78125 -1.171875 C 3.914062 -1.960938 3.484375 -2.953125 3.484375 -4.140625 L 3.484375 -37.140625 C 3.484375 -38.441406 3.984375 -39.457031 4.984375 -40.1875 C 5.984375 -40.914062 7.050781 -41.28125 8.1875 -41.28125 C 9.320312 -41.28125 10.347656 -40.925781 11.265625 -40.21875 C 12.191406 -39.519531 12.65625 -38.492188 12.65625 -37.140625 L 12.65625 -36.65625 C 13.84375 -38.226562 15.21875 -39.390625 16.78125 -40.140625 C 18.351562 -40.898438 20.0625 -41.28125 21.90625 -41.28125 Z M 21.90625 -41.28125 "/></g></g><g style="fill:#373643;fill-opacity:0.1098;"><g transform="translate(60.557385, 202.954088)"><path style="stroke:none" d="M 23.203125 -7.21875 C 24.765625 -7.21875 26.300781 -7.429688 27.8125 -7.859375 C 29.332031 -8.296875 30.738281 -9.03125 32.03125 -10.0625 C 33.28125 -11.195312 34.5 -11.722656 35.6875 -11.640625 C 36.875 -11.554688 37.859375 -11.125 38.640625 -10.34375 C 39.429688 -9.5625 39.828125 -8.585938 39.828125 -7.421875 C 39.828125 -6.253906 39.257812 -5.132812 38.125 -4.0625 C 36.226562 -2.21875 33.984375 -0.929688 31.390625 -0.203125 C 28.796875 0.523438 26.144531 0.863281 23.4375 0.8125 C 19.21875 0.8125 15.5 -0.0507812 12.28125 -1.78125 C 9.070312 -3.507812 6.5625 -5.914062 4.75 -9 C 2.9375 -12.082031 2.03125 -15.648438 2.03125 -19.703125 C 2.03125 -24.140625 2.894531 -28.035156 4.625 -31.390625 C 6.351562 -34.742188 8.796875 -37.363281 11.953125 -39.25 C 15.117188 -41.144531 18.867188 -42.09375 23.203125 -42.09375 C 27.523438 -42.09375 31.195312 -41.210938 34.21875 -39.453125 C 37.25 -37.703125 39.5625 -35.242188 41.15625 -32.078125 C 42.757812 -28.910156 43.5625 -25.21875 43.5625 -21 C 43.5625 -19.65625 43.289062 -18.507812 42.75 -17.5625 C 42.207031 -16.613281 40.773438 -16.140625 38.453125 -16.140625 L 11.4375 -16.140625 C 12.195312 -13.492188 13.628906 -11.34375 15.734375 -9.6875 C 17.847656 -8.039062 20.335938 -7.21875 23.203125 -7.21875 Z M 23.28125 -34.0625 C 20.144531 -34.0625 17.519531 -33.070312 15.40625 -31.09375 C 13.300781 -29.125 11.953125 -26.546875 11.359375 -23.359375 L 34.953125 -23.359375 C 34.679688 -26.546875 33.625 -29.125 31.78125 -31.09375 C 29.945312 -33.070312 27.113281 -34.0625 23.28125 -34.0625 Z M 23.28125 -34.0625 "/></g></g><g style="fill:#373643;fill-opacity:0.1098;"><g transform="translate(107.673462, 202.954088)"><path style="stroke:none" d="M 37.875 -41.28125 C 39.28125 -41.28125 40.414062 -40.820312 41.28125 -39.90625 C 42.144531 -38.988281 42.578125 -37.90625 42.578125 -36.65625 L 42.578125 -2.515625 C 42.578125 1.429688 41.65625 4.753906 39.8125 7.453125 C 37.976562 10.160156 35.519531 12.191406 32.4375 13.546875 C 29.363281 14.898438 25.929688 15.578125 22.140625 15.578125 C 19.003906 15.578125 16.164062 15.171875 13.625 14.359375 C 11.082031 13.546875 8.703125 12.113281 6.484375 10.0625 C 5.398438 8.976562 4.882812 7.867188 4.9375 6.734375 C 5 5.597656 5.4375 4.625 6.25 3.8125 C 7.0625 3 8.046875 2.535156 9.203125 2.421875 C 10.367188 2.316406 11.492188 2.753906 12.578125 3.734375 C 14.253906 5.191406 15.804688 6.132812 17.234375 6.5625 C 18.671875 7 20.304688 7.21875 22.140625 7.21875 C 24.085938 7.21875 25.925781 6.878906 27.65625 6.203125 C 29.382812 5.523438 30.789062 4.457031 31.875 3 C 32.957031 1.539062 33.5 -0.296875 33.5 -2.515625 L 33.5 -3.25 C 31.65625 -1.894531 29.648438 -0.878906 27.484375 -0.203125 C 25.328125 0.472656 23.300781 0.8125 21.40625 0.8125 C 17.519531 0.8125 14.101562 -0.078125 11.15625 -1.859375 C 8.207031 -3.648438 5.90625 -6.164062 4.25 -9.40625 C 2.601562 -12.65625 1.78125 -16.441406 1.78125 -20.765625 C 1.78125 -24.984375 2.617188 -28.6875 4.296875 -31.875 C 5.972656 -35.0625 8.3125 -37.5625 11.3125 -39.375 C 14.3125 -41.1875 17.785156 -42.09375 21.734375 -42.09375 C 23.578125 -42.09375 25.535156 -41.820312 27.609375 -41.28125 C 29.691406 -40.738281 31.65625 -39.796875 33.5 -38.453125 C 34.09375 -40.335938 35.550781 -41.28125 37.875 -41.28125 Z M 21.65625 -7.375 C 24.144531 -7.375 26.507812 -7.914062 28.75 -9 C 31 -10.082031 32.554688 -11.707031 33.421875 -13.875 L 33.421875 -27.421875 C 32.390625 -29.472656 30.832031 -31.066406 28.75 -32.203125 C 26.664062 -33.335938 24.546875 -33.90625 22.390625 -33.90625 C 18.984375 -33.90625 16.238281 -32.660156 14.15625 -30.171875 C 12.070312 -27.679688 11.03125 -24.519531 11.03125 -20.6875 C 11.03125 -16.6875 12.003906 -13.46875 13.953125 -11.03125 C 15.898438 -8.59375 18.46875 -7.375 21.65625 -7.375 Z M 21.65625 -7.375 "/></g></g><g style="fill:#373643;fill-opacity:0.1098;"><g transform="translate(154.708435, 202.954088)"><path style="stroke:none" d="M 23.203125 -7.21875 C 24.765625 -7.21875 26.300781 -7.429688 27.8125 -7.859375 C 29.332031 -8.296875 30.738281 -9.03125 32.03125 -10.0625 C 33.28125 -11.195312 34.5 -11.722656 35.6875 -11.640625 C 36.875 -11.554688 37.859375 -11.125 38.640625 -10.34375 C 39.429688 -9.5625 39.828125 -8.585938 39.828125 -7.421875 C 39.828125 -6.253906 39.257812 -5.132812 38.125 -4.0625 C 36.226562 -2.21875 33.984375 -0.929688 31.390625 -0.203125 C 28.796875 0.523438 26.144531 0.863281 23.4375 0.8125 C 19.21875 0.8125 15.5 -0.0507812 12.28125 -1.78125 C 9.070312 -3.507812 6.5625 -5.914062 4.75 -9 C 2.9375 -12.082031 2.03125 -15.648438 2.03125 -19.703125 C 2.03125 -24.140625 2.894531 -28.035156 4.625 -31.390625 C 6.351562 -34.742188 8.796875 -37.363281 11.953125 -39.25 C 15.117188 -41.144531 18.867188 -42.09375 23.203125 -42.09375 C 27.523438 -42.09375 31.195312 -41.210938 34.21875 -39.453125 C 37.25 -37.703125 39.5625 -35.242188 41.15625 -32.078125 C 42.757812 -28.910156 43.5625 -25.21875 43.5625 -21 C 43.5625 -19.65625 43.289062 -18.507812 42.75 -17.5625 C 42.207031 -16.613281 40.773438 -16.140625 38.453125 -16.140625 L 11.4375 -16.140625 C 12.195312 -13.492188 13.628906 -11.34375 15.734375 -9.6875 C 17.847656 -8.039062 20.335938 -7.21875 23.203125 -7.21875 Z M 23.28125 -34.0625 C 20.144531 -34.0625 17.519531 -33.070312 15.40625 -31.09375 C 13.300781 -29.125 11.953125 -26.546875 11.359375 -23.359375 L 34.953125 -23.359375 C 34.679688 -26.546875 33.625 -29.125 31.78125 -31.09375 C 29.945312 -33.070312 27.113281 -34.0625 23.28125 -34.0625 Z M 23.28125 -34.0625 "/></g></g><g style="fill:#373643;fill-opacity:0.1098;"><g transform="translate(201.824513, 202.954088)"><path style="stroke:none" d="M 27.328125 -42.09375 C 31.117188 -42.09375 34.335938 -41.265625 36.984375 -39.609375 C 39.628906 -37.960938 41.65625 -35.679688 43.0625 -32.765625 C 44.46875 -29.847656 45.171875 -26.441406 45.171875 -22.546875 L 45.171875 -4.21875 C 45.171875 -2.976562 44.765625 -1.960938 43.953125 -1.171875 C 43.148438 -0.390625 42.015625 0 40.546875 0 C 39.203125 0 38.097656 -0.390625 37.234375 -1.171875 C 36.367188 -1.960938 35.9375 -2.976562 35.9375 -4.21875 L 35.9375 -22.703125 C 35.9375 -26.054688 35.132812 -28.773438 33.53125 -30.859375 C 31.9375 -32.941406 29.410156 -33.984375 25.953125 -33.984375 C 24.921875 -33.984375 23.6875 -33.695312 22.25 -33.125 C 20.820312 -32.5625 19.421875 -31.710938 18.046875 -30.578125 C 16.671875 -29.441406 15.535156 -28.007812 14.640625 -26.28125 C 13.742188 -24.550781 13.296875 -22.492188 13.296875 -20.109375 L 13.296875 -4.140625 C 13.296875 -1.378906 11.8125 0 8.84375 0 C 7.4375 0 6.285156 -0.363281 5.390625 -1.09375 C 4.503906 -1.820312 4.0625 -2.835938 4.0625 -4.140625 L 4.0625 -37.140625 C 4.0625 -38.492188 4.53125 -39.519531 5.46875 -40.21875 C 6.414062 -40.925781 7.484375 -41.28125 8.671875 -41.28125 C 9.804688 -41.28125 10.859375 -40.925781 11.828125 -40.21875 C 12.804688 -39.519531 13.296875 -38.550781 13.296875 -37.3125 L 13.296875 -36.75 C 15.628906 -38.90625 18.035156 -40.332031 20.515625 -41.03125 C 23.003906 -41.738281 25.273438 -42.09375 27.328125 -42.09375 Z M 27.328125 -42.09375 "/></g></g><g style="fill:#373643;fill-opacity:0.1098;"><g transform="translate(251.049078, 202.954088)"><path style="stroke:none" d=""/></g></g><g style="fill:#373643;fill-opacity:0.1098;"><g transform="translate(270.10593, 202.954088)"><path style="stroke:none" d="M 37.71875 -41.28125 C 39.125 -41.28125 40.242188 -40.890625 41.078125 -40.109375 C 41.921875 -39.328125 42.34375 -38.3125 42.34375 -37.0625 L 42.34375 -4.21875 C 42.34375 -2.976562 41.921875 -1.960938 41.078125 -1.171875 C 40.242188 -0.390625 39.125 0 37.71875 0 C 36.363281 0 35.304688 -0.304688 34.546875 -0.921875 C 33.796875 -1.546875 33.335938 -2.375 33.171875 -3.40625 C 31.335938 -1.945312 29.285156 -0.878906 27.015625 -0.203125 C 24.742188 0.472656 22.578125 0.8125 20.515625 0.8125 C 16.628906 0.8125 13.265625 -0.078125 10.421875 -1.859375 C 7.585938 -3.648438 5.410156 -6.164062 3.890625 -9.40625 C 2.378906 -12.65625 1.625 -16.441406 1.625 -20.765625 C 1.625 -24.984375 2.460938 -28.6875 4.140625 -31.875 C 5.816406 -35.0625 8.15625 -37.5625 11.15625 -39.375 C 14.15625 -41.1875 17.628906 -42.09375 21.578125 -42.09375 C 23.304688 -42.09375 25.222656 -41.769531 27.328125 -41.125 C 29.441406 -40.476562 31.390625 -39.453125 33.171875 -38.046875 C 33.390625 -39.015625 33.875 -39.796875 34.625 -40.390625 C 35.382812 -40.984375 36.414062 -41.28125 37.71875 -41.28125 Z M 21.5 -7.375 C 23.875 -7.375 26.171875 -7.898438 28.390625 -8.953125 C 30.609375 -10.015625 32.175781 -11.570312 33.09375 -13.625 L 33.09375 -27.65625 C 32.0625 -29.65625 30.519531 -31.195312 28.46875 -32.28125 C 26.414062 -33.363281 24.332031 -33.90625 22.21875 -33.90625 C 18.8125 -33.90625 16.066406 -32.660156 13.984375 -30.171875 C 11.910156 -27.679688 10.875 -24.519531 10.875 -20.6875 C 10.875 -16.6875 11.84375 -13.46875 13.78125 -11.03125 C 15.726562 -8.59375 18.300781 -7.375 21.5 -7.375 Z M 21.5 -7.375 "/></g></g><g style="fill:#373643;fill-opacity:0.1098;"><g transform="translate(316.978714, 202.954088)"><path style="stroke:none" d="M 12.171875 -47.375 C 12.171875 -46.019531 11.671875 -45.003906 10.671875 -44.328125 C 9.671875 -43.648438 8.601562 -43.3125 7.46875 -43.3125 C 6.269531 -43.3125 5.179688 -43.648438 4.203125 -44.328125 C 3.234375 -45.003906 2.75 -46.019531 2.75 -47.375 L 2.75 -48.421875 C 2.75 -49.828125 3.234375 -50.851562 4.203125 -51.5 C 5.179688 -52.15625 6.269531 -52.484375 7.46875 -52.484375 C 8.601562 -52.484375 9.671875 -52.15625 10.671875 -51.5 C 11.671875 -50.851562 12.171875 -49.828125 12.171875 -48.421875 Z M 2.84375 -37.3125 C 2.84375 -38.601562 3.34375 -39.585938 4.34375 -40.265625 C 5.34375 -40.941406 6.382812 -41.28125 7.46875 -41.28125 C 8.601562 -41.28125 9.65625 -40.941406 10.625 -40.265625 C 11.59375 -39.585938 12.078125 -38.628906 12.078125 -37.390625 L 12.078125 -3.96875 C 12.078125 -2.625 11.59375 -1.625 10.625 -0.96875 C 9.65625 -0.320312 8.601562 0 7.46875 0 C 6.382812 0 5.34375 -0.320312 4.34375 -0.96875 C 3.34375 -1.625 2.84375 -2.625 2.84375 -3.96875 Z M 2.84375 -37.3125 "/></g></g><g style="fill:#373643;fill-opacity:1;"><g transform="translate(32.725578, 199.369278)"><path style="stroke:none" d="M 21.90625 -41.28125 C 23.363281 -41.28125 24.523438 -40.96875 25.390625 -40.34375 C 26.253906 -39.726562 26.6875 -38.71875 26.6875 -37.3125 C 26.6875 -36.007812 26.253906 -34.976562 25.390625 -34.21875 C 24.523438 -33.46875 23.363281 -33.09375 21.90625 -33.09375 C 18.5 -33.09375 16.101562 -31.875 14.71875 -29.4375 C 13.34375 -27.007812 12.65625 -23.710938 12.65625 -19.546875 L 12.65625 -4.140625 C 12.65625 -2.953125 12.222656 -1.960938 11.359375 -1.171875 C 10.492188 -0.390625 9.4375 0 8.1875 0 C 6.78125 0 5.644531 -0.390625 4.78125 -1.171875 C 3.914062 -1.960938 3.484375 -2.953125 3.484375 -4.140625 L 3.484375 -37.140625 C 3.484375 -38.441406 3.984375 -39.457031 4.984375 -40.1875 C 5.984375 -40.914062 7.050781 -41.28125 8.1875 -41.28125 C 9.320312 -41.28125 10.347656 -40.925781 11.265625 -40.21875 C 12.191406 -39.519531 12.65625 -38.492188 12.65625 -37.140625 L 12.65625 -36.65625 C 13.84375 -38.226562 15.21875 -39.390625 16.78125 -40.140625 C 18.351562 -40.898438 20.0625 -41.28125 21.90625 -41.28125 Z M 21.90625 -41.28125 "/></g></g><g style="fill:#373643;fill-opacity:1;"><g transform="translate(56.972574, 199.369278)"><path style="stroke:none" d="M 23.203125 -7.21875 C 24.765625 -7.21875 26.300781 -7.429688 27.8125 -7.859375 C 29.332031 -8.296875 30.738281 -9.03125 32.03125 -10.0625 C 33.28125 -11.195312 34.5 -11.722656 35.6875 -11.640625 C 36.875 -11.554688 37.859375 -11.125 38.640625 -10.34375 C 39.429688 -9.5625 39.828125 -8.585938 39.828125 -7.421875 C 39.828125 -6.253906 39.257812 -5.132812 38.125 -4.0625 C 36.226562 -2.21875 33.984375 -0.929688 31.390625 -0.203125 C 28.796875 0.523438 26.144531 0.863281 23.4375 0.8125 C 19.21875 0.8125 15.5 -0.0507812 12.28125 -1.78125 C 9.070312 -3.507812 6.5625 -5.914062 4.75 -9 C 2.9375 -12.082031 2.03125 -15.648438 2.03125 -19.703125 C 2.03125 -24.140625 2.894531 -28.035156 4.625 -31.390625 C 6.351562 -34.742188 8.796875 -37.363281 11.953125 -39.25 C 15.117188 -41.144531 18.867188 -42.09375 23.203125 -42.09375 C 27.523438 -42.09375 31.195312 -41.210938 34.21875 -39.453125 C 37.25 -37.703125 39.5625 -35.242188 41.15625 -32.078125 C 42.757812 -28.910156 43.5625 -25.21875 43.5625 -21 C 43.5625 -19.65625 43.289062 -18.507812 42.75 -17.5625 C 42.207031 -16.613281 40.773438 -16.140625 38.453125 -16.140625 L 11.4375 -16.140625 C 12.195312 -13.492188 13.628906 -11.34375 15.734375 -9.6875 C 17.847656 -8.039062 20.335938 -7.21875 23.203125 -7.21875 Z M 23.28125 -34.0625 C 20.144531 -34.0625 17.519531 -33.070312 15.40625 -31.09375 C 13.300781 -29.125 11.953125 -26.546875 11.359375 -23.359375 L 34.953125 -23.359375 C 34.679688 -26.546875 33.625 -29.125 31.78125 -31.09375 C 29.945312 -33.070312 27.113281 -34.0625 23.28125 -34.0625 Z M 23.28125 -34.0625 "/></g></g><g style="fill:#373643;fill-opacity:1;"><g transform="translate(104.088651, 199.369278)"><path style="stroke:none" d="M 37.875 -41.28125 C 39.28125 -41.28125 40.414062 -40.820312 41.28125 -39.90625 C 42.144531 -38.988281 42.578125 -37.90625 42.578125 -36.65625 L 42.578125 -2.515625 C 42.578125 1.429688 41.65625 4.753906 39.8125 7.453125 C 37.976562 10.160156 35.519531 12.191406 32.4375 13.546875 C 29.363281 14.898438 25.929688 15.578125 22.140625 15.578125 C 19.003906 15.578125 16.164062 15.171875 13.625 14.359375 C 11.082031 13.546875 8.703125 12.113281 6.484375 10.0625 C 5.398438 8.976562 4.882812 7.867188 4.9375 6.734375 C 5 5.597656 5.4375 4.625 6.25 3.8125 C 7.0625 3 8.046875 2.535156 9.203125 2.421875 C 10.367188 2.316406 11.492188 2.753906 12.578125 3.734375 C 14.253906 5.191406 15.804688 6.132812 17.234375 6.5625 C 18.671875 7 20.304688 7.21875 22.140625 7.21875 C 24.085938 7.21875 25.925781 6.878906 27.65625 6.203125 C 29.382812 5.523438 30.789062 4.457031 31.875 3 C 32.957031 1.539062 33.5 -0.296875 33.5 -2.515625 L 33.5 -3.25 C 31.65625 -1.894531 29.648438 -0.878906 27.484375 -0.203125 C 25.328125 0.472656 23.300781 0.8125 21.40625 0.8125 C 17.519531 0.8125 14.101562 -0.078125 11.15625 -1.859375 C 8.207031 -3.648438 5.90625 -6.164062 4.25 -9.40625 C 2.601562 -12.65625 1.78125 -16.441406 1.78125 -20.765625 C 1.78125 -24.984375 2.617188 -28.6875 4.296875 -31.875 C 5.972656 -35.0625 8.3125 -37.5625 11.3125 -39.375 C 14.3125 -41.1875 17.785156 -42.09375 21.734375 -42.09375 C 23.578125 -42.09375 25.535156 -41.820312 27.609375 -41.28125 C 29.691406 -40.738281 31.65625 -39.796875 33.5 -38.453125 C 34.09375 -40.335938 35.550781 -41.28125 37.875 -41.28125 Z M 21.65625 -7.375 C 24.144531 -7.375 26.507812 -7.914062 28.75 -9 C 31 -10.082031 32.554688 -11.707031 33.421875 -13.875 L 33.421875 -27.421875 C 32.390625 -29.472656 30.832031 -31.066406 28.75 -32.203125 C 26.664062 -33.335938 24.546875 -33.90625 22.390625 -33.90625 C 18.984375 -33.90625 16.238281 -32.660156 14.15625 -30.171875 C 12.070312 -27.679688 11.03125 -24.519531 11.03125 -20.6875 C 11.03125 -16.6875 12.003906 -13.46875 13.953125 -11.03125 C 15.898438 -8.59375 18.46875 -7.375 21.65625 -7.375 Z M 21.65625 -7.375 "/></g></g><g style="fill:#373643;fill-opacity:1;"><g transform="translate(151.123624, 199.369278)"><path style="stroke:none" d="M 23.203125 -7.21875 C 24.765625 -7.21875 26.300781 -7.429688 27.8125 -7.859375 C 29.332031 -8.296875 30.738281 -9.03125 32.03125 -10.0625 C 33.28125 -11.195312 34.5 -11.722656 35.6875 -11.640625 C 36.875 -11.554688 37.859375 -11.125 38.640625 -10.34375 C 39.429688 -9.5625 39.828125 -8.585938 39.828125 -7.421875 C 39.828125 -6.253906 39.257812 -5.132812 38.125 -4.0625 C 36.226562 -2.21875 33.984375 -0.929688 31.390625 -0.203125 C 28.796875 0.523438 26.144531 0.863281 23.4375 0.8125 C 19.21875 0.8125 15.5 -0.0507812 12.28125 -1.78125 C 9.070312 -3.507812 6.5625 -5.914062 4.75 -9 C 2.9375 -12.082031 2.03125 -15.648438 2.03125 -19.703125 C 2.03125 -24.140625 2.894531 -28.035156 4.625 -31.390625 C 6.351562 -34.742188 8.796875 -37.363281 11.953125 -39.25 C 15.117188 -41.144531 18.867188 -42.09375 23.203125 -42.09375 C 27.523438 -42.09375 31.195312 -41.210938 34.21875 -39.453125 C 37.25 -37.703125 39.5625 -35.242188 41.15625 -32.078125 C 42.757812 -28.910156 43.5625 -25.21875 43.5625 -21 C 43.5625 -19.65625 43.289062 -18.507812 42.75 -17.5625 C 42.207031 -16.613281 40.773438 -16.140625 38.453125 -16.140625 L 11.4375 -16.140625 C 12.195312 -13.492188 13.628906 -11.34375 15.734375 -9.6875 C 17.847656 -8.039062 20.335938 -7.21875 23.203125 -7.21875 Z M 23.28125 -34.0625 C 20.144531 -34.0625 17.519531 -33.070312 15.40625 -31.09375 C 13.300781 -29.125 11.953125 -26.546875 11.359375 -23.359375 L 34.953125 -23.359375 C 34.679688 -26.546875 33.625 -29.125 31.78125 -31.09375 C 29.945312 -33.070312 27.113281 -34.0625 23.28125 -34.0625 Z M 23.28125 -34.0625 "/></g></g><g style="fill:#373643;fill-opacity:1;"><g transform="translate(198.239701, 199.369278)"><path style="stroke:none" d="M 27.328125 -42.09375 C 31.117188 -42.09375 34.335938 -41.265625 36.984375 -39.609375 C 39.628906 -37.960938 41.65625 -35.679688 43.0625 -32.765625 C 44.46875 -29.847656 45.171875 -26.441406 45.171875 -22.546875 L 45.171875 -4.21875 C 45.171875 -2.976562 44.765625 -1.960938 43.953125 -1.171875 C 43.148438 -0.390625 42.015625 0 40.546875 0 C 39.203125 0 38.097656 -0.390625 37.234375 -1.171875 C 36.367188 -1.960938 35.9375 -2.976562 35.9375 -4.21875 L 35.9375 -22.703125 C 35.9375 -26.054688 35.132812 -28.773438 33.53125 -30.859375 C 31.9375 -32.941406 29.410156 -33.984375 25.953125 -33.984375 C 24.921875 -33.984375 23.6875 -33.695312 22.25 -33.125 C 20.820312 -32.5625 19.421875 -31.710938 18.046875 -30.578125 C 16.671875 -29.441406 15.535156 -28.007812 14.640625 -26.28125 C 13.742188 -24.550781 13.296875 -22.492188 13.296875 -20.109375 L 13.296875 -4.140625 C 13.296875 -1.378906 11.8125 0 8.84375 0 C 7.4375 0 6.285156 -0.363281 5.390625 -1.09375 C 4.503906 -1.820312 4.0625 -2.835938 4.0625 -4.140625 L 4.0625 -37.140625 C 4.0625 -38.492188 4.53125 -39.519531 5.46875 -40.21875 C 6.414062 -40.925781 7.484375 -41.28125 8.671875 -41.28125 C 9.804688 -41.28125 10.859375 -40.925781 11.828125 -40.21875 C 12.804688 -39.519531 13.296875 -38.550781 13.296875 -37.3125 L 13.296875 -36.75 C 15.628906 -38.90625 18.035156 -40.332031 20.515625 -41.03125 C 23.003906 -41.738281 25.273438 -42.09375 27.328125 -42.09375 Z M 27.328125 -42.09375 "/></g></g><g style="fill:#373643;fill-opacity:1;"><g transform="translate(247.464266, 199.369278)"><path style="stroke:none" d=""/></g></g><g style="fill:#373643;fill-opacity:1;"><g transform="translate(266.521119, 199.369278)"><path style="stroke:none" d="M 37.71875 -41.28125 C 39.125 -41.28125 40.242188 -40.890625 41.078125 -40.109375 C 41.921875 -39.328125 42.34375 -38.3125 42.34375 -37.0625 L 42.34375 -4.21875 C 42.34375 -2.976562 41.921875 -1.960938 41.078125 -1.171875 C 40.242188 -0.390625 39.125 0 37.71875 0 C 36.363281 0 35.304688 -0.304688 34.546875 -0.921875 C 33.796875 -1.546875 33.335938 -2.375 33.171875 -3.40625 C 31.335938 -1.945312 29.285156 -0.878906 27.015625 -0.203125 C 24.742188 0.472656 22.578125 0.8125 20.515625 0.8125 C 16.628906 0.8125 13.265625 -0.078125 10.421875 -1.859375 C 7.585938 -3.648438 5.410156 -6.164062 3.890625 -9.40625 C 2.378906 -12.65625 1.625 -16.441406 1.625 -20.765625 C 1.625 -24.984375 2.460938 -28.6875 4.140625 -31.875 C 5.816406 -35.0625 8.15625 -37.5625 11.15625 -39.375 C 14.15625 -41.1875 17.628906 -42.09375 21.578125 -42.09375 C 23.304688 -42.09375 25.222656 -41.769531 27.328125 -41.125 C 29.441406 -40.476562 31.390625 -39.453125 33.171875 -38.046875 C 33.390625 -39.015625 33.875 -39.796875 34.625 -40.390625 C 35.382812 -40.984375 36.414062 -41.28125 37.71875 -41.28125 Z M 21.5 -7.375 C 23.875 -7.375 26.171875 -7.898438 28.390625 -8.953125 C 30.609375 -10.015625 32.175781 -11.570312 33.09375 -13.625 L 33.09375 -27.65625 C 32.0625 -29.65625 30.519531 -31.195312 28.46875 -32.28125 C 26.414062 -33.363281 24.332031 -33.90625 22.21875 -33.90625 C 18.8125 -33.90625 16.066406 -32.660156 13.984375 -30.171875 C 11.910156 -27.679688 10.875 -24.519531 10.875 -20.6875 C 10.875 -16.6875 11.84375 -13.46875 13.78125 -11.03125 C 15.726562 -8.59375 18.300781 -7.375 21.5 -7.375 Z M 21.5 -7.375 "/></g></g><g style="fill:#373643;fill-opacity:1;"><g transform="translate(313.393903, 199.369278)"><path style="stroke:none" d="M 12.171875 -47.375 C 12.171875 -46.019531 11.671875 -45.003906 10.671875 -44.328125 C 9.671875 -43.648438 8.601562 -43.3125 7.46875 -43.3125 C 6.269531 -43.3125 5.179688 -43.648438 4.203125 -44.328125 C 3.234375 -45.003906 2.75 -46.019531 2.75 -47.375 L 2.75 -48.421875 C 2.75 -49.828125 3.234375 -50.851562 4.203125 -51.5 C 5.179688 -52.15625 6.269531 -52.484375 7.46875 -52.484375 C 8.601562 -52.484375 9.671875 -52.15625 10.671875 -51.5 C 11.671875 -50.851562 12.171875 -49.828125 12.171875 -48.421875 Z M 2.84375 -37.3125 C 2.84375 -38.601562 3.34375 -39.585938 4.34375 -40.265625 C 5.34375 -40.941406 6.382812 -41.28125 7.46875 -41.28125 C 8.601562 -41.28125 9.65625 -40.941406 10.625 -40.265625 C 11.59375 -39.585938 12.078125 -38.628906 12.078125 -37.390625 L 12.078125 -3.96875 C 12.078125 -2.625 11.59375 -1.625 10.625 -0.96875 C 9.65625 -0.320312 8.601562 0 7.46875 0 C 6.382812 0 5.34375 -0.320312 4.34375 -0.96875 C 3.34375 -1.625 2.84375 -2.625 2.84375 -3.96875 Z M 2.84375 -37.3125 "/></g></g><g style="fill:#373643;fill-opacity:1;"><g transform="translate(113.57017, 250.640037)"><path style="stroke:none" d="M 7.78125 0.21875 C 6.445312 0.21875 5.242188 -0.0664062 4.171875 -0.640625 C 3.097656 -1.210938 2.253906 -2.007812 1.640625 -3.03125 C 1.023438 -4.0625 0.71875 -5.222656 0.71875 -6.515625 C 0.71875 -7.804688 1.023438 -8.960938 1.640625 -9.984375 C 2.253906 -11.003906 3.097656 -11.800781 4.171875 -12.375 C 5.242188 -12.957031 6.453125 -13.25 7.796875 -13.25 C 8.921875 -13.25 9.9375 -13.050781 10.84375 -12.65625 C 11.757812 -12.257812 12.53125 -11.6875 13.15625 -10.9375 L 11.21875 -9.15625 C 10.34375 -10.175781 9.253906 -10.6875 7.953125 -10.6875 C 7.140625 -10.6875 6.414062 -10.507812 5.78125 -10.15625 C 5.15625 -9.800781 4.664062 -9.304688 4.3125 -8.671875 C 3.957031 -8.035156 3.78125 -7.316406 3.78125 -6.515625 C 3.78125 -5.703125 3.957031 -4.976562 4.3125 -4.34375 C 4.664062 -3.71875 5.15625 -3.226562 5.78125 -2.875 C 6.414062 -2.519531 7.140625 -2.34375 7.953125 -2.34375 C 9.253906 -2.34375 10.34375 -2.859375 11.21875 -3.890625 L 13.15625 -2.109375 C 12.53125 -1.347656 11.757812 -0.769531 10.84375 -0.375 C 9.925781 0.0195312 8.90625 0.21875 7.78125 0.21875 Z M 7.78125 0.21875 "/></g></g><g style="fill:#373643;fill-opacity:1;"><g transform="translate(131.157085, 250.640037)"><path style="stroke:none" d="M 14.0625 -13.03125 L 8.4375 0 L 5.453125 0 L -0.171875 -13.03125 L 3.09375 -13.03125 L 7.046875 -3.71875 L 11.078125 -13.03125 Z M 14.0625 -13.03125 "/></g></g><g style="fill:#373643;fill-opacity:1;"><g transform="translate(148.985914, 250.640037)"><path style="stroke:none" d=""/></g></g><g style="fill:#373643;fill-opacity:1;"><g transform="translate(158.198837, 250.640037)"><path style="stroke:none" d="M 11.109375 -6.78125 C 11.847656 -6.539062 12.425781 -6.144531 12.84375 -5.59375 C 13.269531 -5.039062 13.484375 -4.359375 13.484375 -3.546875 C 13.484375 -2.410156 13.039062 -1.535156 12.15625 -0.921875 C 11.269531 -0.304688 9.976562 0 8.28125 0 L 1.546875 0 L 1.546875 -13.03125 L 7.90625 -13.03125 C 9.5 -13.03125 10.71875 -12.722656 11.5625 -12.109375 C 12.414062 -11.503906 12.84375 -10.679688 12.84375 -9.640625 C 12.84375 -9.003906 12.6875 -8.4375 12.375 -7.9375 C 12.070312 -7.445312 11.648438 -7.0625 11.109375 -6.78125 Z M 4.546875 -10.75 L 4.546875 -7.6875 L 7.53125 -7.6875 C 8.28125 -7.6875 8.847656 -7.816406 9.234375 -8.078125 C 9.617188 -8.335938 9.8125 -8.722656 9.8125 -9.234375 C 9.8125 -9.742188 9.617188 -10.125 9.234375 -10.375 C 8.847656 -10.625 8.28125 -10.75 7.53125 -10.75 Z M 8.0625 -2.265625 C 8.851562 -2.265625 9.445312 -2.394531 9.84375 -2.65625 C 10.25 -2.914062 10.453125 -3.320312 10.453125 -3.875 C 10.453125 -4.945312 9.65625 -5.484375 8.0625 -5.484375 L 4.546875 -5.484375 L 4.546875 -2.265625 Z M 8.0625 -2.265625 "/></g></g><g style="fill:#373643;fill-opacity:1;"><g transform="translate(176.381236, 250.640037)"><path style="stroke:none" d="M 7.328125 0.21875 C 5.472656 0.21875 4.023438 -0.289062 2.984375 -1.3125 C 1.953125 -2.34375 1.4375 -3.816406 1.4375 -5.734375 L 1.4375 -13.03125 L 4.453125 -13.03125 L 4.453125 -5.84375 C 4.453125 -3.507812 5.414062 -2.34375 7.34375 -2.34375 C 8.289062 -2.34375 9.007812 -2.625 9.5 -3.1875 C 10 -3.75 10.25 -4.632812 10.25 -5.84375 L 10.25 -13.03125 L 13.234375 -13.03125 L 13.234375 -5.734375 C 13.234375 -3.816406 12.710938 -2.34375 11.671875 -1.3125 C 10.640625 -0.289062 9.191406 0.21875 7.328125 0.21875 Z M 7.328125 0.21875 "/></g></g><g style="fill:#373643;fill-opacity:1;"><g transform="translate(194.991623, 250.640037)"><path style="stroke:none" d="M 1.546875 -13.03125 L 4.5625 -13.03125 L 4.5625 0 L 1.546875 0 Z M 1.546875 -13.03125 "/></g></g><g style="fill:#373643;fill-opacity:1;"><g transform="translate(205.041943, 250.640037)"><path style="stroke:none" d="M 1.546875 -13.03125 L 4.5625 -13.03125 L 4.5625 -2.453125 L 11.09375 -2.453125 L 11.09375 0 L 1.546875 0 Z M 1.546875 -13.03125 "/></g></g><g style="fill:#373643;fill-opacity:1;"><g transform="translate(220.228303, 250.640037)"><path style="stroke:none" d="M 1.546875 -13.03125 L 7.46875 -13.03125 C 8.875 -13.03125 10.117188 -12.757812 11.203125 -12.21875 C 12.296875 -11.675781 13.140625 -10.914062 13.734375 -9.9375 C 14.335938 -8.957031 14.640625 -7.816406 14.640625 -6.515625 C 14.640625 -5.210938 14.335938 -4.070312 13.734375 -3.09375 C 13.140625 -2.113281 12.296875 -1.351562 11.203125 -0.8125 C 10.117188 -0.269531 8.875 0 7.46875 0 L 1.546875 0 Z M 7.3125 -2.46875 C 8.613281 -2.46875 9.648438 -2.832031 10.421875 -3.5625 C 11.203125 -4.289062 11.59375 -5.273438 11.59375 -6.515625 C 11.59375 -7.753906 11.203125 -8.734375 10.421875 -9.453125 C 9.648438 -10.179688 8.613281 -10.546875 7.3125 -10.546875 L 4.5625 -10.546875 L 4.5625 -2.46875 Z M 7.3125 -2.46875 "/></g></g><g style="fill:#373643;fill-opacity:1;"><g transform="translate(239.54583, 250.640037)"><path style="stroke:none" d="M 11.625 -2.421875 L 11.625 0 L 1.546875 0 L 1.546875 -13.03125 L 11.390625 -13.03125 L 11.390625 -10.609375 L 4.546875 -10.609375 L 4.546875 -7.78125 L 10.59375 -7.78125 L 10.59375 -5.4375 L 4.546875 -5.4375 L 4.546875 -2.421875 Z M 11.625 -2.421875 "/></g></g><g style="fill:#373643;fill-opacity:1;"><g transform="translate(255.978997, 250.640037)"><path style="stroke:none" d="M 9.84375 0 L 7.328125 -3.625 L 4.5625 -3.625 L 4.5625 0 L 1.546875 0 L 1.546875 -13.03125 L 7.1875 -13.03125 C 8.332031 -13.03125 9.332031 -12.835938 10.1875 -12.453125 C 11.039062 -12.066406 11.695312 -11.519531 12.15625 -10.8125 C 12.613281 -10.101562 12.84375 -9.265625 12.84375 -8.296875 C 12.84375 -7.328125 12.609375 -6.492188 12.140625 -5.796875 C 11.671875 -5.097656 11.007812 -4.5625 10.15625 -4.1875 L 13.078125 0 Z M 9.78125 -8.296875 C 9.78125 -9.023438 9.546875 -9.582031 9.078125 -9.96875 C 8.609375 -10.363281 7.921875 -10.5625 7.015625 -10.5625 L 4.5625 -10.5625 L 4.5625 -6.03125 L 7.015625 -6.03125 C 7.921875 -6.03125 8.609375 -6.226562 9.078125 -6.625 C 9.546875 -7.019531 9.78125 -7.578125 9.78125 -8.296875 Z M 9.78125 -8.296875 "/></g></g><g clip-rule="nonzero" clip-path="url(#d80cffdeb5)"><g clip-rule="nonzero" clip-path="url(#93ea3a72d2)"><path style=" stroke:none;fill-rule:nonzero;fill:#a191dd;fill-opacity:1;" d="M 250.746094 184.367188 L 265.265625 184.367188 L 265.265625 198.882812 L 250.746094 198.882812 Z M 250.746094 184.367188 "/></g></g><g clip-rule="nonzero" clip-path="url(#86c7e95fd8)"><g clip-rule="nonzero" clip-path="url(#9995226aa4)"><g clip-rule="nonzero" clip-path="url(#f5a38c2dc9)"><path style=" stroke:none;fill-rule:nonzero;fill:#f85c70;fill-opacity:1;" d="M 343.566406 130.132812 L 316.292969 129.882812 C 311.027344 129.832031 310.5 140.109375 316.738281 140.058594 L 333.695312 139.921875 L 333 157.015625 C 332.789062 162.21875 342.933594 162.410156 343.039062 157.125 Z M 343.566406 130.132812 "/></g></g></g><g clip-rule="nonzero" clip-path="url(#1ad311c544)"><g clip-rule="nonzero" clip-path="url(#78d2b58ee6)"><g clip-rule="nonzero" clip-path="url(#5037409921)"><path style=" stroke:none;fill-rule:nonzero;fill:#18cb96;fill-opacity:1;" d="M 359.160156 114.667969 L 331.890625 114.414062 C 326.621094 114.367188 326.09375 124.644531 332.332031 124.59375 L 349.289062 124.457031 L 348.597656 141.546875 C 348.386719 146.753906 358.527344 146.945312 358.632812 141.660156 Z M 359.160156 114.667969 "/></g></g></g></g></svg>